<ttFont>
    <TTGlyph name=".notdef" xMin="68" yMin="0" xMax="612" yMax="1365">
      <contour>
        <pt x="68" y="0" on="1"/>
        <pt x="68" y="1365" on="1"/>
        <pt x="612" y="1365" on="1"/>
        <pt x="612" y="0" on="1"/>
      </contour>
      <contour>
        <pt x="136" y="68" on="1"/>
        <pt x="544" y="68" on="1"/>
        <pt x="544" y="1297" on="1"/>
        <pt x="136" y="1297" on="1"/>
      </contour>
    </TTGlyph>
    <TTGlyph name="A" xMin="26" yMin="0" xMax="1192" yMax="1464">
      <contour>
        <pt x="26" y="0" on="1"/>
        <pt x="512" y="1464" on="1"/>
        <pt x="704" y="1464" on="1"/>
        <pt x="1192" y="0" on="1"/>
        <pt x="1042" y="0" on="1"/>
        <pt x="908" y="399" on="1"/>
        <pt x="300" y="399" on="1"/>
        <pt x="172" y="0" on="1"/>
      </contour>
      <contour>
        <pt x="603" y="1362" on="1"/>
        <pt x="588" y="1316" on="0"/>
        <pt x="519" y="1091" on="0"/>
        <pt x="503" y="1040" on="1"/>
        <pt x="334" y="508" on="1"/>
        <pt x="874" y="508" on="1"/>
        <pt x="704" y="1041" on="1"/>
        <pt x="646" y="1221" on="0"/>
      </contour>
    </TTGlyph>
    <TTGlyph name="AE" xMin="-37" yMin="0" xMax="2015" yMax="1464">
      <contour>
        <pt x="432" y="508" on="1"/>
        <pt x="974" y="508" on="1"/>
        <pt x="974" y="1406" on="1"/>
        <pt x="975" y="1405" on="0"/>
        <pt x="924" y="1315" on="0"/>
        <pt x="853" y="1197" on="0"/>
        <pt x="832" y="1167" on="1"/>
        <pt x="479" y="586" on="0"/>
      </contour>
      <contour>
        <pt x="-37" y="0" on="1"/>
        <pt x="870" y="1464" on="1"/>
        <pt x="2005" y="1464" on="1"/>
        <pt x="2005" y="1352" on="1"/>
        <pt x="1118" y="1352" on="1"/>
        <pt x="1118" y="838" on="1"/>
        <pt x="1843" y="838" on="1"/>
        <pt x="1843" y="819" on="0"/>
        <pt x="1842" y="742" on="0"/>
        <pt x="1842" y="723" on="1"/>
        <pt x="1118" y="723" on="1"/>
        <pt x="1118" y="113" on="1"/>
        <pt x="2015" y="113" on="1"/>
        <pt x="2015" y="0" on="1"/>
        <pt x="971" y="0" on="1"/>
        <pt x="971" y="399" on="1"/>
        <pt x="371" y="399" on="1"/>
        <pt x="124" y="0" on="1"/>
      </contour>
    </TTGlyph>
    <TTGlyph name="Aacute" xMin="26" yMin="0" xMax="1192" yMax="1933">
      <component glyphName="glyph00365" x="26" y="0" flags="0x0"/>
      <component glyphName="acute" x="456" y="441" flags="0x1004"/>
      <component glyphName="A" x="0" y="0" flags="0x1004"/>
    </TTGlyph>
    <TTGlyph name="Abreve" xMin="26" yMin="0" xMax="1192" yMax="1879">
      <component glyphName="glyph00365" x="26" y="0" flags="0x0"/>
      <component glyphName="breve" x="207" y="441" flags="0x1004"/>
      <component glyphName="A" x="0" y="0" flags="0x1004"/>
    </TTGlyph>
    <TTGlyph name="Acircumflex" xMin="26" yMin="0" xMax="1192" yMax="1933">
      <component glyphName="glyph00365" x="26" y="0" flags="0x0"/>
      <component glyphName="circumflex" x="190" y="441" flags="0x1004"/>
      <component glyphName="A" x="0" y="0" flags="0x1004"/>
    </TTGlyph>
    <TTGlyph name="Adieresis" xMin="26" yMin="0" xMax="1192" yMax="1806">
      <component glyphName="glyph00365" x="26" y="0" flags="0x0"/>
      <component glyphName="dieresis" x="179" y="441" flags="0x1004"/>
      <component glyphName="A" x="0" y="0" flags="0x1004"/>
    </TTGlyph>
    <TTGlyph name="Agrave" xMin="26" yMin="0" xMax="1192" yMax="1933">
      <component glyphName="glyph00365" x="26" y="0" flags="0x0"/>
      <component glyphName="grave" x="266" y="441" flags="0x1004"/>
      <component glyphName="A" x="0" y="0" flags="0x1004"/>
    </TTGlyph>
    <TTGlyph name="Amacron" xMin="26" yMin="0" xMax="1192" yMax="1770">
      <component glyphName="glyph00365" x="26" y="0" flags="0x0"/>
      <component glyphName="macron" x="247" y="441" flags="0x1004"/>
      <component glyphName="A" x="0" y="0" flags="0x1004"/>
    </TTGlyph>
    <TTGlyph name="Aogonek" xMin="26" yMin="-369" xMax="1192" yMax="1464">
      <component glyphName="glyph00365" x="26" y="0" flags="0x0"/>
      <component glyphName="ogonek" x="803" y="0" flags="0x1004"/>
      <component glyphName="A" x="0" y="0" flags="0x1004"/>
    </TTGlyph>
    <TTGlyph name="Aring" xMin="26" yMin="0" xMax="1192" yMax="2033">
      <component glyphName="glyph00365" x="26" y="0" flags="0x0"/>
      <component glyphName="ring" x="242" y="441" flags="0x1004"/>
      <component glyphName="A" x="0" y="0" flags="0x1004"/>
    </TTGlyph>
    <TTGlyph name="Atilde" xMin="26" yMin="0" xMax="1192" yMax="1836">
      <component glyphName="glyph00365" x="26" y="0" flags="0x0"/>
      <component glyphName="tilde" x="209" y="441" flags="0x1004"/>
      <component glyphName="A" x="0" y="0" flags="0x1004"/>
    </TTGlyph>
    <TTGlyph name="B" xMin="148" yMin="0" xMax="1214" yMax="1464">
      <contour>
        <pt x="293" y="1357" on="1"/>
        <pt x="293" y="837" on="1"/>
        <pt x="521" y="837" on="1"/>
        <pt x="581" y="837" on="0"/>
        <pt x="662" y="838" on="0"/>
        <pt x="757" y="843" on="0"/>
        <pt x="818" y="851" on="0"/>
        <pt x="888" y="865" on="0"/>
        <pt x="931" y="885" on="0"/>
        <pt x="975" y="914" on="0"/>
        <pt x="1001" y="952" on="0"/>
        <pt x="1022" y="1002" on="0"/>
        <pt x="1031" y="1063" on="0"/>
        <pt x="1031" y="1100" on="1"/>
        <pt x="1031" y="1141" on="0"/>
        <pt x="1016" y="1208" on="0"/>
        <pt x="991" y="1257" on="0"/>
        <pt x="948" y="1296" on="0"/>
        <pt x="905" y="1322" on="0"/>
        <pt x="840" y="1341" on="0"/>
        <pt x="785" y="1350" on="0"/>
        <pt x="702" y="1356" on="0"/>
        <pt x="641" y="1357" on="0"/>
        <pt x="594" y="1357" on="1"/>
      </contour>
      <contour>
        <pt x="294" y="730" on="1"/>
        <pt x="294" y="107" on="1"/>
        <pt x="608" y="107" on="1"/>
        <pt x="665" y="107" on="0"/>
        <pt x="743" y="110" on="0"/>
        <pt x="848" y="123" on="0"/>
        <pt x="918" y="148" on="0"/>
        <pt x="994" y="193" on="0"/>
        <pt x="1040" y="257" on="0"/>
        <pt x="1069" y="354" on="0"/>
        <pt x="1069" y="415" on="1"/>
        <pt x="1069" y="465" on="0"/>
        <pt x="1052" y="546" on="0"/>
        <pt x="1026" y="608" on="0"/>
        <pt x="978" y="655" on="0"/>
        <pt x="932" y="687" on="0"/>
        <pt x="860" y="710" on="0"/>
        <pt x="799" y="722" on="0"/>
        <pt x="709" y="728" on="0"/>
        <pt x="640" y="730" on="0"/>
        <pt x="589" y="730" on="1"/>
      </contour>
      <contour>
        <pt x="148" y="0" on="1"/>
        <pt x="148" y="1464" on="1"/>
        <pt x="587" y="1464" on="1"/>
        <pt x="657" y="1464" on="0"/>
        <pt x="772" y="1457" on="0"/>
        <pt x="896" y="1437" on="0"/>
        <pt x="991" y="1403" on="0"/>
        <pt x="1079" y="1347" on="0"/>
        <pt x="1136" y="1271" on="0"/>
        <pt x="1170" y="1162" on="0"/>
        <pt x="1170" y="1095" on="1"/>
        <pt x="1170" y="837" on="0"/>
        <pt x="899" y="790" on="1"/>
        <pt x="1056" y="759" on="0"/>
        <pt x="1214" y="561" on="0"/>
        <pt x="1214" y="413" on="1"/>
        <pt x="1214" y="290" on="0"/>
        <pt x="1138" y="130" on="0"/>
        <pt x="968" y="37" on="0"/>
        <pt x="730" y="0" on="0"/>
        <pt x="551" y="0" on="1"/>
      </contour>
    </TTGlyph>
    <TTGlyph name="C" xMin="114" yMin="-25" xMax="1274" yMax="1491">
      <contour>
        <pt x="738" y="1491" on="1"/>
        <pt x="937" y="1491" on="0"/>
        <pt x="1216" y="1294" on="0"/>
        <pt x="1269" y="1102" on="1"/>
        <pt x="1135" y="1071" on="1"/>
        <pt x="1099" y="1211" on="0"/>
        <pt x="899" y="1374" on="0"/>
        <pt x="733" y="1374" on="1"/>
        <pt x="484" y="1374" on="0"/>
        <pt x="267" y="1050" on="0"/>
        <pt x="267" y="738" on="1"/>
        <pt x="267" y="605" on="0"/>
        <pt x="294" y="407" on="0"/>
        <pt x="360" y="247" on="0"/>
        <pt x="467" y="146" on="0"/>
        <pt x="627" y="93" on="0"/>
        <pt x="736" y="93" on="1"/>
        <pt x="1047" y="93" on="0"/>
        <pt x="1149" y="377" on="1"/>
        <pt x="1274" y="338" on="1"/>
        <pt x="1214" y="157" on="0"/>
        <pt x="927" y="-25" on="0"/>
        <pt x="728" y="-25" on="1"/>
        <pt x="418" y="-25" on="0"/>
        <pt x="114" y="338" on="0"/>
        <pt x="114" y="738" on="1"/>
        <pt x="114" y="1124" on="0"/>
        <pt x="440" y="1491" on="0"/>
      </contour>
    </TTGlyph>
    <TTGlyph name="Cacute" xMin="114" yMin="-25" xMax="1274" yMax="1933">
      <component glyphName="glyph00365" x="114" y="0" flags="0x0"/>
      <component glyphName="acute" x="551" y="441" flags="0x1004"/>
      <component glyphName="C" x="0" y="0" flags="0x1004"/>
    </TTGlyph>
    <TTGlyph name="Ccaron" xMin="114" yMin="-25" xMax="1274" yMax="1933">
      <component glyphName="glyph00365" x="114" y="0" flags="0x0"/>
      <component glyphName="caron" x="300" y="441" flags="0x1004"/>
      <component glyphName="C" x="0" y="0" flags="0x1004"/>
    </TTGlyph>
    <TTGlyph name="Ccedilla" xMin="114" yMin="-390" xMax="1274" yMax="1491">
      <component glyphName="glyph00365" x="114" y="0" flags="0x0"/>
      <component glyphName="cedilla" x="473" y="0" flags="0x1004"/>
      <component glyphName="C" x="0" y="0" flags="0x1004"/>
    </TTGlyph>
    <TTGlyph name="Ccircumflex" xMin="114" yMin="-25" xMax="1274" yMax="1933">
      <component glyphName="glyph00365" x="114" y="0" flags="0x0"/>
      <component glyphName="circumflex" x="289" y="441" flags="0x1004"/>
      <component glyphName="C" x="0" y="0" flags="0x1004"/>
    </TTGlyph>
    <TTGlyph name="Cdotaccent" xMin="114" yMin="-25" xMax="1274" yMax="1842">
      <component glyphName="glyph00365" x="114" y="0" flags="0x0"/>
      <component glyphName="uni0307" x="453" y="325" flags="0x1004"/>
      <component glyphName="C" x="0" y="0" flags="0x1004"/>
    </TTGlyph>
    <TTGlyph name="D" xMin="148" yMin="0" xMax="1287" yMax="1464">
      <contour>
        <pt x="653" y="1350" on="1"/>
        <pt x="294" y="1350" on="1"/>
        <pt x="294" y="114" on="1"/>
        <pt x="597" y="114" on="1"/>
        <pt x="752" y="114" on="0"/>
        <pt x="960" y="181" on="0"/>
        <pt x="1089" y="335" on="0"/>
        <pt x="1144" y="565" on="0"/>
        <pt x="1144" y="737" on="1"/>
        <pt x="1144" y="891" on="0"/>
        <pt x="1098" y="1108" on="0"/>
        <pt x="988" y="1271" on="0"/>
        <pt x="795" y="1350" on="0"/>
      </contour>
      <contour>
        <pt x="148" y="1464" on="1"/>
        <pt x="652" y="1464" on="1"/>
        <pt x="811" y="1464" on="0"/>
        <pt x="1041" y="1389" on="0"/>
        <pt x="1206" y="1220" on="0"/>
        <pt x="1287" y="939" on="0"/>
        <pt x="1287" y="738" on="1"/>
        <pt x="1287" y="472" on="0"/>
        <pt x="1147" y="146" on="0"/>
        <pt x="868" y="0" on="0"/>
        <pt x="645" y="0" on="1"/>
        <pt x="148" y="0" on="1"/>
      </contour>
      <contour>
        <pt x="706" y="1464" on="1"/>
      </contour>
      <contour>
        <pt x="700" y="1464" on="1"/>
      </contour>
      <contour>
        <pt x="700" y="1464" on="1"/>
      </contour>
      <contour>
        <pt x="700" y="1464" on="1"/>
      </contour>
    </TTGlyph>
    <TTGlyph name="Dcaron" xMin="148" yMin="0" xMax="1287" yMax="1933">
      <component glyphName="glyph00365" x="148" y="0" flags="0x0"/>
      <component glyphName="caron" x="255" y="441" flags="0x1004"/>
      <component glyphName="D" x="0" y="0" flags="0x1004"/>
    </TTGlyph>
    <TTGlyph name="Dcroat" xMin="0" yMin="0" xMax="1270" yMax="1464">
      <component glyphName="glyph00365" x="0" y="0" flags="0x0"/>
      <component glyphName="Eth" x="0" y="0" flags="0x1004"/>
    </TTGlyph>
    <TTGlyph name="E" xMin="148" yMin="0" xMax="1128" yMax="1464">
      <contour>
        <pt x="1128" y="0" on="1"/>
        <pt x="148" y="0" on="1"/>
        <pt x="148" y="1464" on="1"/>
        <pt x="1117" y="1464" on="1"/>
        <pt x="1117" y="1352" on="1"/>
        <pt x="294" y="1352" on="1"/>
        <pt x="294" y="838" on="1"/>
        <pt x="1010" y="838" on="1"/>
        <pt x="1010" y="723" on="1"/>
        <pt x="294" y="723" on="1"/>
        <pt x="294" y="113" on="1"/>
        <pt x="1128" y="113" on="1"/>
      </contour>
    </TTGlyph>
    <TTGlyph name="Eacute" xMin="148" yMin="0" xMax="1128" yMax="1933">
      <component glyphName="glyph00365" x="148" y="0" flags="0x0"/>
      <component glyphName="acute" x="432" y="441" flags="0x1004"/>
      <component glyphName="E" x="0" y="0" flags="0x1004"/>
    </TTGlyph>
    <TTGlyph name="Ecaron" xMin="148" yMin="0" xMax="1128" yMax="1933">
      <component glyphName="glyph00365" x="148" y="0" flags="0x0"/>
      <component glyphName="caron" x="220" y="441" flags="0x1004"/>
      <component glyphName="E" x="0" y="0" flags="0x1004"/>
    </TTGlyph>
    <TTGlyph name="Ecircumflex" xMin="148" yMin="0" xMax="1128" yMax="1933">
      <component glyphName="glyph00365" x="148" y="0" flags="0x0"/>
      <component glyphName="circumflex" x="234" y="441" flags="0x1004"/>
      <component glyphName="E" x="0" y="0" flags="0x1004"/>
    </TTGlyph>
    <TTGlyph name="Edieresis" xMin="148" yMin="0" xMax="1128" yMax="1806">
      <component glyphName="glyph00365" x="148" y="0" flags="0x0"/>
      <component glyphName="dieresis" x="242" y="441" flags="0x1004"/>
      <component glyphName="E" x="0" y="0" flags="0x1004"/>
    </TTGlyph>
    <TTGlyph name="Egrave" xMin="148" yMin="0" xMax="1128" yMax="1933">
      <component glyphName="glyph00365" x="148" y="0" flags="0x0"/>
      <component glyphName="grave" x="325" y="441" flags="0x1004"/>
      <component glyphName="E" x="0" y="0" flags="0x1004"/>
    </TTGlyph>
    <TTGlyph name="Emacron" xMin="148" yMin="0" xMax="1128" yMax="1770">
      <component glyphName="glyph00365" x="148" y="0" flags="0x0"/>
      <component glyphName="macron" x="280" y="441" flags="0x1004"/>
      <component glyphName="E" x="0" y="0" flags="0x1004"/>
    </TTGlyph>
    <TTGlyph name="Eogonek" xMin="148" yMin="-369" xMax="1128" yMax="1464">
      <component glyphName="glyph00365" x="148" y="0" flags="0x0"/>
      <component glyphName="ogonek" x="683" y="0" flags="0x1004"/>
      <component glyphName="E" x="0" y="0" flags="0x1004"/>
    </TTGlyph>
    <TTGlyph name="Eth" xMin="0" yMin="0" xMax="1270" yMax="1464">
      <contour>
        <pt x="0" y="702" on="1"/>
        <pt x="0" y="788" on="1"/>
        <pt x="140" y="788" on="1"/>
        <pt x="140" y="1464" on="1"/>
        <pt x="644" y="1464" on="1"/>
        <pt x="803" y="1464" on="0"/>
        <pt x="1030" y="1389" on="0"/>
        <pt x="1192" y="1220" on="0"/>
        <pt x="1270" y="939" on="0"/>
        <pt x="1270" y="738" on="1"/>
        <pt x="1270" y="341" on="0"/>
        <pt x="970" y="0" on="0"/>
        <pt x="637" y="0" on="1"/>
        <pt x="140" y="0" on="1"/>
        <pt x="140" y="702" on="1"/>
      </contour>
      <contour>
        <pt x="645" y="1350" on="1"/>
        <pt x="286" y="1350" on="1"/>
        <pt x="286" y="788" on="1"/>
        <pt x="550" y="788" on="1"/>
        <pt x="550" y="702" on="1"/>
        <pt x="286" y="702" on="1"/>
        <pt x="286" y="114" on="1"/>
        <pt x="589" y="114" on="1"/>
        <pt x="744" y="114" on="0"/>
        <pt x="949" y="181" on="0"/>
        <pt x="1075" y="335" on="0"/>
        <pt x="1127" y="564" on="0"/>
        <pt x="1127" y="737" on="1"/>
        <pt x="1127" y="860" on="0"/>
        <pt x="1101" y="1044" on="0"/>
        <pt x="1035" y="1199" on="0"/>
        <pt x="926" y="1297" on="0"/>
        <pt x="759" y="1350" on="0"/>
      </contour>
    </TTGlyph>
    <TTGlyph name="Euro" xMin="-13" yMin="-23" xMax="1154" yMax="1493">
      <contour>
        <pt x="1154" y="340" on="1"/>
        <pt x="1032" y="379" on="1"/>
        <pt x="1014" y="329" on="0"/>
        <pt x="986" y="265" on="0"/>
        <pt x="945" y="193" on="0"/>
        <pt x="897" y="150" on="0"/>
        <pt x="831" y="113" on="0"/>
        <pt x="744" y="95" on="0"/>
        <pt x="689" y="95" on="1"/>
        <pt x="501" y="95" on="0"/>
        <pt x="302" y="339" on="0"/>
        <pt x="275" y="586" on="1"/>
        <pt x="641" y="586" on="1"/>
        <pt x="641" y="672" on="1"/>
        <pt x="268" y="672" on="1"/>
        <pt x="267" y="689" on="0"/>
        <pt x="267" y="783" on="0"/>
        <pt x="268" y="796" on="1"/>
        <pt x="641" y="796" on="1"/>
        <pt x="641" y="882" on="1"/>
        <pt x="274" y="882" on="1"/>
        <pt x="286" y="1001" on="0"/>
        <pt x="341" y="1178" on="0"/>
        <pt x="438" y="1309" on="0"/>
        <pt x="587" y="1376" on="0"/>
        <pt x="688" y="1376" on="1"/>
        <pt x="746" y="1376" on="0"/>
        <pt x="835" y="1358" on="0"/>
        <pt x="900" y="1316" on="0"/>
        <pt x="944" y="1270" on="0"/>
        <pt x="980" y="1192" on="0"/>
        <pt x="1001" y="1126" on="0"/>
        <pt x="1015" y="1073" on="1"/>
        <pt x="1149" y="1104" on="1"/>
        <pt x="1124" y="1215" on="0"/>
        <pt x="1038" y="1368" on="0"/>
        <pt x="917" y="1455" on="0"/>
        <pt x="775" y="1493" on="0"/>
        <pt x="682" y="1493" on="1"/>
        <pt x="440" y="1493" on="0"/>
        <pt x="152" y="1190" on="0"/>
        <pt x="121" y="882" on="1"/>
        <pt x="-13" y="882" on="1"/>
        <pt x="-13" y="796" on="1"/>
        <pt x="115" y="796" on="1"/>
        <pt x="114" y="783" on="0"/>
        <pt x="114" y="689" on="0"/>
        <pt x="115" y="672" on="1"/>
        <pt x="-13" y="672" on="1"/>
        <pt x="-13" y="586" on="1"/>
        <pt x="122" y="586" on="1"/>
        <pt x="155" y="276" on="0"/>
        <pt x="449" y="-23" on="0"/>
        <pt x="686" y="-23" on="1"/>
        <pt x="795" y="-23" on="0"/>
        <pt x="952" y="23" on="0"/>
        <pt x="1058" y="122" on="0"/>
        <pt x="1125" y="247" on="0"/>
      </contour>
    </TTGlyph>
    <TTGlyph name="F" xMin="148" yMin="0" xMax="1117" yMax="1464">
      <contour>
        <pt x="1117" y="1352" on="1"/>
        <pt x="294" y="1352" on="1"/>
        <pt x="294" y="830" on="1"/>
        <pt x="1009" y="830" on="1"/>
        <pt x="1009" y="716" on="1"/>
        <pt x="294" y="716" on="1"/>
        <pt x="294" y="0" on="1"/>
        <pt x="148" y="0" on="1"/>
        <pt x="148" y="1464" on="1"/>
        <pt x="1117" y="1464" on="1"/>
      </contour>
    </TTGlyph>
    <TTGlyph name="G" xMin="114" yMin="-24" xMax="1248" yMax="1491">
      <contour>
        <pt x="735" y="1491" on="1"/>
        <pt x="908" y="1491" on="0"/>
        <pt x="1174" y="1318" on="0"/>
        <pt x="1236" y="1150" on="1"/>
        <pt x="1114" y="1096" on="1"/>
        <pt x="1011" y="1374" on="0"/>
        <pt x="734" y="1374" on="1"/>
        <pt x="489" y="1374" on="0"/>
        <pt x="267" y="1050" on="0"/>
        <pt x="267" y="721" on="1"/>
        <pt x="267" y="566" on="0"/>
        <pt x="314" y="339" on="0"/>
        <pt x="418" y="175" on="0"/>
        <pt x="594" y="93" on="0"/>
        <pt x="719" y="93" on="1"/>
        <pt x="784" y="93" on="0"/>
        <pt x="915" y="136" on="0"/>
        <pt x="1031" y="219" on="0"/>
        <pt x="1104" y="358" on="0"/>
        <pt x="1104" y="444" on="1"/>
        <pt x="1104" y="664" on="1"/>
        <pt x="732" y="664" on="1"/>
        <pt x="732" y="789" on="1"/>
        <pt x="1248" y="789" on="1"/>
        <pt x="1248" y="581" on="1"/>
        <pt x="1238" y="0" on="1"/>
        <pt x="1145" y="0" on="1"/>
        <pt x="1113" y="191" on="1"/>
        <pt x="1056" y="96" on="0"/>
        <pt x="835" y="-24" on="0"/>
        <pt x="701" y="-24" on="1"/>
        <pt x="114" y="-24" on="0"/>
        <pt x="114" y="722" on="1"/>
        <pt x="114" y="924" on="0"/>
        <pt x="202" y="1222" on="0"/>
        <pt x="367" y="1404" on="0"/>
        <pt x="591" y="1491" on="0"/>
      </contour>
    </TTGlyph>
    <TTGlyph name="Gbreve" xMin="114" yMin="-24" xMax="1248" yMax="1879">
      <component glyphName="glyph00365" x="114" y="0" flags="0x0"/>
      <component glyphName="breve" x="306" y="441" flags="0x1004"/>
      <component glyphName="G" x="0" y="0" flags="0x1004"/>
    </TTGlyph>
    <TTGlyph name="Gcircumflex" xMin="114" yMin="-24" xMax="1248" yMax="1933">
      <component glyphName="glyph00365" x="114" y="0" flags="0x0"/>
      <component glyphName="circumflex" x="292" y="441" flags="0x1004"/>
      <component glyphName="G" x="0" y="0" flags="0x1004"/>
    </TTGlyph>
    <TTGlyph name="Gcommaaccent" xMin="114" yMin="-573" xMax="1248" yMax="1491">
      <component glyphName="glyph00365" x="114" y="0" flags="0x0"/>
      <component glyphName="glyph00363" x="498" y="0" flags="0x1004"/>
      <component glyphName="G" x="0" y="0" flags="0x1004"/>
    </TTGlyph>
    <TTGlyph name="Gdotaccent" xMin="114" yMin="-24" xMax="1248" yMax="1842">
      <component glyphName="glyph00365" x="114" y="0" flags="0x0"/>
      <component glyphName="uni0307" x="450" y="325" flags="0x1004"/>
      <component glyphName="G" x="0" y="0" flags="0x1004"/>
    </TTGlyph>
    <TTGlyph name="H" xMin="148" yMin="0" xMax="1309" yMax="1464">
      <contour>
        <pt x="1164" y="836" on="1"/>
        <pt x="1164" y="1464" on="1"/>
        <pt x="1309" y="1464" on="1"/>
        <pt x="1309" y="0" on="1"/>
        <pt x="1164" y="0" on="1"/>
        <pt x="1164" y="720" on="1"/>
        <pt x="294" y="720" on="1"/>
        <pt x="294" y="0" on="1"/>
        <pt x="148" y="0" on="1"/>
        <pt x="148" y="1464" on="1"/>
        <pt x="294" y="1464" on="1"/>
        <pt x="294" y="836" on="1"/>
      </contour>
    </TTGlyph>
    <TTGlyph name="Hbar" xMin="48" yMin="0" xMax="1400" yMax="1464">
      <contour>
        <pt x="48" y="1144" on="1"/>
        <pt x="48" y="1230" on="1"/>
        <pt x="148" y="1230" on="1"/>
        <pt x="148" y="1464" on="1"/>
        <pt x="294" y="1464" on="1"/>
        <pt x="294" y="1230" on="1"/>
        <pt x="1164" y="1230" on="1"/>
        <pt x="1164" y="1464" on="1"/>
        <pt x="1309" y="1464" on="1"/>
        <pt x="1309" y="1230" on="1"/>
        <pt x="1400" y="1230" on="1"/>
        <pt x="1400" y="1144" on="1"/>
        <pt x="1309" y="1144" on="1"/>
        <pt x="1309" y="0" on="1"/>
        <pt x="1164" y="0" on="1"/>
        <pt x="1164" y="720" on="1"/>
        <pt x="294" y="720" on="1"/>
        <pt x="294" y="0" on="1"/>
        <pt x="148" y="0" on="1"/>
        <pt x="148" y="1144" on="1"/>
      </contour>
      <contour>
        <pt x="1164" y="1144" on="1"/>
        <pt x="294" y="1144" on="1"/>
        <pt x="294" y="836" on="1"/>
        <pt x="1164" y="836" on="1"/>
      </contour>
    </TTGlyph>
    <TTGlyph name="I" xMin="163" yMin="0" xMax="309" yMax="1464">
      <contour>
        <pt x="309" y="0" on="1"/>
        <pt x="163" y="0" on="1"/>
        <pt x="163" y="1464" on="1"/>
        <pt x="309" y="1464" on="1"/>
      </contour>
    </TTGlyph>
    <TTGlyph name="IJ" xMin="163" yMin="-25" xMax="1282" yMax="1464">
      <component glyphName="glyph00365" x="163" y="0" flags="0x0"/>
      <component glyphName="J" x="464" y="0" flags="0x1004"/>
      <component glyphName="I" x="0" y="0" flags="0x1004"/>
    </TTGlyph>
    <TTGlyph name="Iacute" xMin="153" yMin="0" xMax="553" yMax="1933">
      <component glyphName="glyph00365" x="153" y="0" flags="0x0"/>
      <component glyphName="acute" x="104" y="441" flags="0x1004"/>
      <component glyphName="I" x="0" y="0" flags="0x1004"/>
    </TTGlyph>
    <TTGlyph name="Ibreve" xMin="-44" yMin="0" xMax="508" yMax="1879">
      <component glyphName="glyph00365" x="0" y="0" flags="0x0"/>
      <component glyphName="breve" x="-170" y="441" flags="0x1004"/>
      <component glyphName="I" x="0" y="0" flags="0x1004"/>
    </TTGlyph>
    <TTGlyph name="Icircumflex" xMin="-34" yMin="0" xMax="511" yMax="1933">
      <component glyphName="glyph00365" x="0" y="0" flags="0x0"/>
      <component glyphName="circumflex" x="-186" y="441" flags="0x1004"/>
      <component glyphName="I" x="0" y="0" flags="0x1004"/>
    </TTGlyph>
    <TTGlyph name="Idieresis" xMin="-42" yMin="0" xMax="503" yMax="1806">
      <component glyphName="glyph00365" x="0" y="0" flags="0x0"/>
      <component glyphName="dieresis" x="-177" y="441" flags="0x1004"/>
      <component glyphName="I" x="0" y="0" flags="0x1004"/>
    </TTGlyph>
    <TTGlyph name="Idotaccent" xMin="110" yMin="0" xMax="355" yMax="1862">
      <component glyphName="glyph00365" x="110" y="0" flags="0x0"/>
      <component glyphName="uni0307" x="-37" y="345" flags="0x1004"/>
      <component glyphName="I" x="0" y="0" flags="0x1004"/>
    </TTGlyph>
    <TTGlyph name="Igrave" xMin="-97" yMin="0" xMax="309" yMax="1933">
      <component glyphName="glyph00365" x="0" y="0" flags="0x0"/>
      <component glyphName="grave" x="-144" y="441" flags="0x1004"/>
      <component glyphName="I" x="0" y="0" flags="0x1004"/>
    </TTGlyph>
    <TTGlyph name="Imacron" xMin="5" yMin="0" xMax="459" yMax="1770">
      <component glyphName="glyph00365" x="5" y="0" flags="0x0"/>
      <component glyphName="macron" x="-130" y="441" flags="0x1004"/>
      <component glyphName="I" x="0" y="0" flags="0x1004"/>
    </TTGlyph>
    <TTGlyph name="Iogonek" xMin="66" yMin="-369" xMax="309" yMax="1464">
      <component glyphName="glyph00365" x="66" y="0" flags="0x0"/>
      <component glyphName="ogonek" x="-51" y="0" flags="0x1004"/>
      <component glyphName="I" x="0" y="0" flags="0x1004"/>
    </TTGlyph>
    <TTGlyph name="Itilde" xMin="-43" yMin="0" xMax="507" yMax="1836">
      <component glyphName="glyph00365" x="0" y="0" flags="0x0"/>
      <component glyphName="tilde" x="-168" y="441" flags="0x1004"/>
      <component glyphName="I" x="0" y="0" flags="0x1004"/>
    </TTGlyph>
    <TTGlyph name="J" xMin="21" yMin="-25" xMax="818" yMax="1464">
      <contour>
        <pt x="21" y="334" on="1"/>
        <pt x="151" y="369" on="1"/>
        <pt x="182" y="231" on="0"/>
        <pt x="302" y="93" on="0"/>
        <pt x="417" y="93" on="1"/>
        <pt x="475" y="93" on="0"/>
        <pt x="563" y="126" on="0"/>
        <pt x="618" y="192" on="0"/>
        <pt x="652" y="265" on="0"/>
        <pt x="668" y="378" on="0"/>
        <pt x="673" y="472" on="0"/>
        <pt x="673" y="541" on="1"/>
        <pt x="673" y="1464" on="1"/>
        <pt x="818" y="1464" on="1"/>
        <pt x="818" y="544" on="1"/>
        <pt x="818" y="250" on="0"/>
        <pt x="633" y="-25" on="0"/>
        <pt x="405" y="-25" on="1"/>
        <pt x="92" y="-25" on="0"/>
      </contour>
    </TTGlyph>
    <TTGlyph name="Jcircumflex" xMin="21" yMin="-25" xMax="818" yMax="1933">
      <component glyphName="glyph00365" x="21" y="0" flags="0x0"/>
      <component glyphName="circumflex" x="71" y="441" flags="0x1004"/>
      <component glyphName="J" x="0" y="0" flags="0x1004"/>
    </TTGlyph>
    <TTGlyph name="K" xMin="148" yMin="0" xMax="1244" yMax="1466">
      <contour>
        <pt x="1180" y="1466" on="1"/>
        <pt x="665" y="926" on="1"/>
        <pt x="1244" y="0" on="1"/>
        <pt x="1077" y="0" on="1"/>
        <pt x="562" y="828" on="1"/>
        <pt x="294" y="553" on="1"/>
        <pt x="294" y="0" on="1"/>
        <pt x="148" y="0" on="1"/>
        <pt x="148" y="1466" on="1"/>
        <pt x="294" y="1466" on="1"/>
        <pt x="294" y="726" on="1"/>
        <pt x="1003" y="1466" on="1"/>
      </contour>
    </TTGlyph>
    <TTGlyph name="Kcommaaccent" xMin="148" yMin="-573" xMax="1244" yMax="1466">
      <component glyphName="glyph00365" x="148" y="0" flags="0x0"/>
      <component glyphName="glyph00363" x="442" y="0" flags="0x1004"/>
      <component glyphName="K" x="0" y="0" flags="0x1004"/>
    </TTGlyph>
    <TTGlyph name="L" xMin="148" yMin="0" xMax="1041" yMax="1464">
      <contour>
        <pt x="1041" y="0" on="1"/>
        <pt x="148" y="0" on="1"/>
        <pt x="148" y="1464" on="1"/>
        <pt x="294" y="1464" on="1"/>
        <pt x="294" y="113" on="1"/>
        <pt x="1041" y="113" on="1"/>
      </contour>
    </TTGlyph>
    <TTGlyph name="Lacute" xMin="148" yMin="0" xMax="1041" yMax="1933">
      <component glyphName="glyph00365" x="148" y="0" flags="0x0"/>
      <component glyphName="acute" x="261" y="441" flags="0x1004"/>
      <component glyphName="L" x="0" y="0" flags="0x1004"/>
    </TTGlyph>
    <TTGlyph name="Lcaron" xMin="148" yMin="0" xMax="1041" yMax="1491">
      <component glyphName="glyph00365" x="148" y="0" flags="0x0"/>
      <component glyphName="comma" x="669" y="1272" flags="0x1004"/>
      <component glyphName="L" x="0" y="0" flags="0x1004"/>
    </TTGlyph>
    <TTGlyph name="Lcommaaccent" xMin="148" yMin="-573" xMax="1041" yMax="1464">
      <component glyphName="glyph00365" x="148" y="0" flags="0x0"/>
      <component glyphName="glyph00363" x="399" y="0" flags="0x1004"/>
      <component glyphName="L" x="0" y="0" flags="0x1004"/>
    </TTGlyph>
    <TTGlyph name="Ldot" xMin="148" yMin="0" xMax="1041" yMax="1464">
      <component glyphName="glyph00365" x="148" y="0" flags="0x0"/>
      <component glyphName="periodcentered" x="615" y="95" flags="0x1004"/>
      <component glyphName="L" x="0" y="0" flags="0x1004"/>
    </TTGlyph>
    <TTGlyph name="Lslash" xMin="-1" yMin="0" xMax="1033" yMax="1464">
      <contour>
        <pt x="-1" y="658" on="1"/>
        <pt x="-1" y="784" on="1"/>
        <pt x="140" y="847" on="1"/>
        <pt x="140" y="1464" on="1"/>
        <pt x="286" y="1464" on="1"/>
        <pt x="286" y="913" on="1"/>
        <pt x="532" y="1024" on="1"/>
        <pt x="532" y="898" on="1"/>
        <pt x="286" y="787" on="1"/>
        <pt x="286" y="113" on="1"/>
        <pt x="1033" y="113" on="1"/>
        <pt x="1033" y="0" on="1"/>
        <pt x="140" y="0" on="1"/>
        <pt x="140" y="721" on="1"/>
      </contour>
    </TTGlyph>
    <TTGlyph name="M" xMin="148" yMin="0" xMax="1497" yMax="1463">
      <contour>
        <pt x="148" y="0" on="1"/>
        <pt x="148" y="1463" on="1"/>
        <pt x="359" y="1463" on="1"/>
        <pt x="826" y="405" on="1"/>
        <pt x="1306" y="1462" on="1"/>
        <pt x="1497" y="1462" on="1"/>
        <pt x="1497" y="0" on="1"/>
        <pt x="1363" y="0" on="1"/>
        <pt x="1363" y="1275" on="1"/>
        <pt x="888" y="250" on="1"/>
        <pt x="753" y="250" on="1"/>
        <pt x="287" y="1281" on="1"/>
        <pt x="287" y="0" on="1"/>
      </contour>
    </TTGlyph>
    <TTGlyph name="N" xMin="148" yMin="0" xMax="1343" yMax="1464">
      <contour>
        <pt x="148" y="0" on="1"/>
        <pt x="148" y="1464" on="1"/>
        <pt x="311" y="1464" on="1"/>
        <pt x="1214" y="221" on="1"/>
        <pt x="1214" y="614" on="1"/>
        <pt x="1214" y="1464" on="1"/>
        <pt x="1343" y="1464" on="1"/>
        <pt x="1343" y="0" on="1"/>
        <pt x="1211" y="0" on="1"/>
        <pt x="281" y="1290" on="1"/>
        <pt x="281" y="1290" on="0"/>
        <pt x="281" y="875" on="1"/>
        <pt x="281" y="0" on="1"/>
      </contour>
    </TTGlyph>
    <TTGlyph name="Nacute" xMin="148" yMin="0" xMax="1343" yMax="1933">
      <component glyphName="glyph00365" x="148" y="0" flags="0x0"/>
      <component glyphName="acute" x="497" y="441" flags="0x1004"/>
      <component glyphName="N" x="0" y="0" flags="0x1004"/>
    </TTGlyph>
    <TTGlyph name="Ncaron" xMin="148" yMin="0" xMax="1343" yMax="1933">
      <component glyphName="glyph00365" x="148" y="0" flags="0x0"/>
      <component glyphName="caron" x="338" y="441" flags="0x1004"/>
      <component glyphName="N" x="0" y="0" flags="0x1004"/>
    </TTGlyph>
    <TTGlyph name="Ncommaaccent" xMin="148" yMin="-573" xMax="1343" yMax="1464">
      <component glyphName="glyph00365" x="148" y="0" flags="0x0"/>
      <component glyphName="glyph00363" x="576" y="0" flags="0x1004"/>
      <component glyphName="N" x="0" y="0" flags="0x1004"/>
    </TTGlyph>
    <TTGlyph name="Ntilde" xMin="148" yMin="0" xMax="1343" yMax="1836">
      <component glyphName="glyph00365" x="148" y="0" flags="0x0"/>
      <component glyphName="tilde" x="373" y="441" flags="0x1004"/>
      <component glyphName="N" x="0" y="0" flags="0x1004"/>
    </TTGlyph>
    <TTGlyph name="O" xMin="114" yMin="-25" xMax="1335" yMax="1491">
      <contour>
        <pt x="723" y="1491" on="1"/>
        <pt x="869" y="1491" on="0"/>
        <pt x="1090" y="1407" on="0"/>
        <pt x="1252" y="1231" on="0"/>
        <pt x="1335" y="940" on="0"/>
        <pt x="1335" y="741" on="1"/>
        <pt x="1335" y="341" on="0"/>
        <pt x="1025" y="-25" on="0"/>
        <pt x="722" y="-25" on="1"/>
        <pt x="575" y="-25" on="0"/>
        <pt x="355" y="59" on="0"/>
        <pt x="195" y="239" on="0"/>
        <pt x="114" y="535" on="0"/>
        <pt x="114" y="740" on="1"/>
        <pt x="114" y="940" on="0"/>
        <pt x="197" y="1231" on="0"/>
        <pt x="357" y="1408" on="0"/>
        <pt x="578" y="1491" on="0"/>
      </contour>
      <contour>
        <pt x="722" y="1374" on="1"/>
        <pt x="618" y="1374" on="0"/>
        <pt x="461" y="1316" on="0"/>
        <pt x="358" y="1211" on="0"/>
        <pt x="294" y="1051" on="0"/>
        <pt x="267" y="862" on="0"/>
        <pt x="267" y="741" on="1"/>
        <pt x="267" y="404" on="0"/>
        <pt x="475" y="93" on="0"/>
        <pt x="723" y="93" on="1"/>
        <pt x="972" y="93" on="0"/>
        <pt x="1180" y="401" on="0"/>
        <pt x="1180" y="740" on="1"/>
        <pt x="1180" y="861" on="0"/>
        <pt x="1153" y="1051" on="0"/>
        <pt x="1088" y="1211" on="0"/>
        <pt x="984" y="1316" on="0"/>
        <pt x="827" y="1374" on="0"/>
      </contour>
    </TTGlyph>
    <TTGlyph name="OE" xMin="112" yMin="-25" xMax="2121" yMax="1491">
      <contour>
        <pt x="616" y="1374" on="0"/>
        <pt x="824" y="1374" on="0"/>
        <pt x="980" y="1316" on="0"/>
        <pt x="1079" y="1212" on="0"/>
        <pt x="1140" y="1050" on="0"/>
        <pt x="1164" y="863" on="0"/>
        <pt x="1164" y="740" on="1"/>
        <pt x="1164" y="569" on="0"/>
        <pt x="1121" y="334" on="0"/>
        <pt x="1019" y="169" on="0"/>
        <pt x="848" y="93" on="0"/>
        <pt x="721" y="93" on="1"/>
        <pt x="473" y="93" on="0"/>
        <pt x="265" y="404" on="0"/>
        <pt x="265" y="741" on="1"/>
        <pt x="265" y="862" on="0"/>
        <pt x="292" y="1051" on="0"/>
        <pt x="356" y="1211" on="0"/>
        <pt x="459" y="1316" on="0"/>
      </contour>
      <contour>
        <pt x="2121" y="113" on="1"/>
        <pt x="1310" y="113" on="1"/>
        <pt x="1310" y="723" on="1"/>
        <pt x="1996" y="723" on="1"/>
        <pt x="1996" y="838" on="1"/>
        <pt x="1310" y="838" on="1"/>
        <pt x="1310" y="1352" on="1"/>
        <pt x="2110" y="1352" on="1"/>
        <pt x="2110" y="1464" on="1"/>
        <pt x="1163" y="1464" on="1"/>
        <pt x="1164" y="1352" on="0"/>
        <pt x="1163" y="1288" on="1"/>
        <pt x="1034" y="1491" on="0"/>
        <pt x="721" y="1491" on="1"/>
        <pt x="576" y="1491" on="0"/>
        <pt x="355" y="1408" on="0"/>
        <pt x="195" y="1231" on="0"/>
        <pt x="112" y="940" on="0"/>
        <pt x="112" y="740" on="1"/>
        <pt x="112" y="535" on="0"/>
        <pt x="193" y="239" on="0"/>
        <pt x="353" y="59" on="0"/>
        <pt x="573" y="-25" on="0"/>
        <pt x="720" y="-25" on="1"/>
        <pt x="879" y="-25" on="0"/>
        <pt x="1097" y="74" on="0"/>
        <pt x="1164" y="180" on="1"/>
        <pt x="1164" y="0" on="1"/>
        <pt x="2121" y="0" on="1"/>
      </contour>
      <contour>
        <pt x="1086" y="1464" on="1"/>
      </contour>
    </TTGlyph>
    <TTGlyph name="Oacute" xMin="114" yMin="-25" xMax="1335" yMax="1933">
      <component glyphName="glyph00365" x="114" y="0" flags="0x0"/>
      <component glyphName="acute" x="566" y="441" flags="0x1004"/>
      <component glyphName="O" x="0" y="0" flags="0x1004"/>
    </TTGlyph>
    <TTGlyph name="Obreve" xMin="114" yMin="-25" xMax="1335" yMax="1879">
      <component glyphName="glyph00365" x="114" y="0" flags="0x0"/>
      <component glyphName="breve" x="323" y="441" flags="0x1004"/>
      <component glyphName="O" x="0" y="0" flags="0x1004"/>
    </TTGlyph>
    <TTGlyph name="Ocircumflex" xMin="114" yMin="-25" xMax="1335" yMax="1933">
      <component glyphName="glyph00365" x="114" y="0" flags="0x0"/>
      <component glyphName="circumflex" x="306" y="441" flags="0x1004"/>
      <component glyphName="O" x="0" y="0" flags="0x1004"/>
    </TTGlyph>
    <TTGlyph name="Odieresis" xMin="114" yMin="-25" xMax="1335" yMax="1806">
      <component glyphName="glyph00365" x="114" y="0" flags="0x0"/>
      <component glyphName="dieresis" x="295" y="441" flags="0x1004"/>
      <component glyphName="O" x="0" y="0" flags="0x1004"/>
    </TTGlyph>
    <TTGlyph name="Ograve" xMin="114" yMin="-25" xMax="1335" yMax="1933">
      <component glyphName="glyph00365" x="114" y="0" flags="0x0"/>
      <component glyphName="grave" x="401" y="441" flags="0x1004"/>
      <component glyphName="O" x="0" y="0" flags="0x1004"/>
    </TTGlyph>
    <TTGlyph name="Ohungarumlaut" xMin="114" yMin="-25" xMax="1335" yMax="1933">
      <component glyphName="glyph00365" x="114" y="0" flags="0x0"/>
      <component glyphName="hungarumlaut" x="467" y="441" flags="0x1004"/>
      <component glyphName="O" x="0" y="0" flags="0x1004"/>
    </TTGlyph>
    <TTGlyph name="Omacron" xMin="114" yMin="-25" xMax="1335" yMax="1770">
      <component glyphName="glyph00365" x="114" y="0" flags="0x0"/>
      <component glyphName="macron" x="382" y="441" flags="0x1004"/>
      <component glyphName="O" x="0" y="0" flags="0x1004"/>
    </TTGlyph>
    <TTGlyph name="Oslash" xMin="114" yMin="-204" xMax="1335" yMax="1658">
      <contour>
        <pt x="722" y="1374" on="1"/>
        <pt x="863" y="1374" on="0"/>
        <pt x="961" y="1321" on="1"/>
        <pt x="411" y="200" on="1"/>
        <pt x="267" y="344" on="0"/>
        <pt x="267" y="741" on="1"/>
        <pt x="267" y="862" on="0"/>
        <pt x="294" y="1051" on="0"/>
        <pt x="358" y="1211" on="0"/>
        <pt x="461" y="1316" on="0"/>
        <pt x="618" y="1374" on="0"/>
      </contour>
      <contour>
        <pt x="723" y="93" on="1"/>
        <pt x="583" y="93" on="0"/>
        <pt x="489" y="142" on="1"/>
        <pt x="1038" y="1262" on="1"/>
        <pt x="1180" y="1116" on="0"/>
        <pt x="1180" y="740" on="1"/>
        <pt x="1180" y="401" on="0"/>
        <pt x="972" y="93" on="0"/>
      </contour>
      <contour>
        <pt x="1335" y="741" on="1"/>
        <pt x="1335" y="1211" on="0"/>
        <pt x="1098" y="1386" on="1"/>
        <pt x="1210" y="1614" on="1"/>
        <pt x="1126" y="1658" on="1"/>
        <pt x="1016" y="1434" on="1"/>
        <pt x="895" y="1491" on="0"/>
        <pt x="723" y="1491" on="1"/>
        <pt x="578" y="1491" on="0"/>
        <pt x="357" y="1408" on="0"/>
        <pt x="197" y="1231" on="0"/>
        <pt x="114" y="940" on="0"/>
        <pt x="114" y="740" on="1"/>
        <pt x="114" y="251" on="0"/>
        <pt x="352" y="78" on="1"/>
        <pt x="235" y="-160" on="1"/>
        <pt x="320" y="-204" on="1"/>
        <pt x="434" y="30" on="1"/>
        <pt x="553" y="-25" on="0"/>
        <pt x="722" y="-25" on="1"/>
        <pt x="1025" y="-25" on="0"/>
        <pt x="1335" y="341" on="0"/>
      </contour>
    </TTGlyph>
    <TTGlyph name="Otilde" xMin="114" yMin="-25" xMax="1335" yMax="1836">
      <component glyphName="glyph00365" x="114" y="0" flags="0x0"/>
      <component glyphName="tilde" x="313" y="441" flags="0x1004"/>
      <component glyphName="O" x="0" y="0" flags="0x1004"/>
    </TTGlyph>
    <TTGlyph name="P" xMin="148" yMin="0" xMax="1231" yMax="1464">
      <contour>
        <pt x="148" y="0" on="1"/>
        <pt x="148" y="1464" on="1"/>
        <pt x="579" y="1464" on="1"/>
        <pt x="937" y="1464" on="0"/>
        <pt x="1231" y="1285" on="0"/>
        <pt x="1231" y="1063" on="1"/>
        <pt x="1231" y="961" on="0"/>
        <pt x="1180" y="816" on="0"/>
        <pt x="1078" y="716" on="0"/>
        <pt x="903" y="659" on="0"/>
        <pt x="679" y="635" on="0"/>
        <pt x="520" y="635" on="1"/>
        <pt x="298" y="635" on="1"/>
        <pt x="298" y="0" on="1"/>
      </contour>
      <contour>
        <pt x="304" y="1350" on="1"/>
        <pt x="304" y="748" on="1"/>
        <pt x="576" y="748" on="1"/>
        <pt x="690" y="748" on="0"/>
        <pt x="848" y="765" on="0"/>
        <pt x="974" y="805" on="0"/>
        <pt x="1046" y="875" on="0"/>
        <pt x="1083" y="980" on="0"/>
        <pt x="1083" y="1130" on="0"/>
        <pt x="1045" y="1233" on="0"/>
        <pt x="972" y="1300" on="0"/>
        <pt x="840" y="1336" on="0"/>
        <pt x="678" y="1350" on="0"/>
        <pt x="556" y="1350" on="1"/>
      </contour>
    </TTGlyph>
    <TTGlyph name="Q" xMin="114" yMin="-345" xMax="1374" yMax="1491">
      <contour>
        <pt x="1266" y="-345" on="1"/>
        <pt x="1016" y="30" on="1"/>
        <pt x="975" y="11" on="0"/>
        <pt x="881" y="-13" on="0"/>
        <pt x="779" y="-25" on="0"/>
        <pt x="722" y="-25" on="1"/>
        <pt x="575" y="-25" on="0"/>
        <pt x="355" y="59" on="0"/>
        <pt x="195" y="239" on="0"/>
        <pt x="114" y="535" on="0"/>
        <pt x="114" y="740" on="1"/>
        <pt x="114" y="940" on="0"/>
        <pt x="197" y="1231" on="0"/>
        <pt x="357" y="1408" on="0"/>
        <pt x="578" y="1491" on="0"/>
        <pt x="723" y="1491" on="1"/>
        <pt x="869" y="1491" on="0"/>
        <pt x="1090" y="1407" on="0"/>
        <pt x="1252" y="1231" on="0"/>
        <pt x="1335" y="940" on="0"/>
        <pt x="1335" y="741" on="1"/>
        <pt x="1335" y="274" on="0"/>
        <pt x="1116" y="94" on="1"/>
        <pt x="1374" y="-263" on="1"/>
      </contour>
      <contour>
        <pt x="722" y="1374" on="1"/>
        <pt x="618" y="1374" on="0"/>
        <pt x="461" y="1316" on="0"/>
        <pt x="358" y="1211" on="0"/>
        <pt x="294" y="1051" on="0"/>
        <pt x="267" y="862" on="0"/>
        <pt x="267" y="741" on="1"/>
        <pt x="267" y="404" on="0"/>
        <pt x="475" y="93" on="0"/>
        <pt x="723" y="93" on="1"/>
        <pt x="972" y="93" on="0"/>
        <pt x="1180" y="401" on="0"/>
        <pt x="1180" y="740" on="1"/>
        <pt x="1180" y="861" on="0"/>
        <pt x="1153" y="1051" on="0"/>
        <pt x="1088" y="1211" on="0"/>
        <pt x="984" y="1316" on="0"/>
        <pt x="827" y="1374" on="0"/>
      </contour>
    </TTGlyph>
    <TTGlyph name="R" xMin="148" yMin="0" xMax="1238" yMax="1464">
      <contour>
        <pt x="1214" y="1075" on="1"/>
        <pt x="1214" y="925" on="0"/>
        <pt x="1059" y="738" on="0"/>
        <pt x="898" y="695" on="1"/>
        <pt x="1238" y="0" on="1"/>
        <pt x="1082" y="0" on="1"/>
        <pt x="750" y="673" on="1"/>
        <pt x="293" y="673" on="1"/>
        <pt x="293" y="0" on="1"/>
        <pt x="148" y="0" on="1"/>
        <pt x="148" y="1464" on="1"/>
        <pt x="677" y="1464" on="1"/>
        <pt x="962" y="1464" on="0"/>
        <pt x="1214" y="1275" on="0"/>
      </contour>
      <contour>
        <pt x="293" y="1356" on="1"/>
        <pt x="293" y="786" on="1"/>
        <pt x="644" y="786" on="1"/>
        <pt x="716" y="786" on="0"/>
        <pt x="825" y="796" on="0"/>
        <pt x="942" y="832" on="0"/>
        <pt x="1017" y="892" on="0"/>
        <pt x="1065" y="999" on="0"/>
        <pt x="1065" y="1073" on="1"/>
        <pt x="1065" y="1149" on="0"/>
        <pt x="1019" y="1256" on="0"/>
        <pt x="950" y="1315" on="0"/>
        <pt x="837" y="1348" on="0"/>
        <pt x="739" y="1356" on="0"/>
        <pt x="668" y="1356" on="1"/>
      </contour>
    </TTGlyph>
    <TTGlyph name="Racute" xMin="148" yMin="0" xMax="1238" yMax="1933">
      <component glyphName="glyph00365" x="148" y="0" flags="0x0"/>
      <component glyphName="acute" x="399" y="441" flags="0x1004"/>
      <component glyphName="R" x="0" y="0" flags="0x1004"/>
    </TTGlyph>
    <TTGlyph name="Rcaron" xMin="148" yMin="0" xMax="1238" yMax="1933">
      <component glyphName="glyph00365" x="148" y="0" flags="0x0"/>
      <component glyphName="caron" x="222" y="441" flags="0x1004"/>
      <component glyphName="R" x="0" y="0" flags="0x1004"/>
    </TTGlyph>
    <TTGlyph name="Rcommaaccent" xMin="148" yMin="-573" xMax="1238" yMax="1464">
      <component glyphName="glyph00365" x="148" y="0" flags="0x0"/>
      <component glyphName="glyph00363" x="477" y="0" flags="0x1004"/>
      <component glyphName="R" x="0" y="0" flags="0x1004"/>
    </TTGlyph>
    <TTGlyph name="S" xMin="45" yMin="-25" xMax="1158" yMax="1482">
      <contour>
        <pt x="618" y="1482" on="1"/>
        <pt x="795" y="1482" on="0"/>
        <pt x="1040" y="1364" on="0"/>
        <pt x="1127" y="1231" on="1"/>
        <pt x="1019" y="1151" on="1"/>
        <pt x="960" y="1255" on="0"/>
        <pt x="760" y="1364" on="0"/>
        <pt x="639" y="1364" on="1"/>
        <pt x="482" y="1364" on="0"/>
        <pt x="284" y="1248" on="0"/>
        <pt x="284" y="1128" on="1"/>
        <pt x="284" y="1081" on="0"/>
        <pt x="326" y="1003" on="0"/>
        <pt x="385" y="953" on="0"/>
        <pt x="484" y="905" on="0"/>
        <pt x="563" y="879" on="0"/>
        <pt x="681" y="841" on="0"/>
        <pt x="713" y="829" on="1"/>
        <pt x="780" y="803" on="0"/>
        <pt x="866" y="768" on="0"/>
        <pt x="970" y="716" on="0"/>
        <pt x="1034" y="671" on="0"/>
        <pt x="1100" y="607" on="0"/>
        <pt x="1135" y="537" on="0"/>
        <pt x="1158" y="446" on="0"/>
        <pt x="1158" y="393" on="1"/>
        <pt x="1158" y="196" on="0"/>
        <pt x="863" y="-25" on="0"/>
        <pt x="615" y="-25" on="1"/>
        <pt x="544" y="-25" on="0"/>
        <pt x="405" y="-1" on="0"/>
        <pt x="262" y="57" on="0"/>
        <pt x="148" y="145" on="0"/>
        <pt x="61" y="285" on="0"/>
        <pt x="45" y="373" on="1"/>
        <pt x="168" y="426" on="1"/>
        <pt x="213" y="261" on="0"/>
        <pt x="438" y="101" on="0"/>
        <pt x="624" y="101" on="1"/>
        <pt x="681" y="101" on="0"/>
        <pt x="785" y="118" on="0"/>
        <pt x="886" y="160" on="0"/>
        <pt x="960" y="223" on="0"/>
        <pt x="1005" y="324" on="0"/>
        <pt x="1005" y="388" on="1"/>
        <pt x="1005" y="429" on="0"/>
        <pt x="983" y="497" on="0"/>
        <pt x="959" y="546" on="0"/>
        <pt x="887" y="598" on="0"/>
        <pt x="845" y="627" on="0"/>
        <pt x="725" y="675" on="0"/>
        <pt x="666" y="696" on="0"/>
        <pt x="585" y="724" on="1"/>
        <pt x="572" y="729" on="0"/>
        <pt x="565" y="731" on="1"/>
        <pt x="387" y="793" on="0"/>
        <pt x="317" y="832" on="1"/>
        <pt x="156" y="921" on="0"/>
        <pt x="134" y="1066" on="1"/>
        <pt x="131" y="1090" on="0"/>
        <pt x="131" y="1116" on="1"/>
        <pt x="131" y="1207" on="0"/>
        <pt x="213" y="1351" on="0"/>
        <pt x="352" y="1438" on="0"/>
        <pt x="523" y="1482" on="0"/>
      </contour>
    </TTGlyph>
    <TTGlyph name="Sacute" xMin="45" yMin="-25" xMax="1158" yMax="1933">
      <component glyphName="glyph00365" x="45" y="0" flags="0x0"/>
      <component glyphName="acute" x="461" y="441" flags="0x1004"/>
      <component glyphName="S" x="0" y="0" flags="0x1004"/>
    </TTGlyph>
    <TTGlyph name="Scaron" xMin="45" yMin="-25" xMax="1158" yMax="1933">
      <component glyphName="glyph00365" x="45" y="0" flags="0x0"/>
      <component glyphName="caron" x="182" y="441" flags="0x1004"/>
      <component glyphName="S" x="0" y="0" flags="0x1004"/>
    </TTGlyph>
    <TTGlyph name="Scedilla" xMin="45" yMin="-390" xMax="1158" yMax="1482">
      <component glyphName="glyph00365" x="45" y="0" flags="0x0"/>
      <component glyphName="cedilla" x="368" y="0" flags="0x1004"/>
      <component glyphName="S" x="0" y="0" flags="0x1004"/>
    </TTGlyph>
    <TTGlyph name="Scircumflex" xMin="45" yMin="-25" xMax="1158" yMax="1933">
      <component glyphName="glyph00365" x="45" y="0" flags="0x0"/>
      <component glyphName="circumflex" x="190" y="441" flags="0x1004"/>
      <component glyphName="S" x="0" y="0" flags="0x1004"/>
    </TTGlyph>
    <TTGlyph name="Scommaaccent" xMin="45" yMin="-573" xMax="1158" yMax="1482">
      <component glyphName="glyph00365" x="45" y="0" flags="0x0"/>
      <component glyphName="glyph00363" x="437" y="0" flags="0x1004"/>
      <component glyphName="S" x="0" y="0" flags="0x1004"/>
    </TTGlyph>
    <TTGlyph name="T" xMin="9" yMin="0" xMax="1110" yMax="1465">
      <contour>
        <pt x="9" y="1352" on="1"/>
        <pt x="9" y="1465" on="1"/>
        <pt x="1110" y="1465" on="1"/>
        <pt x="1110" y="1352" on="1"/>
        <pt x="636" y="1352" on="1"/>
        <pt x="636" y="0" on="1"/>
        <pt x="483" y="0" on="1"/>
        <pt x="483" y="1352" on="1"/>
      </contour>
    </TTGlyph>
    <TTGlyph name="Tcaron" xMin="9" yMin="0" xMax="1110" yMax="1933">
      <component glyphName="glyph00365" x="9" y="0" flags="0x0"/>
      <component glyphName="caron" x="134" y="441" flags="0x1004"/>
      <component glyphName="T" x="0" y="0" flags="0x1004"/>
    </TTGlyph>
    <TTGlyph name="Thorn" xMin="140" yMin="0" xMax="1203" yMax="1464">
      <contour>
        <pt x="140" y="0" on="1"/>
        <pt x="140" y="1464" on="1"/>
        <pt x="296" y="1464" on="1"/>
        <pt x="296" y="1194" on="1"/>
        <pt x="561" y="1194" on="1"/>
        <pt x="795" y="1194" on="0"/>
        <pt x="1078" y="1102" on="0"/>
        <pt x="1203" y="920" on="0"/>
        <pt x="1203" y="773" on="1"/>
        <pt x="1203" y="528" on="0"/>
        <pt x="886" y="335" on="0"/>
        <pt x="502" y="335" on="1"/>
        <pt x="290" y="335" on="1"/>
        <pt x="290" y="0" on="1"/>
      </contour>
      <contour>
        <pt x="296" y="1080" on="1"/>
        <pt x="296" y="449" on="1"/>
        <pt x="558" y="449" on="1"/>
        <pt x="829" y="450" on="0"/>
        <pt x="1055" y="588" on="0"/>
        <pt x="1055" y="765" on="1"/>
        <pt x="1055" y="943" on="0"/>
        <pt x="824" y="1080" on="0"/>
        <pt x="538" y="1080" on="1"/>
      </contour>
    </TTGlyph>
    <TTGlyph name="U" xMin="123" yMin="-25" xMax="1223" yMax="1464">
      <contour>
        <pt x="123" y="574" on="1"/>
        <pt x="123" y="1464" on="1"/>
        <pt x="283" y="1464" on="1"/>
        <pt x="283" y="598" on="1"/>
        <pt x="283" y="504" on="0"/>
        <pt x="301" y="362" on="0"/>
        <pt x="353" y="231" on="0"/>
        <pt x="439" y="147" on="0"/>
        <pt x="580" y="98" on="0"/>
        <pt x="772" y="98" on="0"/>
        <pt x="912" y="147" on="0"/>
        <pt x="997" y="231" on="0"/>
        <pt x="1048" y="362" on="0"/>
        <pt x="1066" y="504" on="0"/>
        <pt x="1066" y="598" on="1"/>
        <pt x="1066" y="1464" on="1"/>
        <pt x="1223" y="1464" on="1"/>
        <pt x="1223" y="581" on="1"/>
        <pt x="1223" y="268" on="0"/>
        <pt x="953" y="-25" on="0"/>
        <pt x="670" y="-25" on="1"/>
        <pt x="394" y="-25" on="0"/>
        <pt x="123" y="262" on="0"/>
      </contour>
    </TTGlyph>
    <TTGlyph name="Uacute" xMin="123" yMin="-25" xMax="1223" yMax="1933">
      <component glyphName="glyph00365" x="123" y="0" flags="0x0"/>
      <component glyphName="acute" x="478" y="441" flags="0x1004"/>
      <component glyphName="U" x="0" y="0" flags="0x1004"/>
    </TTGlyph>
    <TTGlyph name="Ubreve" xMin="123" yMin="-25" xMax="1223" yMax="1879">
      <component glyphName="glyph00365" x="123" y="0" flags="0x0"/>
      <component glyphName="breve" x="271" y="441" flags="0x1004"/>
      <component glyphName="U" x="0" y="0" flags="0x1004"/>
    </TTGlyph>
    <TTGlyph name="Ucircumflex" xMin="123" yMin="-25" xMax="1223" yMax="1933">
      <component glyphName="glyph00365" x="123" y="0" flags="0x0"/>
      <component glyphName="circumflex" x="254" y="441" flags="0x1004"/>
      <component glyphName="U" x="0" y="0" flags="0x1004"/>
    </TTGlyph>
    <TTGlyph name="Udieresis" xMin="123" yMin="-25" xMax="1223" yMax="1806">
      <component glyphName="glyph00365" x="123" y="0" flags="0x0"/>
      <component glyphName="dieresis" x="282" y="441" flags="0x1004"/>
      <component glyphName="U" x="0" y="0" flags="0x1004"/>
    </TTGlyph>
    <TTGlyph name="Ugrave" xMin="123" yMin="-25" xMax="1223" yMax="1933">
      <component glyphName="glyph00365" x="123" y="0" flags="0x0"/>
      <component glyphName="grave" x="386" y="441" flags="0x1004"/>
      <component glyphName="U" x="0" y="0" flags="0x1004"/>
    </TTGlyph>
    <TTGlyph name="Uhungarumlaut" xMin="123" yMin="-25" xMax="1223" yMax="1933">
      <component glyphName="glyph00365" x="123" y="0" flags="0x0"/>
      <component glyphName="hungarumlaut" x="374" y="441" flags="0x1004"/>
      <component glyphName="U" x="0" y="0" flags="0x1004"/>
    </TTGlyph>
    <TTGlyph name="Umacron" xMin="123" yMin="-25" xMax="1223" yMax="1770">
      <component glyphName="glyph00365" x="123" y="0" flags="0x0"/>
      <component glyphName="macron" x="311" y="441" flags="0x1004"/>
      <component glyphName="U" x="0" y="0" flags="0x1004"/>
    </TTGlyph>
    <TTGlyph name="Uogonek" xMin="123" yMin="-369" xMax="1223" yMax="1464">
      <component glyphName="glyph00365" x="123" y="0" flags="0x0"/>
      <component glyphName="ogonek" x="414" y="0" flags="0x1004"/>
      <component glyphName="U" x="0" y="0" flags="0x1004"/>
    </TTGlyph>
    <TTGlyph name="Uring" xMin="123" yMin="-25" xMax="1223" yMax="2033">
      <component glyphName="glyph00365" x="123" y="0" flags="0x0"/>
      <component glyphName="ring" x="333" y="441" flags="0x1004"/>
      <component glyphName="U" x="0" y="0" flags="0x1004"/>
    </TTGlyph>
    <TTGlyph name="V" xMin="12" yMin="0" xMax="1152" yMax="1464">
      <contour>
        <pt x="513" y="0" on="1"/>
        <pt x="12" y="1464" on="1"/>
        <pt x="167" y="1464" on="1"/>
        <pt x="460" y="596" on="1"/>
        <pt x="471" y="564" on="0"/>
        <pt x="562" y="289" on="0"/>
        <pt x="586" y="216" on="1"/>
        <pt x="610" y="288" on="0"/>
        <pt x="700" y="550" on="0"/>
        <pt x="716" y="596" on="1"/>
        <pt x="1004" y="1464" on="1"/>
        <pt x="1152" y="1464" on="1"/>
        <pt x="651" y="0" on="1"/>
      </contour>
    </TTGlyph>
    <TTGlyph name="W" xMin="12" yMin="0" xMax="1785" yMax="1462">
      <contour>
        <pt x="427" y="0" on="1"/>
        <pt x="12" y="1462" on="1"/>
        <pt x="164" y="1462" on="1"/>
        <pt x="272" y="1072" on="0"/>
        <pt x="414" y="537" on="0"/>
        <pt x="478" y="278" on="0"/>
        <pt x="490" y="234" on="1"/>
        <pt x="509" y="297" on="0"/>
        <pt x="578" y="522" on="0"/>
        <pt x="750" y="1085" on="0"/>
        <pt x="865" y="1462" on="1"/>
        <pt x="969" y="1462" on="1"/>
        <pt x="1020" y="1273" on="0"/>
        <pt x="1258" y="433" on="0"/>
        <pt x="1316" y="217" on="1"/>
        <pt x="1364" y="394" on="0"/>
        <pt x="1584" y="1241" on="0"/>
        <pt x="1646" y="1461" on="1"/>
        <pt x="1785" y="1462" on="1"/>
        <pt x="1370" y="0" on="1"/>
        <pt x="1244" y="0" on="1"/>
        <pt x="921" y="1134" on="0"/>
        <pt x="907" y="1187" on="1"/>
        <pt x="895" y="1146" on="0"/>
        <pt x="844" y="984" on="0"/>
        <pt x="668" y="416" on="0"/>
        <pt x="540" y="0" on="1"/>
      </contour>
    </TTGlyph>
    <TTGlyph name="X" xMin="6" yMin="0" xMax="1239" yMax="1464">
      <contour>
        <pt x="626" y="889" on="1"/>
        <pt x="1029" y="1464" on="1"/>
        <pt x="1195" y="1464" on="1"/>
        <pt x="706" y="767" on="1"/>
        <pt x="1239" y="0" on="1"/>
        <pt x="1066" y="0" on="1"/>
        <pt x="620" y="641" on="1"/>
        <pt x="173" y="0" on="1"/>
        <pt x="6" y="0" on="1"/>
        <pt x="540" y="763" on="1"/>
        <pt x="51" y="1464" on="1"/>
        <pt x="226" y="1464" on="1"/>
      </contour>
    </TTGlyph>
    <TTGlyph name="Y" xMin="-4" yMin="0" xMax="1166" yMax="1464">
      <contour>
        <pt x="508" y="549" on="1"/>
        <pt x="-4" y="1464" on="1"/>
        <pt x="154" y="1464" on="1"/>
        <pt x="582" y="682" on="1"/>
        <pt x="1009" y="1464" on="1"/>
        <pt x="1166" y="1464" on="1"/>
        <pt x="654" y="548" on="1"/>
        <pt x="654" y="0" on="1"/>
        <pt x="508" y="0" on="1"/>
      </contour>
    </TTGlyph>
    <TTGlyph name="Yacute" xMin="-4" yMin="0" xMax="1166" yMax="1933">
      <component glyphName="glyph00365" x="0" y="0" flags="0x0"/>
      <component glyphName="acute" x="423" y="441" flags="0x1004"/>
      <component glyphName="Y" x="0" y="0" flags="0x1004"/>
    </TTGlyph>
    <TTGlyph name="Ydieresis" xMin="-4" yMin="0" xMax="1166" yMax="1806">
      <component glyphName="glyph00365" x="0" y="0" flags="0x0"/>
      <component glyphName="dieresis" x="171" y="441" flags="0x1004"/>
      <component glyphName="Y" x="0" y="0" flags="0x1004"/>
    </TTGlyph>
    <TTGlyph name="Z" xMin="47" yMin="0" xMax="1141" yMax="1464">
      <contour>
        <pt x="130" y="1356" on="1"/>
        <pt x="130" y="1464" on="1"/>
        <pt x="1136" y="1464" on="1"/>
        <pt x="1136" y="1383" on="1"/>
        <pt x="228" y="107" on="1"/>
        <pt x="1141" y="107" on="1"/>
        <pt x="1134" y="0" on="1"/>
        <pt x="47" y="0" on="1"/>
        <pt x="47" y="98" on="1"/>
        <pt x="945" y="1356" on="1"/>
      </contour>
    </TTGlyph>
    <TTGlyph name="Zacute" xMin="47" yMin="0" xMax="1141" yMax="1933">
      <component glyphName="glyph00365" x="47" y="0" flags="0x0"/>
      <component glyphName="acute" x="455" y="441" flags="0x1004"/>
      <component glyphName="Z" x="0" y="0" flags="0x1004"/>
    </TTGlyph>
    <TTGlyph name="Zcaron" xMin="47" yMin="0" xMax="1141" yMax="1933">
      <component glyphName="glyph00365" x="47" y="0" flags="0x0"/>
      <component glyphName="caron" x="222" y="441" flags="0x1004"/>
      <component glyphName="Z" x="0" y="0" flags="0x1004"/>
    </TTGlyph>
    <TTGlyph name="Zdotaccent" xMin="47" yMin="0" xMax="1141" yMax="1842">
      <component glyphName="glyph00365" x="47" y="0" flags="0x0"/>
      <component glyphName="uni0307" x="381" y="325" flags="0x1004"/>
      <component glyphName="Z" x="0" y="0" flags="0x1004"/>
    </TTGlyph>
    <TTGlyph name="a" xMin="90" yMin="-24" xMax="888" yMax="1044">
      <contour>
        <pt x="746" y="219" on="1"/>
        <pt x="573" y="73" on="0"/>
        <pt x="414" y="73" on="1"/>
        <pt x="224" y="73" on="0"/>
        <pt x="224" y="265" on="1"/>
        <pt x="224" y="302" on="0"/>
        <pt x="246" y="358" on="0"/>
        <pt x="299" y="401" on="0"/>
        <pt x="361" y="432" on="0"/>
        <pt x="469" y="459" on="0"/>
        <pt x="569" y="478" on="0"/>
        <pt x="648" y="490" on="1"/>
        <pt x="746" y="505" on="1"/>
      </contour>
      <contour>
        <pt x="771" y="0" on="1"/>
        <pt x="888" y="0" on="1"/>
        <pt x="888" y="673" on="1"/>
        <pt x="888" y="1044" on="0"/>
        <pt x="512" y="1044" on="1"/>
        <pt x="255" y="1044" on="0"/>
        <pt x="132" y="888" on="1"/>
        <pt x="217" y="808" on="0"/>
        <pt x="217" y="807" on="1"/>
        <pt x="267" y="869" on="0"/>
        <pt x="418" y="935" on="0"/>
        <pt x="504" y="935" on="1"/>
        <pt x="636" y="935" on="0"/>
        <pt x="746" y="810" on="0"/>
        <pt x="746" y="643" on="1"/>
        <pt x="746" y="601" on="1"/>
        <pt x="647" y="586" on="1"/>
        <pt x="560" y="573" on="0"/>
        <pt x="474" y="558" on="0"/>
        <pt x="332" y="527" on="0"/>
        <pt x="261" y="498" on="0"/>
        <pt x="167" y="447" on="0"/>
        <pt x="123" y="386" on="0"/>
        <pt x="90" y="299" on="0"/>
        <pt x="90" y="245" on="1"/>
        <pt x="90" y="117" on="0"/>
        <pt x="261" y="-24" on="0"/>
        <pt x="389" y="-24" on="1"/>
        <pt x="583" y="-24" on="0"/>
        <pt x="754" y="116" on="1"/>
      </contour>
    </TTGlyph>
    <TTGlyph name="aacute" xMin="90" yMin="-24" xMax="888" yMax="1492">
      <component glyphName="glyph00365" x="90" y="0" flags="0x0"/>
      <component glyphName="acute" x="328" y="0" flags="0x1004"/>
      <component glyphName="a" x="0" y="0" flags="0x1004"/>
    </TTGlyph>
    <TTGlyph name="abreve" xMin="90" yMin="-24" xMax="888" yMax="1438">
      <component glyphName="glyph00365" x="90" y="0" flags="0x0"/>
      <component glyphName="breve" x="111" y="0" flags="0x1004"/>
      <component glyphName="a" x="0" y="0" flags="0x1004"/>
    </TTGlyph>
    <TTGlyph name="acircumflex" xMin="90" yMin="-24" xMax="888" yMax="1492">
      <component glyphName="glyph00365" x="90" y="0" flags="0x0"/>
      <component glyphName="circumflex" x="89" y="0" flags="0x1004"/>
      <component glyphName="a" x="0" y="0" flags="0x1004"/>
    </TTGlyph>
    <TTGlyph name="acute" xMin="49" yMin="1172" xMax="449" yMax="1492">
      <contour>
        <pt x="254" y="1492" on="1"/>
        <pt x="449" y="1492" on="1"/>
        <pt x="141" y="1172" on="1"/>
        <pt x="49" y="1172" on="1"/>
      </contour>
    </TTGlyph>
    <TTGlyph name="adieresis" xMin="90" yMin="-24" xMax="888" yMax="1365">
      <component glyphName="glyph00365" x="90" y="0" flags="0x0"/>
      <component glyphName="dieresis" x="101" y="0" flags="0x1004"/>
      <component glyphName="a" x="0" y="0" flags="0x1004"/>
    </TTGlyph>
    <TTGlyph name="ae" xMin="84" yMin="-25" xMax="1587" yMax="1044">
      <contour>
        <pt x="133" y="927" on="1"/>
        <pt x="302" y="1044" on="0"/>
        <pt x="518" y="1044" on="1"/>
        <pt x="647" y="1044" on="0"/>
        <pt x="822" y="938" on="0"/>
        <pt x="842" y="832" on="1"/>
        <pt x="887" y="931" on="0"/>
        <pt x="1077" y="1044" on="0"/>
        <pt x="1191" y="1044" on="1"/>
        <pt x="1295" y="1044" on="0"/>
        <pt x="1450" y="974" on="0"/>
        <pt x="1543" y="845" on="0"/>
        <pt x="1587" y="677" on="0"/>
        <pt x="1587" y="572" on="1"/>
        <pt x="1587" y="534" on="0"/>
        <pt x="1584" y="508" on="1"/>
        <pt x="900" y="494" on="1"/>
        <pt x="900" y="81" on="0"/>
        <pt x="1191" y="81" on="1"/>
        <pt x="1253" y="81" on="0"/>
        <pt x="1354" y="124" on="0"/>
        <pt x="1414" y="191" on="0"/>
        <pt x="1448" y="248" on="0"/>
        <pt x="1455" y="273" on="1"/>
        <pt x="1570" y="234" on="1"/>
        <pt x="1528" y="120" on="0"/>
        <pt x="1324" y="-23" on="0"/>
        <pt x="1195" y="-24" on="1"/>
        <pt x="1072" y="-24" on="0"/>
        <pt x="881" y="89" on="0"/>
        <pt x="845" y="195" on="1"/>
        <pt x="777" y="72" on="0"/>
        <pt x="567" y="-25" on="0"/>
        <pt x="429" y="-25" on="1"/>
        <pt x="337" y="-25" on="0"/>
        <pt x="186" y="30" on="0"/>
        <pt x="84" y="159" on="0"/>
        <pt x="84" y="251" on="1"/>
        <pt x="84" y="344" on="0"/>
        <pt x="161" y="474" on="0"/>
        <pt x="310" y="546" on="0"/>
        <pt x="491" y="579" on="0"/>
        <pt x="613" y="581" on="1"/>
        <pt x="618" y="581" on="0"/>
        <pt x="753" y="585" on="0"/>
        <pt x="752" y="586" on="1"/>
        <pt x="752" y="663" on="0"/>
        <pt x="743" y="764" on="0"/>
        <pt x="716" y="858" on="0"/>
        <pt x="666" y="910" on="0"/>
        <pt x="583" y="940" on="0"/>
        <pt x="523" y="940" on="1"/>
        <pt x="465" y="940" on="0"/>
        <pt x="374" y="926" on="0"/>
        <pt x="293" y="892" on="0"/>
        <pt x="245" y="865" on="0"/>
        <pt x="203" y="838" on="1"/>
      </contour>
      <contour>
        <pt x="771" y="318" on="1"/>
        <pt x="771" y="341" on="0"/>
        <pt x="761" y="477" on="0"/>
        <pt x="761" y="487" on="1"/>
        <pt x="620" y="482" on="1"/>
        <pt x="546" y="478" on="0"/>
        <pt x="442" y="466" on="0"/>
        <pt x="334" y="435" on="0"/>
        <pt x="268" y="388" on="0"/>
        <pt x="226" y="310" on="0"/>
        <pt x="226" y="256" on="1"/>
        <pt x="226" y="170" on="0"/>
        <pt x="352" y="80" on="0"/>
        <pt x="440" y="80" on="1"/>
        <pt x="504" y="80" on="0"/>
        <pt x="621" y="110" on="0"/>
        <pt x="715" y="167" on="0"/>
        <pt x="771" y="260" on="0"/>
      </contour>
      <contour>
        <pt x="1450" y="606" on="1"/>
        <pt x="1449" y="770" on="0"/>
        <pt x="1325" y="941" on="0"/>
        <pt x="1187" y="941" on="1"/>
        <pt x="1057" y="941" on="0"/>
        <pt x="909" y="740" on="0"/>
        <pt x="901" y="592" on="1"/>
      </contour>
    </TTGlyph>
    <TTGlyph name="agrave" xMin="90" yMin="-24" xMax="888" yMax="1492">
      <component glyphName="glyph00365" x="90" y="0" flags="0x0"/>
      <component glyphName="grave" x="206" y="0" flags="0x1004"/>
      <component glyphName="a" x="0" y="0" flags="0x1004"/>
    </TTGlyph>
    <TTGlyph name="amacron" xMin="90" yMin="-24" xMax="888" yMax="1329">
      <component glyphName="glyph00365" x="90" y="0" flags="0x0"/>
      <component glyphName="macron" x="151" y="0" flags="0x1004"/>
      <component glyphName="a" x="0" y="0" flags="0x1004"/>
    </TTGlyph>
    <TTGlyph name="ampersand" xMin="98" yMin="-28" xMax="1393" yMax="1489">
      <contour>
        <pt x="1010" y="1211" on="1"/>
        <pt x="1010" y="1342" on="0"/>
        <pt x="820" y="1489" on="0"/>
        <pt x="673" y="1489" on="1"/>
        <pt x="531" y="1489" on="0"/>
        <pt x="325" y="1339" on="0"/>
        <pt x="325" y="1210" on="1"/>
        <pt x="325" y="1122" on="0"/>
        <pt x="403" y="964" on="0"/>
        <pt x="484" y="873" on="1"/>
        <pt x="305" y="802" on="0"/>
        <pt x="98" y="570" on="0"/>
        <pt x="98" y="413" on="1"/>
        <pt x="98" y="228" on="0"/>
        <pt x="369" y="-26" on="0"/>
        <pt x="582" y="-26" on="1"/>
        <pt x="880" y="-26" on="0"/>
        <pt x="1088" y="195" on="1"/>
        <pt x="1104" y="179" on="0"/>
        <pt x="1178" y="103" on="0"/>
        <pt x="1223" y="58" on="0"/>
        <pt x="1291" y="-4" on="0"/>
        <pt x="1320" y="-28" on="1"/>
        <pt x="1393" y="57" on="1"/>
        <pt x="1350" y="94" on="0"/>
        <pt x="1283" y="161" on="0"/>
        <pt x="1197" y="256" on="0"/>
        <pt x="1169" y="285" on="1"/>
        <pt x="1276" y="490" on="0"/>
        <pt x="1311" y="782" on="1"/>
        <pt x="1181" y="801" on="1"/>
        <pt x="1166" y="698" on="0"/>
        <pt x="1147" y="582" on="0"/>
        <pt x="1102" y="428" on="0"/>
        <pt x="1074" y="381" on="1"/>
        <pt x="677" y="836" on="1"/>
        <pt x="841" y="918" on="0"/>
        <pt x="1010" y="1093" on="0"/>
      </contour>
      <contour>
        <pt x="609" y="917" on="1"/>
        <pt x="459" y="1079" on="0"/>
        <pt x="459" y="1209" on="1"/>
        <pt x="459" y="1291" on="0"/>
        <pt x="591" y="1391" on="0"/>
        <pt x="678" y="1391" on="1"/>
        <pt x="761" y="1391" on="0"/>
        <pt x="882" y="1291" on="0"/>
        <pt x="882" y="1205" on="1"/>
        <pt x="882" y="1171" on="0"/>
        <pt x="861" y="1109" on="0"/>
        <pt x="806" y="1035" on="0"/>
        <pt x="693" y="956" on="0"/>
      </contour>
      <contour>
        <pt x="603" y="85" on="1"/>
        <pt x="512" y="85" on="0"/>
        <pt x="370" y="142" on="0"/>
        <pt x="286" y="239" on="0"/>
        <pt x="244" y="355" on="0"/>
        <pt x="244" y="419" on="1"/>
        <pt x="244" y="531" on="0"/>
        <pt x="389" y="704" on="0"/>
        <pt x="557" y="785" on="1"/>
        <pt x="601" y="736" on="0"/>
        <pt x="782" y="531" on="0"/>
        <pt x="938" y="355" on="0"/>
        <pt x="1002" y="283" on="1"/>
        <pt x="924" y="186" on="0"/>
        <pt x="712" y="85" on="0"/>
      </contour>
    </TTGlyph>
    <TTGlyph name="aogonek" xMin="90" yMin="-369" xMax="888" yMax="1044">
      <component glyphName="glyph00365" x="90" y="0" flags="0x0"/>
      <component glyphName="ogonek" x="533" y="0" flags="0x1004"/>
      <component glyphName="a" x="0" y="0" flags="0x1004"/>
    </TTGlyph>
    <TTGlyph name="aring" xMin="90" yMin="-24" xMax="888" yMax="1592">
      <component glyphName="glyph00365" x="90" y="0" flags="0x0"/>
      <component glyphName="ring" x="146" y="0" flags="0x1004"/>
      <component glyphName="a" x="0" y="0" flags="0x1004"/>
    </TTGlyph>
    <TTGlyph name="asciicircum" xMin="103" yMin="100" xMax="950" yMax="999">
      <contour>
        <pt x="241" y="100" on="1"/>
        <pt x="103" y="100" on="1"/>
        <pt x="469" y="999" on="1"/>
        <pt x="595" y="999" on="1"/>
        <pt x="950" y="100" on="1"/>
        <pt x="798" y="100" on="1"/>
        <pt x="525" y="837" on="1"/>
      </contour>
    </TTGlyph>
    <TTGlyph name="asciitilde" xMin="21" yMin="700" xMax="941" yMax="946">
      <contour>
        <pt x="757" y="700" on="1"/>
        <pt x="843" y="700" on="0"/>
        <pt x="935" y="809" on="0"/>
        <pt x="941" y="946" on="1"/>
        <pt x="822" y="946" on="1"/>
        <pt x="815" y="909" on="0"/>
        <pt x="809" y="885" on="0"/>
        <pt x="797" y="846" on="0"/>
        <pt x="783" y="836" on="0"/>
        <pt x="760" y="826" on="0"/>
        <pt x="743" y="826" on="1"/>
        <pt x="711" y="826" on="0"/>
        <pt x="296" y="946" on="0"/>
        <pt x="235" y="946" on="1"/>
        <pt x="209" y="946" on="0"/>
        <pt x="180" y="945" on="0"/>
        <pt x="131" y="935" on="0"/>
        <pt x="102" y="918" on="0"/>
        <pt x="64" y="883" on="0"/>
        <pt x="42" y="833" on="0"/>
        <pt x="24" y="756" on="0"/>
        <pt x="21" y="707" on="1"/>
        <pt x="139" y="707" on="1"/>
        <pt x="153" y="783" on="0"/>
        <pt x="188" y="825" on="0"/>
        <pt x="217" y="825" on="1"/>
        <pt x="259" y="825" on="0"/>
        <pt x="674" y="700" on="0"/>
      </contour>
    </TTGlyph>
    <TTGlyph name="asterisk" xMin="60" yMin="762" xMax="766" yMax="1463">
      <contour>
        <pt x="463" y="762" on="1"/>
        <pt x="363" y="762" on="1"/>
        <pt x="373" y="1049" on="1"/>
        <pt x="108" y="894" on="1"/>
        <pt x="61" y="982" on="1"/>
        <pt x="336" y="1112" on="1"/>
        <pt x="60" y="1242" on="1"/>
        <pt x="107" y="1330" on="1"/>
        <pt x="373" y="1175" on="1"/>
        <pt x="363" y="1463" on="1"/>
        <pt x="463" y="1463" on="1"/>
        <pt x="453" y="1176" on="1"/>
        <pt x="718" y="1331" on="1"/>
        <pt x="765" y="1243" on="1"/>
        <pt x="490" y="1113" on="1"/>
        <pt x="766" y="983" on="1"/>
        <pt x="719" y="895" on="1"/>
        <pt x="453" y="1050" on="1"/>
      </contour>
    </TTGlyph>
    <TTGlyph name="at" xMin="114" yMin="-223" xMax="1591" yMax="1256">
      <contour>
        <pt x="1091" y="252" on="1"/>
        <pt x="1056" y="199" on="0"/>
        <pt x="981" y="127" on="0"/>
        <pt x="899" y="85" on="0"/>
        <pt x="815" y="67" on="0"/>
        <pt x="764" y="67" on="1"/>
        <pt x="712" y="67" on="0"/>
        <pt x="620" y="94" on="0"/>
        <pt x="551" y="144" on="0"/>
        <pt x="497" y="211" on="0"/>
        <pt x="462" y="291" on="0"/>
        <pt x="445" y="379" on="0"/>
        <pt x="445" y="425" on="1"/>
        <pt x="445" y="520" on="0"/>
        <pt x="507" y="704" on="0"/>
        <pt x="614" y="848" on="0"/>
        <pt x="775" y="937" on="0"/>
        <pt x="866" y="937" on="1"/>
        <pt x="1002" y="937" on="0"/>
        <pt x="1145" y="844" on="1"/>
        <pt x="1170" y="917" on="1"/>
        <pt x="1268" y="917" on="1"/>
        <pt x="1176" y="326" on="1"/>
        <pt x="1176" y="295" on="0"/>
        <pt x="1204" y="239" on="0"/>
        <pt x="1250" y="205" on="0"/>
        <pt x="1276" y="205" on="1"/>
        <pt x="1297" y="205" on="0"/>
        <pt x="1338" y="221" on="0"/>
        <pt x="1377" y="254" on="0"/>
        <pt x="1412" y="303" on="0"/>
        <pt x="1441" y="370" on="0"/>
        <pt x="1461" y="450" on="0"/>
        <pt x="1473" y="551" on="0"/>
        <pt x="1473" y="608" on="1"/>
        <pt x="1473" y="707" on="0"/>
        <pt x="1409" y="881" on="0"/>
        <pt x="1298" y="1010" on="0"/>
        <pt x="1150" y="1104" on="0"/>
        <pt x="977" y="1151" on="0"/>
        <pt x="886" y="1151" on="1"/>
        <pt x="821" y="1151" on="0"/>
        <pt x="697" y="1126" on="0"/>
        <pt x="590" y="1079" on="0"/>
        <pt x="493" y="1014" on="0"/>
        <pt x="412" y="934" on="0"/>
        <pt x="344" y="841" on="0"/>
        <pt x="294" y="739" on="0"/>
        <pt x="258" y="632" on="0"/>
        <pt x="240" y="522" on="0"/>
        <pt x="240" y="467" on="1"/>
        <pt x="240" y="230" on="0"/>
        <pt x="370" y="74" on="1"/>
        <pt x="532" y="-119" on="0"/>
        <pt x="839" y="-120" on="1"/>
        <pt x="1025" y="-120" on="0"/>
        <pt x="1248" y="-30" on="1"/>
        <pt x="1288" y="-105" on="1"/>
        <pt x="1052" y="-223" on="0"/>
        <pt x="842" y="-223" on="1"/>
        <pt x="696" y="-223" on="0"/>
        <pt x="453" y="-146" on="0"/>
        <pt x="285" y="-14" on="0"/>
        <pt x="168" y="165" on="0"/>
        <pt x="114" y="366" on="0"/>
        <pt x="114" y="476" on="1"/>
        <pt x="114" y="591" on="0"/>
        <pt x="179" y="815" on="0"/>
        <pt x="310" y="1014" on="0"/>
        <pt x="490" y="1167" on="0"/>
        <pt x="740" y="1256" on="0"/>
        <pt x="883" y="1256" on="1"/>
        <pt x="994" y="1256" on="0"/>
        <pt x="1205" y="1195" on="0"/>
        <pt x="1382" y="1078" on="0"/>
        <pt x="1515" y="919" on="0"/>
        <pt x="1591" y="711" on="0"/>
        <pt x="1591" y="596" on="1"/>
        <pt x="1591" y="537" on="0"/>
        <pt x="1577" y="430" on="0"/>
        <pt x="1552" y="340" on="0"/>
        <pt x="1516" y="263" on="0"/>
        <pt x="1471" y="204" on="0"/>
        <pt x="1418" y="157" on="0"/>
        <pt x="1358" y="127" on="0"/>
        <pt x="1293" y="112" on="0"/>
        <pt x="1258" y="112" on="1"/>
        <pt x="1227" y="112" on="0"/>
        <pt x="1166" y="136" on="0"/>
        <pt x="1105" y="202" on="0"/>
      </contour>
      <contour>
        <pt x="1123" y="763" on="1"/>
        <pt x="999" y="843" on="0"/>
        <pt x="886" y="843" on="1"/>
        <pt x="793" y="843" on="0"/>
        <pt x="647" y="729" on="0"/>
        <pt x="570" y="537" on="0"/>
        <pt x="570" y="422" on="1"/>
        <pt x="570" y="371" on="0"/>
        <pt x="595" y="280" on="0"/>
        <pt x="644" y="206" on="0"/>
        <pt x="725" y="163" on="0"/>
        <pt x="778" y="163" on="1"/>
        <pt x="779" y="163" on="1"/>
        <pt x="808" y="163" on="0"/>
        <pt x="874" y="182" on="0"/>
        <pt x="950" y="232" on="0"/>
        <pt x="1015" y="306" on="0"/>
        <pt x="1068" y="428" on="0"/>
        <pt x="1079" y="504" on="1"/>
      </contour>
    </TTGlyph>
    <TTGlyph name="atilde" xMin="90" yMin="-24" xMax="888" yMax="1395">
      <component glyphName="glyph00365" x="90" y="0" flags="0x0"/>
      <component glyphName="tilde" x="113" y="0" flags="0x1004"/>
      <component glyphName="a" x="0" y="0" flags="0x1004"/>
    </TTGlyph>
    <TTGlyph name="b" xMin="125" yMin="-24" xMax="984" yMax="1493">
      <contour>
        <pt x="563" y="940" on="1"/>
        <pt x="688" y="940" on="0"/>
        <pt x="840" y="701" on="0"/>
        <pt x="840" y="520" on="1"/>
        <pt x="840" y="318" on="0"/>
        <pt x="693" y="77" on="0"/>
        <pt x="565" y="77" on="1"/>
        <pt x="263" y="77" on="0"/>
        <pt x="263" y="522" on="1"/>
        <pt x="263" y="616" on="0"/>
        <pt x="301" y="765" on="0"/>
        <pt x="361" y="856" on="0"/>
        <pt x="442" y="916" on="0"/>
        <pt x="521" y="940" on="0"/>
      </contour>
      <contour>
        <pt x="125" y="0" on="1"/>
        <pt x="238" y="0" on="1"/>
        <pt x="257" y="161" on="1"/>
        <pt x="294" y="72" on="0"/>
        <pt x="469" y="-24" on="0"/>
        <pt x="580" y="-24" on="1"/>
        <pt x="773" y="-24" on="0"/>
        <pt x="984" y="263" on="0"/>
        <pt x="984" y="502" on="1"/>
        <pt x="984" y="756" on="0"/>
        <pt x="775" y="1044" on="0"/>
        <pt x="589" y="1044" on="1"/>
        <pt x="481" y="1044" on="0"/>
        <pt x="311" y="953" on="0"/>
        <pt x="268" y="865" on="1"/>
        <pt x="268" y="1102" on="1"/>
        <pt x="268" y="1493" on="1"/>
        <pt x="125" y="1493" on="1"/>
      </contour>
    </TTGlyph>
    <TTGlyph name="backslash" xMin="46" yMin="-5" xMax="588" yMax="1464">
      <contour>
        <pt x="588" y="-5" on="1"/>
        <pt x="443" y="-5" on="1"/>
        <pt x="46" y="1464" on="1"/>
        <pt x="191" y="1464" on="1"/>
      </contour>
    </TTGlyph>
    <TTGlyph name="bar" xMin="135" yMin="-197" xMax="281" yMax="1502">
      <contour>
        <pt x="281" y="-197" on="1"/>
        <pt x="135" y="-197" on="1"/>
        <pt x="135" y="1502" on="1"/>
        <pt x="281" y="1502" on="1"/>
      </contour>
    </TTGlyph>
    <TTGlyph name="braceleft" xMin="35" yMin="-130" xMax="608" yMax="1544">
      <contour>
        <pt x="35" y="754" on="1"/>
        <pt x="62" y="756" on="0"/>
        <pt x="106" y="770" on="0"/>
        <pt x="138" y="787" on="0"/>
        <pt x="163" y="820" on="0"/>
        <pt x="179" y="844" on="0"/>
        <pt x="190" y="892" on="0"/>
        <pt x="195" y="919" on="0"/>
        <pt x="198" y="976" on="0"/>
        <pt x="198" y="1002" on="0"/>
        <pt x="198" y="1033" on="1"/>
        <pt x="198" y="1098" on="0"/>
        <pt x="199" y="1162" on="0"/>
        <pt x="206" y="1272" on="0"/>
        <pt x="220" y="1327" on="0"/>
        <pt x="248" y="1410" on="0"/>
        <pt x="289" y="1451" on="0"/>
        <pt x="350" y="1503" on="0"/>
        <pt x="431" y="1527" on="0"/>
        <pt x="541" y="1544" on="0"/>
        <pt x="608" y="1544" on="1"/>
        <pt x="608" y="1454" on="1"/>
        <pt x="568" y="1454" on="0"/>
        <pt x="507" y="1451" on="0"/>
        <pt x="456" y="1434" on="0"/>
        <pt x="420" y="1423" on="0"/>
        <pt x="390" y="1385" on="0"/>
        <pt x="372" y="1362" on="0"/>
        <pt x="359" y="1297" on="0"/>
        <pt x="353" y="1258" on="0"/>
        <pt x="349" y="1161" on="0"/>
        <pt x="349" y="1102" on="0"/>
        <pt x="349" y="1037" on="1"/>
        <pt x="349" y="1034" on="0"/>
        <pt x="349" y="1033" on="1"/>
        <pt x="349" y="886" on="0"/>
        <pt x="282" y="729" on="0"/>
        <pt x="190" y="707" on="1"/>
        <pt x="282" y="685" on="0"/>
        <pt x="349" y="528" on="0"/>
        <pt x="349" y="381" on="1"/>
        <pt x="349" y="168" on="0"/>
        <pt x="361" y="105" on="1"/>
        <pt x="378" y="16" on="0"/>
        <pt x="437" y="-14" on="1"/>
        <pt x="490" y="-40" on="0"/>
        <pt x="608" y="-40" on="1"/>
        <pt x="608" y="-130" on="1"/>
        <pt x="541" y="-130" on="0"/>
        <pt x="431" y="-113" on="0"/>
        <pt x="350" y="-89" on="0"/>
        <pt x="289" y="-37" on="0"/>
        <pt x="248" y="4" on="0"/>
        <pt x="220" y="87" on="0"/>
        <pt x="206" y="142" on="0"/>
        <pt x="199" y="252" on="0"/>
        <pt x="198" y="316" on="0"/>
        <pt x="198" y="381" on="1"/>
        <pt x="198" y="412" on="0"/>
        <pt x="198" y="438" on="0"/>
        <pt x="195" y="495" on="0"/>
        <pt x="190" y="522" on="0"/>
        <pt x="179" y="570" on="0"/>
        <pt x="163" y="594" on="0"/>
        <pt x="138" y="627" on="0"/>
        <pt x="106" y="644" on="0"/>
        <pt x="62" y="658" on="0"/>
        <pt x="35" y="660" on="1"/>
      </contour>
    </TTGlyph>
    <TTGlyph name="braceright" xMin="36" yMin="-131" xMax="609" yMax="1543">
      <contour>
        <pt x="609" y="753" on="1"/>
        <pt x="582" y="755" on="0"/>
        <pt x="538" y="769" on="0"/>
        <pt x="506" y="786" on="0"/>
        <pt x="481" y="819" on="0"/>
        <pt x="465" y="843" on="0"/>
        <pt x="454" y="891" on="0"/>
        <pt x="449" y="918" on="0"/>
        <pt x="446" y="975" on="0"/>
        <pt x="446" y="1001" on="0"/>
        <pt x="446" y="1032" on="1"/>
        <pt x="446" y="1097" on="0"/>
        <pt x="445" y="1161" on="0"/>
        <pt x="438" y="1271" on="0"/>
        <pt x="424" y="1326" on="0"/>
        <pt x="396" y="1409" on="0"/>
        <pt x="355" y="1450" on="0"/>
        <pt x="294" y="1502" on="0"/>
        <pt x="213" y="1526" on="0"/>
        <pt x="103" y="1543" on="0"/>
        <pt x="36" y="1543" on="1"/>
        <pt x="36" y="1453" on="1"/>
        <pt x="76" y="1453" on="0"/>
        <pt x="137" y="1450" on="0"/>
        <pt x="188" y="1433" on="0"/>
        <pt x="224" y="1422" on="0"/>
        <pt x="254" y="1384" on="0"/>
        <pt x="272" y="1361" on="0"/>
        <pt x="285" y="1296" on="0"/>
        <pt x="291" y="1257" on="0"/>
        <pt x="295" y="1160" on="0"/>
        <pt x="295" y="1101" on="0"/>
        <pt x="295" y="1036" on="1"/>
        <pt x="295" y="1033" on="0"/>
        <pt x="295" y="1032" on="1"/>
        <pt x="295" y="885" on="0"/>
        <pt x="362" y="728" on="0"/>
        <pt x="454" y="706" on="1"/>
        <pt x="362" y="684" on="0"/>
        <pt x="295" y="527" on="0"/>
        <pt x="295" y="380" on="1"/>
        <pt x="295" y="167" on="0"/>
        <pt x="283" y="104" on="1"/>
        <pt x="266" y="15" on="0"/>
        <pt x="207" y="-15" on="1"/>
        <pt x="154" y="-41" on="0"/>
        <pt x="36" y="-41" on="1"/>
        <pt x="36" y="-131" on="1"/>
        <pt x="103" y="-131" on="0"/>
        <pt x="213" y="-114" on="0"/>
        <pt x="294" y="-90" on="0"/>
        <pt x="355" y="-38" on="0"/>
        <pt x="396" y="3" on="0"/>
        <pt x="424" y="86" on="0"/>
        <pt x="438" y="141" on="0"/>
        <pt x="445" y="251" on="0"/>
        <pt x="446" y="315" on="0"/>
        <pt x="446" y="380" on="1"/>
        <pt x="446" y="411" on="0"/>
        <pt x="446" y="437" on="0"/>
        <pt x="449" y="494" on="0"/>
        <pt x="454" y="521" on="0"/>
        <pt x="465" y="569" on="0"/>
        <pt x="481" y="593" on="0"/>
        <pt x="506" y="626" on="0"/>
        <pt x="538" y="643" on="0"/>
        <pt x="582" y="657" on="0"/>
        <pt x="609" y="659" on="1"/>
      </contour>
    </TTGlyph>
    <TTGlyph name="bracketleft" xMin="132" yMin="-52" xMax="590" yMax="1480">
      <contour>
        <pt x="132" y="-52" on="1"/>
        <pt x="132" y="1480" on="1"/>
        <pt x="590" y="1480" on="1"/>
        <pt x="590" y="1374" on="1"/>
        <pt x="277" y="1374" on="1"/>
        <pt x="277" y="55" on="1"/>
        <pt x="590" y="55" on="1"/>
        <pt x="590" y="-52" on="1"/>
      </contour>
    </TTGlyph>
    <TTGlyph name="bracketright" xMin="119" yMin="-52" xMax="576" yMax="1480">
      <contour>
        <pt x="119" y="1374" on="1"/>
        <pt x="119" y="1480" on="1"/>
        <pt x="576" y="1480" on="1"/>
        <pt x="576" y="-52" on="1"/>
        <pt x="119" y="-52" on="1"/>
        <pt x="119" y="55" on="1"/>
        <pt x="431" y="55" on="1"/>
        <pt x="431" y="1374" on="1"/>
      </contour>
    </TTGlyph>
    <TTGlyph name="breve" xMin="126" yMin="1183" xMax="678" yMax="1438">
      <contour>
        <pt x="513" y="1183" on="0"/>
        <pt x="291" y="1183" on="0"/>
        <pt x="129" y="1317" on="0"/>
        <pt x="126" y="1438" on="1"/>
        <pt x="242" y="1438" on="1"/>
        <pt x="242" y="1361" on="0"/>
        <pt x="328" y="1287" on="0"/>
        <pt x="476" y="1287" on="0"/>
        <pt x="562" y="1361" on="0"/>
        <pt x="562" y="1438" on="1"/>
        <pt x="678" y="1438" on="1"/>
        <pt x="675" y="1317" on="0"/>
      </contour>
    </TTGlyph>
    <TTGlyph name="brokenbar" xMin="135" yMin="-198" xMax="281" yMax="1504">
      <contour>
        <pt x="135" y="-198" on="1"/>
        <pt x="135" y="433" on="1"/>
        <pt x="281" y="433" on="1"/>
        <pt x="281" y="-198" on="1"/>
      </contour>
      <contour>
        <pt x="281" y="883" on="1"/>
        <pt x="135" y="883" on="1"/>
        <pt x="135" y="1504" on="1"/>
        <pt x="281" y="1504" on="1"/>
      </contour>
    </TTGlyph>
    <TTGlyph name="c" xMin="92" yMin="-24" xMax="911" yMax="1044">
      <contour>
        <pt x="92" y="509" on="1"/>
        <pt x="92" y="666" on="0"/>
        <pt x="190" y="904" on="0"/>
        <pt x="394" y="1044" on="0"/>
        <pt x="538" y="1044" on="1"/>
        <pt x="600" y="1044" on="0"/>
        <pt x="709" y="1014" on="0"/>
        <pt x="812" y="946" on="0"/>
        <pt x="891" y="820" on="0"/>
        <pt x="911" y="733" on="1"/>
        <pt x="792" y="701" on="1"/>
        <pt x="760" y="823" on="0"/>
        <pt x="641" y="940" on="0"/>
        <pt x="544" y="940" on="1"/>
        <pt x="390" y="940" on="0"/>
        <pt x="237" y="711" on="0"/>
        <pt x="237" y="512" on="1"/>
        <pt x="237" y="415" on="0"/>
        <pt x="271" y="261" on="0"/>
        <pt x="340" y="144" on="0"/>
        <pt x="455" y="81" on="0"/>
        <pt x="531" y="81" on="1"/>
        <pt x="730" y="81" on="0"/>
        <pt x="799" y="316" on="1"/>
        <pt x="908" y="282" on="1"/>
        <pt x="890" y="201" on="0"/>
        <pt x="811" y="79" on="0"/>
        <pt x="706" y="9" on="0"/>
        <pt x="590" y="-24" on="0"/>
        <pt x="528" y="-24" on="1"/>
        <pt x="316" y="-24" on="0"/>
        <pt x="92" y="267" on="0"/>
      </contour>
    </TTGlyph>
    <TTGlyph name="cacute" xMin="92" yMin="-24" xMax="911" yMax="1492">
      <component glyphName="glyph00365" x="92" y="0" flags="0x0"/>
      <component glyphName="c" x="0" y="0" flags="0x1004"/>
      <component glyphName="acute" x="381" y="0" flags="0x1004"/>
    </TTGlyph>
    <TTGlyph name="caron" xMin="183" yMin="1172" xMax="668" yMax="1492">
      <contour>
        <pt x="523" y="1172" on="1"/>
        <pt x="328" y="1172" on="1"/>
        <pt x="183" y="1492" on="1"/>
        <pt x="275" y="1492" on="1"/>
        <pt x="425" y="1264" on="1"/>
        <pt x="576" y="1492" on="1"/>
        <pt x="668" y="1492" on="1"/>
      </contour>
    </TTGlyph>
    <TTGlyph name="ccaron" xMin="92" yMin="-24" xMax="911" yMax="1492">
      <component glyphName="glyph00365" x="92" y="0" flags="0x0"/>
      <component glyphName="caron" x="107" y="0" flags="0x1004"/>
      <component glyphName="c" x="0" y="0" flags="0x1004"/>
    </TTGlyph>
    <TTGlyph name="ccedilla" xMin="92" yMin="-390" xMax="911" yMax="1044">
      <component glyphName="glyph00365" x="92" y="0" flags="0x0"/>
      <component glyphName="cedilla" x="277" y="0" flags="0x1004"/>
      <component glyphName="c" x="0" y="0" flags="0x1004"/>
    </TTGlyph>
    <TTGlyph name="ccircumflex" xMin="92" yMin="-24" xMax="911" yMax="1492">
      <component glyphName="glyph00365" x="92" y="0" flags="0x0"/>
      <component glyphName="circumflex" x="112" y="0" flags="0x1004"/>
      <component glyphName="c" x="0" y="0" flags="0x1004"/>
    </TTGlyph>
    <TTGlyph name="cdotaccent" xMin="92" yMin="-24" xMax="911" yMax="1415">
      <component glyphName="glyph00365" x="92" y="0" flags="0x0"/>
      <component glyphName="uni0307" x="259" y="-102" flags="0x1004"/>
      <component glyphName="c" x="0" y="0" flags="0x1004"/>
    </TTGlyph>
    <TTGlyph name="cedilla" xMin="150" yMin="-390" xMax="350" yMax="-10">
      <contour>
        <pt x="150" y="-174" on="1"/>
        <pt x="150" y="-10" on="1"/>
        <pt x="350" y="-10" on="1"/>
        <pt x="350" y="-189" on="1"/>
        <pt x="350" y="-269" on="0"/>
        <pt x="282" y="-390" on="0"/>
        <pt x="214" y="-390" on="1"/>
        <pt x="193" y="-390" on="0"/>
        <pt x="172" y="-381" on="1"/>
        <pt x="172" y="-316" on="1"/>
        <pt x="202" y="-324" on="0"/>
        <pt x="209" y="-324" on="1"/>
        <pt x="231" y="-324" on="0"/>
        <pt x="249" y="-262" on="0"/>
        <pt x="249" y="-174" on="1"/>
      </contour>
    </TTGlyph>
    <TTGlyph name="cent" xMin="94" yMin="-208" xMax="909" yMax="1253">
      <contour>
        <pt x="484" y="-208" on="1"/>
        <pt x="577" y="-208" on="1"/>
        <pt x="577" y="-22" on="1"/>
        <pt x="621" y="-17" on="0"/>
        <pt x="703" y="10" on="0"/>
        <pt x="781" y="61" on="0"/>
        <pt x="844" y="130" on="0"/>
        <pt x="893" y="229" on="0"/>
        <pt x="906" y="289" on="1"/>
        <pt x="805" y="323" on="1"/>
        <pt x="774" y="217" on="0"/>
        <pt x="659" y="96" on="0"/>
        <pt x="577" y="84" on="1"/>
        <pt x="577" y="938" on="1"/>
        <pt x="741" y="918" on="0"/>
        <pt x="798" y="701" on="1"/>
        <pt x="909" y="733" on="1"/>
        <pt x="894" y="797" on="0"/>
        <pt x="842" y="900" on="0"/>
        <pt x="779" y="968" on="0"/>
        <pt x="701" y="1015" on="0"/>
        <pt x="621" y="1039" on="0"/>
        <pt x="577" y="1042" on="1"/>
        <pt x="577" y="1253" on="1"/>
        <pt x="484" y="1253" on="1"/>
        <pt x="484" y="1042" on="1"/>
        <pt x="357" y="1029" on="0"/>
        <pt x="179" y="884" on="0"/>
        <pt x="94" y="656" on="0"/>
        <pt x="94" y="509" on="1"/>
        <pt x="94" y="360" on="0"/>
        <pt x="179" y="132" on="0"/>
        <pt x="357" y="-10" on="0"/>
        <pt x="484" y="-22" on="1"/>
      </contour>
      <contour>
        <pt x="484" y="935" on="1"/>
        <pt x="484" y="85" on="1"/>
        <pt x="401" y="99" on="0"/>
        <pt x="288" y="216" on="0"/>
        <pt x="237" y="394" on="0"/>
        <pt x="237" y="512" on="1"/>
        <pt x="237" y="691" on="0"/>
        <pt x="360" y="914" on="0"/>
      </contour>
    </TTGlyph>
    <TTGlyph name="circumflex" xMin="152" yMin="1172" xMax="697" yMax="1492">
      <contour>
        <pt x="327" y="1492" on="1"/>
        <pt x="522" y="1492" on="1"/>
        <pt x="697" y="1172" on="1"/>
        <pt x="605" y="1172" on="1"/>
        <pt x="424" y="1390" on="1"/>
        <pt x="244" y="1172" on="1"/>
        <pt x="152" y="1172" on="1"/>
      </contour>
    </TTGlyph>
    <TTGlyph name="colon" xMin="159" yMin="171" xMax="332" yMax="1024">
      <contour>
        <pt x="332" y="387" on="1"/>
        <pt x="332" y="171" on="1"/>
        <pt x="159" y="171" on="1"/>
        <pt x="159" y="387" on="1"/>
      </contour>
      <contour>
        <pt x="159" y="1024" on="1"/>
        <pt x="332" y="1024" on="1"/>
        <pt x="332" y="808" on="1"/>
        <pt x="159" y="808" on="1"/>
      </contour>
    </TTGlyph>
    <TTGlyph name="comma" xMin="100" yMin="-254" xMax="300" yMax="219">
      <contour>
        <pt x="100" y="219" on="1"/>
        <pt x="300" y="219" on="1"/>
        <pt x="300" y="134" on="1"/>
        <pt x="295" y="-19" on="0"/>
        <pt x="281" y="-78" on="1"/>
        <pt x="254" y="-192" on="0"/>
        <pt x="163" y="-254" on="1"/>
        <pt x="114" y="-192" on="1"/>
        <pt x="141" y="-171" on="0"/>
        <pt x="192" y="-64" on="0"/>
        <pt x="194" y="16" on="1"/>
        <pt x="100" y="29" on="1"/>
      </contour>
    </TTGlyph>
    <TTGlyph name="copyright" xMin="123" yMin="47" xMax="1579" yMax="1503">
      <contour>
        <pt x="856" y="1247" on="1"/>
        <pt x="960" y="1247" on="0"/>
        <pt x="1101" y="1131" on="0"/>
        <pt x="1129" y="1015" on="1"/>
        <pt x="1058" y="997" on="1"/>
        <pt x="1017" y="1177" on="0"/>
        <pt x="853" y="1177" on="1"/>
        <pt x="598" y="1177" on="0"/>
        <pt x="598" y="799" on="1"/>
        <pt x="598" y="601" on="0"/>
        <pt x="714" y="415" on="0"/>
        <pt x="854" y="415" on="1"/>
        <pt x="939" y="415" on="0"/>
        <pt x="1040" y="502" on="0"/>
        <pt x="1066" y="584" on="1"/>
        <pt x="1132" y="561" on="1"/>
        <pt x="1067" y="344" on="0"/>
        <pt x="850" y="344" on="1"/>
        <pt x="685" y="344" on="0"/>
        <pt x="517" y="562" on="0"/>
        <pt x="517" y="799" on="1"/>
        <pt x="517" y="1027" on="0"/>
        <pt x="697" y="1247" on="0"/>
      </contour>
      <contour>
        <pt x="1579" y="774" on="1"/>
        <pt x="1579" y="578" on="0"/>
        <pt x="1383" y="243" on="0"/>
        <pt x="1047" y="47" on="0"/>
        <pt x="850" y="47" on="1"/>
        <pt x="654" y="47" on="0"/>
        <pt x="319" y="243" on="0"/>
        <pt x="123" y="578" on="0"/>
        <pt x="123" y="774" on="1"/>
        <pt x="123" y="971" on="0"/>
        <pt x="319" y="1307" on="0"/>
        <pt x="654" y="1503" on="0"/>
        <pt x="850" y="1503" on="1"/>
        <pt x="1047" y="1503" on="0"/>
        <pt x="1383" y="1307" on="0"/>
        <pt x="1579" y="971" on="0"/>
      </contour>
      <contour>
        <pt x="667" y="100" on="0"/>
        <pt x="1031" y="100" on="0"/>
        <pt x="1342" y="281" on="0"/>
        <pt x="1523" y="591" on="0"/>
        <pt x="1523" y="773" on="1"/>
        <pt x="1523" y="910" on="0"/>
        <pt x="1416" y="1161" on="0"/>
        <pt x="1236" y="1343" on="0"/>
        <pt x="987" y="1452" on="0"/>
        <pt x="850" y="1452" on="1"/>
        <pt x="714" y="1452" on="0"/>
        <pt x="464" y="1343" on="0"/>
        <pt x="283" y="1161" on="0"/>
        <pt x="176" y="910" on="0"/>
        <pt x="176" y="773" on="1"/>
        <pt x="176" y="591" on="0"/>
        <pt x="357" y="281" on="0"/>
      </contour>
    </TTGlyph>
    <TTGlyph name="currency" xMin="78" yMin="197" xMax="990" yMax="1108">
      <contour>
        <pt x="769" y="658" on="1"/>
        <pt x="769" y="548" on="0"/>
        <pt x="640" y="385" on="0"/>
        <pt x="536" y="385" on="1"/>
        <pt x="428" y="385" on="0"/>
        <pt x="303" y="544" on="0"/>
        <pt x="303" y="766" on="0"/>
        <pt x="428" y="925" on="0"/>
        <pt x="642" y="925" on="0"/>
        <pt x="769" y="767" on="0"/>
      </contour>
      <contour>
        <pt x="934" y="246" on="1"/>
        <pt x="990" y="309" on="1"/>
        <pt x="831" y="449" on="1"/>
        <pt x="883" y="540" on="0"/>
        <pt x="883" y="653" on="1"/>
        <pt x="883" y="794" on="0"/>
        <pt x="805" y="896" on="1"/>
        <pt x="942" y="1052" on="1"/>
        <pt x="878" y="1108" on="1"/>
        <pt x="745" y="956" on="1"/>
        <pt x="659" y="1023" on="0"/>
        <pt x="534" y="1023" on="1"/>
        <pt x="382" y="1023" on="0"/>
        <pt x="287" y="926" on="1"/>
        <pt x="134" y="1061" on="1"/>
        <pt x="78" y="997" on="1"/>
        <pt x="236" y="859" on="1"/>
        <pt x="183" y="771" on="0"/>
        <pt x="183" y="656" on="1"/>
        <pt x="183" y="514" on="0"/>
        <pt x="264" y="410" on="1"/>
        <pt x="126" y="253" on="1"/>
        <pt x="190" y="197" on="1"/>
        <pt x="324" y="350" on="1"/>
        <pt x="413" y="284" on="0"/>
        <pt x="535" y="284" on="1"/>
        <pt x="685" y="284" on="0"/>
        <pt x="780" y="381" on="1"/>
      </contour>
    </TTGlyph>
    <TTGlyph name="d" xMin="90" yMin="-24" xMax="935" yMax="1474">
      <contour>
        <pt x="90" y="500" on="1"/>
        <pt x="90" y="753" on="0"/>
        <pt x="294" y="1044" on="0"/>
        <pt x="482" y="1044" on="1"/>
        <pt x="711" y="1044" on="0"/>
        <pt x="792" y="863" on="1"/>
        <pt x="792" y="1474" on="1"/>
        <pt x="935" y="1474" on="1"/>
        <pt x="935" y="0" on="1"/>
        <pt x="821" y="0" on="1"/>
        <pt x="802" y="172" on="1"/>
        <pt x="763" y="82" on="0"/>
        <pt x="592" y="-24" on="0"/>
        <pt x="486" y="-24" on="1"/>
        <pt x="302" y="-24" on="0"/>
        <pt x="90" y="263" on="0"/>
      </contour>
      <contour>
        <pt x="504" y="81" on="1"/>
        <pt x="549" y="81" on="0"/>
        <pt x="621" y="96" on="0"/>
        <pt x="705" y="147" on="0"/>
        <pt x="761" y="234" on="0"/>
        <pt x="798" y="392" on="0"/>
        <pt x="798" y="499" on="1"/>
        <pt x="798" y="629" on="0"/>
        <pt x="741" y="821" on="0"/>
        <pt x="605" y="940" on="0"/>
        <pt x="502" y="940" on="1"/>
        <pt x="375" y="940" on="0"/>
        <pt x="235" y="699" on="0"/>
        <pt x="235" y="496" on="1"/>
        <pt x="235" y="314" on="0"/>
        <pt x="379" y="81" on="0"/>
      </contour>
    </TTGlyph>
    <TTGlyph name="dcaron" xMin="90" yMin="-24" xMax="1322" yMax="1474">
      <component glyphName="glyph00365" x="90" y="0" flags="0x0"/>
      <component glyphName="d" x="0" y="0" flags="0x1004"/>
      <component glyphName="comma" x="1022" y="1255" flags="0x1004"/>
    </TTGlyph>
    <TTGlyph name="dcroat" xMin="96" yMin="-24" xMax="1024" yMax="1474">
      <contour>
        <pt x="504" y="1196" on="1"/>
        <pt x="504" y="1282" on="1"/>
        <pt x="1024" y="1282" on="1"/>
        <pt x="1024" y="1196" on="1"/>
      </contour>
      <contour>
        <pt x="96" y="500" on="1"/>
        <pt x="96" y="753" on="0"/>
        <pt x="297" y="1044" on="0"/>
        <pt x="484" y="1044" on="1"/>
        <pt x="596" y="1044" on="0"/>
        <pt x="760" y="953" on="0"/>
        <pt x="794" y="863" on="1"/>
        <pt x="794" y="1474" on="1"/>
        <pt x="937" y="1474" on="1"/>
        <pt x="937" y="0" on="1"/>
        <pt x="823" y="0" on="1"/>
        <pt x="804" y="172" on="1"/>
        <pt x="765" y="82" on="0"/>
        <pt x="594" y="-24" on="0"/>
        <pt x="488" y="-24" on="1"/>
        <pt x="304" y="-24" on="0"/>
        <pt x="96" y="262" on="0"/>
      </contour>
      <contour>
        <pt x="506" y="81" on="1"/>
        <pt x="551" y="81" on="0"/>
        <pt x="623" y="96" on="0"/>
        <pt x="707" y="147" on="0"/>
        <pt x="763" y="234" on="0"/>
        <pt x="800" y="392" on="0"/>
        <pt x="800" y="499" on="1"/>
        <pt x="800" y="598" on="0"/>
        <pt x="772" y="750" on="0"/>
        <pt x="707" y="874" on="0"/>
        <pt x="588" y="940" on="0"/>
        <pt x="504" y="940" on="1"/>
        <pt x="378" y="940" on="0"/>
        <pt x="242" y="703" on="0"/>
        <pt x="242" y="499" on="1"/>
        <pt x="242" y="315" on="0"/>
        <pt x="382" y="81" on="0"/>
      </contour>
    </TTGlyph>
    <TTGlyph name="degree" xMin="0" yMin="1032" xMax="483" yMax="1504">
      <contour>
        <pt x="483" y="1269" on="1"/>
        <pt x="483" y="1366" on="0"/>
        <pt x="350" y="1504" on="0"/>
        <pt x="240" y="1504" on="1"/>
        <pt x="133" y="1504" on="0"/>
        <pt x="0" y="1366" on="0"/>
        <pt x="0" y="1267" on="1"/>
        <pt x="0" y="1170" on="0"/>
        <pt x="133" y="1032" on="0"/>
        <pt x="240" y="1032" on="1"/>
        <pt x="350" y="1032" on="0"/>
        <pt x="483" y="1171" on="0"/>
      </contour>
      <contour>
        <pt x="379" y="1268" on="1"/>
        <pt x="379" y="1208" on="0"/>
        <pt x="305" y="1117" on="0"/>
        <pt x="240" y="1117" on="1"/>
        <pt x="174" y="1117" on="0"/>
        <pt x="98" y="1208" on="0"/>
        <pt x="98" y="1268" on="1"/>
        <pt x="98" y="1327" on="0"/>
        <pt x="174" y="1418" on="0"/>
        <pt x="240" y="1418" on="1"/>
        <pt x="303" y="1418" on="0"/>
        <pt x="379" y="1327" on="0"/>
      </contour>
    </TTGlyph>
    <TTGlyph name="dieresis" xMin="135" yMin="1191" xMax="680" yMax="1365">
      <contour>
        <pt x="680" y="1365" on="1"/>
        <pt x="680" y="1191" on="1"/>
        <pt x="514" y="1191" on="1"/>
        <pt x="514" y="1365" on="1"/>
      </contour>
      <contour>
        <pt x="135" y="1365" on="1"/>
        <pt x="301" y="1365" on="1"/>
        <pt x="301" y="1191" on="1"/>
        <pt x="135" y="1191" on="1"/>
      </contour>
    </TTGlyph>
    <TTGlyph name="divide" xMin="100" yMin="171" xMax="850" yMax="1024">
      <contour>
        <pt x="565" y="385" on="1"/>
        <pt x="565" y="171" on="1"/>
        <pt x="392" y="171" on="1"/>
        <pt x="392" y="385" on="1"/>
      </contour>
      <contour>
        <pt x="392" y="1024" on="1"/>
        <pt x="565" y="1024" on="1"/>
        <pt x="565" y="808" on="1"/>
        <pt x="392" y="808" on="1"/>
      </contour>
      <contour>
        <pt x="850" y="551" on="1"/>
        <pt x="850" y="649" on="1"/>
        <pt x="100" y="649" on="1"/>
        <pt x="100" y="551" on="1"/>
      </contour>
    </TTGlyph>
    <TTGlyph name="dollar" xMin="98" yMin="-201" xMax="1211" yMax="1674">
      <contour>
        <pt x="642" y="871" on="1"/>
        <pt x="586" y="889" on="0"/>
        <pt x="516" y="915" on="0"/>
        <pt x="426" y="961" on="0"/>
        <pt x="374" y="1010" on="0"/>
        <pt x="337" y="1084" on="0"/>
        <pt x="337" y="1128" on="1"/>
        <pt x="337" y="1238" on="0"/>
        <pt x="505" y="1354" on="0"/>
        <pt x="642" y="1362" on="1"/>
      </contour>
      <contour>
        <pt x="731" y="103" on="1"/>
        <pt x="731" y="692" on="1"/>
        <pt x="802" y="667" on="0"/>
        <pt x="893" y="627" on="0"/>
        <pt x="981" y="574" on="0"/>
        <pt x="1029" y="517" on="0"/>
        <pt x="1058" y="438" on="0"/>
        <pt x="1058" y="388" on="1"/>
        <pt x="1058" y="316" on="0"/>
        <pt x="1004" y="207" on="0"/>
        <pt x="910" y="142" on="0"/>
        <pt x="799" y="108" on="0"/>
        <pt x="734" y="103" on="1"/>
      </contour>
      <contour>
        <pt x="642" y="-201" on="1"/>
        <pt x="731" y="-201" on="1"/>
        <pt x="731" y="-23" on="1"/>
        <pt x="954" y="-11" on="0"/>
        <pt x="1211" y="207" on="0"/>
        <pt x="1211" y="393" on="1"/>
        <pt x="1211" y="446" on="0"/>
        <pt x="1188" y="537" on="0"/>
        <pt x="1153" y="607" on="0"/>
        <pt x="1087" y="671" on="0"/>
        <pt x="1023" y="716" on="0"/>
        <pt x="919" y="768" on="0"/>
        <pt x="833" y="803" on="0"/>
        <pt x="766" y="829" on="1"/>
        <pt x="763" y="830" on="0"/>
        <pt x="738" y="840" on="0"/>
        <pt x="731" y="842" on="1"/>
        <pt x="731" y="1363" on="1"/>
        <pt x="858" y="1354" on="0"/>
        <pt x="1027" y="1234" on="0"/>
        <pt x="1074" y="1148" on="1"/>
        <pt x="1178" y="1224" on="1"/>
        <pt x="1097" y="1348" on="0"/>
        <pt x="881" y="1472" on="0"/>
        <pt x="731" y="1480" on="1"/>
        <pt x="731" y="1674" on="1"/>
        <pt x="642" y="1674" on="1"/>
        <pt x="642" y="1481" on="1"/>
        <pt x="552" y="1477" on="0"/>
        <pt x="391" y="1429" on="0"/>
        <pt x="260" y="1342" on="0"/>
        <pt x="184" y="1203" on="0"/>
        <pt x="184" y="1116" on="1"/>
        <pt x="184" y="1067" on="0"/>
        <pt x="210" y="982" on="0"/>
        <pt x="251" y="919" on="0"/>
        <pt x="320" y="861" on="0"/>
        <pt x="385" y="822" on="0"/>
        <pt x="480" y="780" on="0"/>
        <pt x="554" y="753" on="0"/>
        <pt x="606" y="735" on="1"/>
        <pt x="614" y="732" on="0"/>
        <pt x="618" y="731" on="1"/>
        <pt x="634" y="725" on="0"/>
        <pt x="642" y="723" on="1"/>
        <pt x="642" y="102" on="1"/>
        <pt x="305" y="119" on="0"/>
        <pt x="221" y="426" on="1"/>
        <pt x="98" y="373" on="1"/>
        <pt x="117" y="270" on="0"/>
        <pt x="230" y="113" on="0"/>
        <pt x="387" y="24" on="0"/>
        <pt x="554" y="-20" on="0"/>
        <pt x="642" y="-24" on="1"/>
      </contour>
    </TTGlyph>
    <TTGlyph name="dotaccent" xMin="153" yMin="1301" xMax="397" yMax="1550">
      <contour>
        <pt x="332" y="1301" on="0"/>
        <pt x="218" y="1301" on="0"/>
        <pt x="153" y="1375" on="0"/>
        <pt x="153" y="1426" on="1"/>
        <pt x="153" y="1476" on="0"/>
        <pt x="218" y="1550" on="0"/>
        <pt x="332" y="1550" on="0"/>
        <pt x="397" y="1476" on="0"/>
        <pt x="397" y="1426" on="1"/>
        <pt x="397" y="1375" on="0"/>
      </contour>
    </TTGlyph>
    <TTGlyph name="dotlessi" xMin="140" yMin="0" xMax="282" yMax="1023">
      <contour>
        <pt x="140" y="0" on="1"/>
        <pt x="140" y="1023" on="1"/>
        <pt x="282" y="1023" on="1"/>
        <pt x="282" y="0" on="1"/>
      </contour>
    </TTGlyph>
    <TTGlyph name="e" xMin="92" yMin="-24" xMax="939" yMax="1044">
      <contour>
        <pt x="532" y="1044" on="1"/>
        <pt x="636" y="1044" on="0"/>
        <pt x="795" y="971" on="0"/>
        <pt x="891" y="840" on="0"/>
        <pt x="939" y="668" on="0"/>
        <pt x="939" y="564" on="1"/>
        <pt x="939" y="530" on="0"/>
        <pt x="936" y="504" on="1"/>
        <pt x="237" y="504" on="1"/>
        <pt x="237" y="417" on="0"/>
        <pt x="271" y="268" on="0"/>
        <pt x="340" y="149" on="0"/>
        <pt x="459" y="81" on="0"/>
        <pt x="537" y="81" on="1"/>
        <pt x="638" y="81" on="0"/>
        <pt x="768" y="174" on="0"/>
        <pt x="795" y="258" on="1"/>
        <pt x="905" y="234" on="1"/>
        <pt x="882" y="149" on="0"/>
        <pt x="766" y="30" on="0"/>
        <pt x="622" y="-23" on="0"/>
        <pt x="541" y="-24" on="1"/>
        <pt x="537" y="-24" on="1"/>
        <pt x="424" y="-24" on="0"/>
        <pt x="249" y="64" on="0"/>
        <pt x="144" y="215" on="0"/>
        <pt x="92" y="404" on="0"/>
        <pt x="92" y="512" on="1"/>
        <pt x="92" y="751" on="0"/>
        <pt x="325" y="1044" on="0"/>
      </contour>
      <contour>
        <pt x="802" y="597" on="1"/>
        <pt x="801" y="761" on="0"/>
        <pt x="667" y="941" on="0"/>
        <pt x="528" y="941" on="1"/>
        <pt x="461" y="941" on="0"/>
        <pt x="355" y="887" on="0"/>
        <pt x="286" y="791" on="0"/>
        <pt x="246" y="669" on="0"/>
        <pt x="240" y="597" on="1"/>
      </contour>
    </TTGlyph>
    <TTGlyph name="eacute" xMin="92" yMin="-24" xMax="939" yMax="1492">
      <component glyphName="glyph00365" x="92" y="0" flags="0x0"/>
      <component glyphName="acute" x="377" y="0" flags="0x1004"/>
      <component glyphName="e" x="0" y="0" flags="0x1004"/>
    </TTGlyph>
    <TTGlyph name="ecaron" xMin="92" yMin="-24" xMax="939" yMax="1492">
      <component glyphName="glyph00365" x="92" y="0" flags="0x0"/>
      <component glyphName="caron" x="102" y="0" flags="0x1004"/>
      <component glyphName="e" x="0" y="0" flags="0x1004"/>
    </TTGlyph>
    <TTGlyph name="ecircumflex" xMin="92" yMin="-24" xMax="939" yMax="1492">
      <component glyphName="glyph00365" x="92" y="0" flags="0x0"/>
      <component glyphName="circumflex" x="118" y="0" flags="0x1004"/>
      <component glyphName="e" x="0" y="0" flags="0x1004"/>
    </TTGlyph>
    <TTGlyph name="edieresis" xMin="92" yMin="-24" xMax="939" yMax="1365">
      <component glyphName="glyph00365" x="92" y="0" flags="0x0"/>
      <component glyphName="e" x="0" y="0" flags="0x1004"/>
      <component glyphName="dieresis" x="115" y="0" flags="0x1004"/>
    </TTGlyph>
    <TTGlyph name="egrave" xMin="92" yMin="-24" xMax="939" yMax="1492">
      <component glyphName="glyph00365" x="92" y="0" flags="0x0"/>
      <component glyphName="grave" x="220" y="0" flags="0x1004"/>
      <component glyphName="e" x="0" y="0" flags="0x1004"/>
    </TTGlyph>
    <TTGlyph name="eight" xMin="106" yMin="-24" xMax="1062" yMax="1492">
      <contour>
        <pt x="501" y="716" on="1"/>
        <pt x="388" y="648" on="0"/>
        <pt x="264" y="460" on="0"/>
        <pt x="264" y="367" on="1"/>
        <pt x="264" y="311" on="0"/>
        <pt x="307" y="209" on="0"/>
        <pt x="386" y="130" on="0"/>
        <pt x="509" y="83" on="0"/>
        <pt x="584" y="83" on="1"/>
        <pt x="644" y="83" on="0"/>
        <pt x="760" y="121" on="0"/>
        <pt x="855" y="190" on="0"/>
        <pt x="914" y="301" on="0"/>
        <pt x="914" y="368" on="1"/>
        <pt x="914" y="414" on="0"/>
        <pt x="889" y="492" on="0"/>
        <pt x="851" y="551" on="0"/>
        <pt x="785" y="603" on="0"/>
        <pt x="724" y="640" on="0"/>
        <pt x="629" y="677" on="0"/>
        <pt x="556" y="700" on="0"/>
      </contour>
      <contour>
        <pt x="106" y="351" on="1"/>
        <pt x="106" y="589" on="0"/>
        <pt x="398" y="759" on="1"/>
        <pt x="350" y="781" on="0"/>
        <pt x="264" y="841" on="0"/>
        <pt x="178" y="925" on="0"/>
        <pt x="127" y="1038" on="0"/>
        <pt x="127" y="1101" on="1"/>
        <pt x="127" y="1159" on="0"/>
        <pt x="154" y="1261" on="0"/>
        <pt x="202" y="1340" on="0"/>
        <pt x="270" y="1404" on="0"/>
        <pt x="351" y="1448" on="0"/>
        <pt x="444" y="1478" on="0"/>
        <pt x="542" y="1492" on="0"/>
        <pt x="594" y="1492" on="1"/>
        <pt x="669" y="1492" on="0"/>
        <pt x="802" y="1464" on="0"/>
        <pt x="918" y="1402" on="0"/>
        <pt x="1001" y="1312" on="0"/>
        <pt x="1049" y="1180" on="0"/>
        <pt x="1049" y="1099" on="1"/>
        <pt x="1049" y="1030" on="0"/>
        <pt x="988" y="905" on="0"/>
        <pt x="894" y="820" on="0"/>
        <pt x="807" y="765" on="0"/>
        <pt x="768" y="751" on="1"/>
        <pt x="843" y="715" on="0"/>
        <pt x="950" y="638" on="0"/>
        <pt x="1013" y="568" on="0"/>
        <pt x="1050" y="484" on="0"/>
        <pt x="1062" y="411" on="0"/>
        <pt x="1062" y="365" on="1"/>
        <pt x="1062" y="303" on="0"/>
        <pt x="1021" y="189" on="0"/>
        <pt x="937" y="91" on="0"/>
        <pt x="821" y="18" on="0"/>
        <pt x="662" y="-24" on="0"/>
        <pt x="569" y="-24" on="1"/>
        <pt x="465" y="-24" on="0"/>
        <pt x="288" y="38" on="0"/>
        <pt x="171" y="142" on="0"/>
        <pt x="106" y="277" on="0"/>
      </contour>
      <contour>
        <pt x="659" y="792" on="1"/>
        <pt x="899" y="912" on="0"/>
        <pt x="899" y="1101" on="1"/>
        <pt x="899" y="1171" on="0"/>
        <pt x="850" y="1280" on="0"/>
        <pt x="765" y="1346" on="0"/>
        <pt x="657" y="1379" on="0"/>
        <pt x="594" y="1379" on="1"/>
        <pt x="547" y="1379" on="0"/>
        <pt x="458" y="1361" on="0"/>
        <pt x="376" y="1319" on="0"/>
        <pt x="315" y="1257" on="0"/>
        <pt x="278" y="1162" on="0"/>
        <pt x="278" y="1104" on="1"/>
        <pt x="278" y="1073" on="0"/>
        <pt x="292" y="1018" on="0"/>
        <pt x="312" y="974" on="0"/>
        <pt x="352" y="932" on="0"/>
        <pt x="386" y="902" on="0"/>
        <pt x="447" y="870" on="0"/>
        <pt x="490" y="850" on="0"/>
        <pt x="568" y="821" on="0"/>
        <pt x="615" y="806" on="0"/>
      </contour>
    </TTGlyph>
    <TTGlyph name="emacron" xMin="92" yMin="-24" xMax="939" yMax="1329">
      <component glyphName="glyph00365" x="92" y="0" flags="0x0"/>
      <component glyphName="macron" x="164" y="0" flags="0x1004"/>
      <component glyphName="e" x="0" y="0" flags="0x1004"/>
    </TTGlyph>
    <TTGlyph name="emdash" xMin="135" yMin="334" xMax="1913" yMax="420">
      <contour>
        <pt x="135" y="334" on="1"/>
        <pt x="135" y="420" on="1"/>
        <pt x="1913" y="420" on="1"/>
        <pt x="1913" y="334" on="1"/>
      </contour>
    </TTGlyph>
    <TTGlyph name="endash" xMin="135" yMin="334" xMax="889" yMax="420">
      <contour>
        <pt x="135" y="334" on="1"/>
        <pt x="135" y="420" on="1"/>
        <pt x="889" y="420" on="1"/>
        <pt x="889" y="334" on="1"/>
      </contour>
    </TTGlyph>
    <TTGlyph name="eogonek" xMin="92" yMin="-369" xMax="939" yMax="1044">
      <component glyphName="glyph00365" x="92" y="0" flags="0x0"/>
      <component glyphName="ogonek" x="360" y="0" flags="0x1004"/>
      <component glyphName="e" x="0" y="0" flags="0x1004"/>
    </TTGlyph>
    <TTGlyph name="equal" xMin="135" yMin="300" xMax="685" yMax="650">
      <contour>
        <pt x="135" y="550" on="1"/>
        <pt x="135" y="650" on="1"/>
        <pt x="685" y="650" on="1"/>
        <pt x="685" y="550" on="1"/>
      </contour>
      <contour>
        <pt x="135" y="300" on="1"/>
        <pt x="135" y="400" on="1"/>
        <pt x="685" y="400" on="1"/>
        <pt x="685" y="300" on="1"/>
      </contour>
    </TTGlyph>
    <TTGlyph name="eth" xMin="94" yMin="-25" xMax="959" yMax="1432">
      <contour>
        <pt x="368" y="1101" on="1"/>
        <pt x="559" y="1225" on="1"/>
        <pt x="408" y="1339" on="0"/>
        <pt x="169" y="1339" on="1"/>
        <pt x="169" y="1432" on="1"/>
        <pt x="460" y="1432" on="0"/>
        <pt x="648" y="1283" on="1"/>
        <pt x="854" y="1418" on="1"/>
        <pt x="907" y="1343" on="1"/>
        <pt x="715" y="1218" on="1"/>
        <pt x="817" y="1112" on="0"/>
        <pt x="959" y="729" on="0"/>
        <pt x="959" y="529" on="1"/>
        <pt x="959" y="407" on="0"/>
        <pt x="909" y="210" on="0"/>
        <pt x="806" y="58" on="0"/>
        <pt x="634" y="-25" on="0"/>
        <pt x="518" y="-25" on="1"/>
        <pt x="414" y="-25" on="0"/>
        <pt x="249" y="55" on="0"/>
        <pt x="147" y="190" on="0"/>
        <pt x="94" y="360" on="0"/>
        <pt x="94" y="454" on="1"/>
        <pt x="94" y="560" on="0"/>
        <pt x="163" y="735" on="0"/>
        <pt x="278" y="847" on="0"/>
        <pt x="424" y="908" on="0"/>
        <pt x="503" y="908" on="1"/>
        <pt x="680" y="908" on="0"/>
        <pt x="810" y="774" on="1"/>
        <pt x="796" y="878" on="0"/>
        <pt x="680" y="1099" on="0"/>
        <pt x="618" y="1155" on="1"/>
        <pt x="421" y="1026" on="1"/>
      </contour>
      <contour>
        <pt x="523" y="798" on="1"/>
        <pt x="400" y="798" on="0"/>
        <pt x="235" y="605" on="0"/>
        <pt x="235" y="439" on="1"/>
        <pt x="235" y="275" on="0"/>
        <pt x="393" y="84" on="0"/>
        <pt x="518" y="84" on="1"/>
        <pt x="670" y="84" on="0"/>
        <pt x="823" y="315" on="0"/>
        <pt x="823" y="511" on="1"/>
        <pt x="823" y="620" on="0"/>
        <pt x="816" y="650" on="1"/>
        <pt x="681" y="798" on="0"/>
      </contour>
    </TTGlyph>
    <TTGlyph name="exclam" xMin="138" yMin="0" xMax="307" yMax="1464">
      <contour>
        <pt x="191" y="305" on="1"/>
        <pt x="138" y="1464" on="1"/>
        <pt x="307" y="1464" on="1"/>
        <pt x="250" y="305" on="1"/>
      </contour>
      <contour>
        <pt x="138" y="197" on="1"/>
        <pt x="302" y="197" on="1"/>
        <pt x="302" y="0" on="1"/>
        <pt x="138" y="0" on="1"/>
      </contour>
    </TTGlyph>
    <TTGlyph name="exclamdown" xMin="122" yMin="0" xMax="307" yMax="1465">
      <contour>
        <pt x="174" y="1160" on="1"/>
        <pt x="250" y="1160" on="1"/>
        <pt x="307" y="0" on="1"/>
        <pt x="122" y="0" on="1"/>
      </contour>
      <contour>
        <pt x="139" y="1268" on="1"/>
        <pt x="139" y="1465" on="1"/>
        <pt x="303" y="1465" on="1"/>
        <pt x="303" y="1268" on="1"/>
      </contour>
    </TTGlyph>
    <TTGlyph name="f" xMin="44" yMin="-1" xMax="607" yMax="1471">
      <contour>
        <pt x="460" y="1365" on="1"/>
        <pt x="435" y="1365" on="0"/>
        <pt x="400" y="1352" on="0"/>
        <pt x="378" y="1319" on="0"/>
        <pt x="366" y="1288" on="0"/>
        <pt x="360" y="1225" on="0"/>
        <pt x="359" y="1181" on="0"/>
        <pt x="359" y="1137" on="1"/>
        <pt x="359" y="1023" on="1"/>
        <pt x="559" y="1023" on="1"/>
        <pt x="559" y="917" on="1"/>
        <pt x="359" y="917" on="1"/>
        <pt x="359" y="-1" on="1"/>
        <pt x="217" y="-1" on="1"/>
        <pt x="217" y="917" on="1"/>
        <pt x="44" y="917" on="1"/>
        <pt x="44" y="1023" on="1"/>
        <pt x="217" y="1023" on="1"/>
        <pt x="217" y="1140" on="1"/>
        <pt x="217" y="1311" on="0"/>
        <pt x="323" y="1471" on="0"/>
        <pt x="451" y="1471" on="1"/>
        <pt x="532" y="1471" on="0"/>
        <pt x="607" y="1430" on="1"/>
        <pt x="573" y="1338" on="1"/>
        <pt x="501" y="1365" on="0"/>
      </contour>
    </TTGlyph>
    <TTGlyph name="five" xMin="99" yMin="-22" xMax="1072" yMax="1464">
      <contour>
        <pt x="608" y="928" on="1"/>
        <pt x="725" y="928" on="0"/>
        <pt x="907" y="851" on="0"/>
        <pt x="1016" y="719" on="0"/>
        <pt x="1072" y="554" on="0"/>
        <pt x="1072" y="461" on="1"/>
        <pt x="1072" y="378" on="0"/>
        <pt x="1030" y="230" on="0"/>
        <pt x="947" y="111" on="0"/>
        <pt x="831" y="25" on="0"/>
        <pt x="674" y="-22" on="0"/>
        <pt x="583" y="-22" on="1"/>
        <pt x="414" y="-22" on="0"/>
        <pt x="165" y="141" on="0"/>
        <pt x="99" y="309" on="1"/>
        <pt x="223" y="359" on="1"/>
        <pt x="280" y="235" on="0"/>
        <pt x="465" y="95" on="0"/>
        <pt x="574" y="95" on="1"/>
        <pt x="657" y="95" on="0"/>
        <pt x="792" y="154" on="0"/>
        <pt x="877" y="254" on="0"/>
        <pt x="923" y="382" on="0"/>
        <pt x="923" y="453" on="1"/>
        <pt x="923" y="522" on="0"/>
        <pt x="882" y="647" on="0"/>
        <pt x="805" y="748" on="0"/>
        <pt x="680" y="808" on="0"/>
        <pt x="602" y="808" on="1"/>
        <pt x="439" y="808" on="0"/>
        <pt x="276" y="685" on="1"/>
        <pt x="185" y="744" on="1"/>
        <pt x="281" y="1464" on="1"/>
        <pt x="982" y="1464" on="1"/>
        <pt x="982" y="1337" on="1"/>
        <pt x="412" y="1337" on="1"/>
        <pt x="343" y="856" on="1"/>
        <pt x="348" y="858" on="1"/>
        <pt x="474" y="928" on="0"/>
      </contour>
    </TTGlyph>
    <TTGlyph name="four" xMin="131" yMin="0" xMax="1132" yMax="1464">
      <contour>
        <pt x="131" y="464" on="1"/>
        <pt x="673" y="1464" on="1"/>
        <pt x="877" y="1464" on="1"/>
        <pt x="877" y="467" on="1"/>
        <pt x="1132" y="467" on="1"/>
        <pt x="1132" y="357" on="1"/>
        <pt x="878" y="357" on="1"/>
        <pt x="878" y="0" on="1"/>
        <pt x="738" y="0" on="1"/>
        <pt x="738" y="357" on="1"/>
        <pt x="131" y="357" on="1"/>
      </contour>
      <contour>
        <pt x="738" y="1332" on="1"/>
        <pt x="292" y="467" on="1"/>
        <pt x="738" y="467" on="1"/>
      </contour>
    </TTGlyph>
    <TTGlyph name="g" xMin="94" yMin="-429" xMax="951" yMax="1044">
      <contour>
        <pt x="818" y="543" on="1"/>
        <pt x="818" y="641" on="0"/>
        <pt x="776" y="790" on="0"/>
        <pt x="715" y="873" on="0"/>
        <pt x="630" y="924" on="0"/>
        <pt x="557" y="940" on="0"/>
        <pt x="518" y="940" on="1"/>
        <pt x="445" y="940" on="0"/>
        <pt x="333" y="871" on="0"/>
        <pt x="268" y="753" on="0"/>
        <pt x="236" y="611" on="0"/>
        <pt x="236" y="530" on="1"/>
        <pt x="236" y="315" on="0"/>
        <pt x="385" y="81" on="0"/>
        <pt x="513" y="81" on="1"/>
        <pt x="558" y="81" on="0"/>
        <pt x="636" y="100" on="0"/>
        <pt x="720" y="156" on="0"/>
        <pt x="779" y="247" on="0"/>
        <pt x="818" y="405" on="0"/>
        <pt x="818" y="509" on="1"/>
      </contour>
      <contour>
        <pt x="527" y="-429" on="1"/>
        <pt x="261" y="-429" on="0"/>
        <pt x="164" y="-267" on="1"/>
        <pt x="247" y="-188" on="1"/>
        <pt x="329" y="-320" on="0"/>
        <pt x="534" y="-320" on="1"/>
        <pt x="677" y="-320" on="0"/>
        <pt x="818" y="-138" on="0"/>
        <pt x="818" y="28" on="1"/>
        <pt x="818" y="130" on="1"/>
        <pt x="701" y="-24" on="0"/>
        <pt x="508" y="-24" on="1"/>
        <pt x="312" y="-24" on="0"/>
        <pt x="94" y="279" on="0"/>
        <pt x="94" y="526" on="1"/>
        <pt x="94" y="677" on="0"/>
        <pt x="185" y="908" on="0"/>
        <pt x="371" y="1044" on="0"/>
        <pt x="502" y="1044" on="1"/>
        <pt x="701" y="1044" on="0"/>
        <pt x="829" y="891" on="1"/>
        <pt x="837" y="1023" on="1"/>
        <pt x="951" y="1023" on="1"/>
        <pt x="951" y="20" on="1"/>
        <pt x="951" y="-179" on="0"/>
        <pt x="732" y="-429" on="0"/>
      </contour>
    </TTGlyph>
    <TTGlyph name="gbreve" xMin="94" yMin="-429" xMax="951" yMax="1438">
      <component glyphName="glyph00365" x="94" y="0" flags="0x0"/>
      <component glyphName="g" x="0" y="0" flags="0x1004"/>
      <component glyphName="breve" x="137" y="0" flags="0x1004"/>
    </TTGlyph>
    <TTGlyph name="gcircumflex" xMin="94" yMin="-429" xMax="951" yMax="1492">
      <component glyphName="glyph00365" x="94" y="0" flags="0x0"/>
      <component glyphName="circumflex" x="120" y="0" flags="0x1004"/>
      <component glyphName="g" x="0" y="0" flags="0x1004"/>
    </TTGlyph>
    <TTGlyph name="gcommaaccent" xMin="94" yMin="-429" xMax="951" yMax="1596">
      <component glyphName="glyph00365" x="94" y="0" flags="0x0"/>
      <component glyphName="g" x="0" y="0" flags="0x1004"/>
      <component glyphName="glyph00363" x="725" y="1023" scale="-1.0" flags="0x1004"/>
    </TTGlyph>
    <TTGlyph name="gdotaccent" xMin="94" yMin="-429" xMax="951" yMax="1401">
      <component glyphName="glyph00365" x="94" y="0" flags="0x0"/>
      <component glyphName="uni0307" x="255" y="-116" flags="0x1004"/>
      <component glyphName="g" x="0" y="0" flags="0x1004"/>
    </TTGlyph>
    <TTGlyph name="germandbls" xMin="130" yMin="0" xMax="1121" yMax="1492">
      <contour>
        <pt x="130" y="0" on="1"/>
        <pt x="130" y="1151" on="1"/>
        <pt x="130" y="1231" on="0"/>
        <pt x="205" y="1364" on="0"/>
        <pt x="330" y="1447" on="0"/>
        <pt x="485" y="1492" on="0"/>
        <pt x="568" y="1492" on="1"/>
        <pt x="754" y="1492" on="0"/>
        <pt x="940" y="1330" on="0"/>
        <pt x="940" y="1203" on="1"/>
        <pt x="940" y="1143" on="0"/>
        <pt x="887" y="1040" on="0"/>
        <pt x="809" y="973" on="0"/>
        <pt x="716" y="914" on="0"/>
        <pt x="638" y="878" on="0"/>
        <pt x="585" y="842" on="0"/>
        <pt x="585" y="828" on="1"/>
        <pt x="585" y="823" on="1"/>
        <pt x="585" y="795" on="0"/>
        <pt x="644" y="744" on="0"/>
        <pt x="739" y="699" on="0"/>
        <pt x="853" y="649" on="0"/>
        <pt x="967" y="586" on="0"/>
        <pt x="1062" y="510" on="0"/>
        <pt x="1121" y="401" on="0"/>
        <pt x="1121" y="336" on="1"/>
        <pt x="1121" y="262" on="0"/>
        <pt x="1096" y="165" on="0"/>
        <pt x="1019" y="77" on="0"/>
        <pt x="879" y="28" on="0"/>
        <pt x="648" y="0" on="0"/>
        <pt x="481" y="0" on="1"/>
        <pt x="441" y="0" on="1"/>
        <pt x="441" y="117" on="1"/>
        <pt x="608" y="117" on="0"/>
        <pt x="823" y="145" on="0"/>
        <pt x="935" y="204" on="0"/>
        <pt x="975" y="277" on="0"/>
        <pt x="975" y="332" on="1"/>
        <pt x="975" y="381" on="0"/>
        <pt x="916" y="464" on="0"/>
        <pt x="822" y="524" on="0"/>
        <pt x="708" y="579" on="0"/>
        <pt x="594" y="633" on="0"/>
        <pt x="500" y="691" on="0"/>
        <pt x="441" y="770" on="0"/>
        <pt x="441" y="816" on="1"/>
        <pt x="441" y="867" on="0"/>
        <pt x="516" y="946" on="0"/>
        <pt x="622" y="1002" on="0"/>
        <pt x="729" y="1060" on="0"/>
        <pt x="804" y="1150" on="0"/>
        <pt x="804" y="1209" on="1"/>
        <pt x="804" y="1294" on="0"/>
        <pt x="681" y="1388" on="0"/>
        <pt x="565" y="1388" on="1"/>
        <pt x="448" y="1388" on="0"/>
        <pt x="276" y="1256" on="0"/>
        <pt x="276" y="1140" on="1"/>
        <pt x="276" y="0" on="1"/>
      </contour>
    </TTGlyph>
    <TTGlyph name="glyph00362" xMin="9" yMin="-484" xMax="1110" yMax="1465">
      <component glyphName="glyph00365" x="9" y="0" flags="0x0"/>
      <component glyphName="cedilla" x="306" y="-94" flags="0x1004"/>
      <component glyphName="T" x="0" y="0" flags="0x1004"/>
    </TTGlyph>
    <TTGlyph name="glyph00363" xMin="100" yMin="-573" xMax="300" yMax="0">
      <contour>
        <pt x="208" y="0" on="1"/>
      </contour>
      <contour>
        <pt x="100" y="-100" on="1"/>
        <pt x="300" y="-100" on="1"/>
        <pt x="300" y="-185" on="1"/>
        <pt x="295" y="-338" on="0"/>
        <pt x="281" y="-397" on="1"/>
        <pt x="254" y="-511" on="0"/>
        <pt x="163" y="-573" on="1"/>
        <pt x="114" y="-511" on="1"/>
        <pt x="140" y="-491" on="0"/>
        <pt x="192" y="-373" on="0"/>
        <pt x="194" y="-293" on="1"/>
        <pt x="100" y="-293" on="1"/>
      </contour>
      <contour>
        <pt x="220" y="0" on="1"/>
      </contour>
      <contour>
        <pt x="220" y="0" on="1"/>
      </contour>
      <contour>
        <pt x="220" y="0" on="1"/>
      </contour>
      <contour>
        <pt x="220" y="0" on="1"/>
      </contour>
    </TTGlyph>
    <TTGlyph name="glyph00364" xMin="38" yMin="-479" xMax="618" yMax="1387">
      <component glyphName="glyph00365" x="38" y="0" flags="0x0"/>
      <component glyphName="cedilla" x="140" y="-89" flags="0x1004"/>
      <component glyphName="t" x="0" y="0" flags="0x1004"/>
    </TTGlyph>
    <TTGlyph name="glyph00365" xMin="0" yMin="0" xMax="0" yMax="0">
      <contour>
        <pt x="0" y="0" on="1"/>
      </contour>
    </TTGlyph>
    <TTGlyph name="grave" xMin="47" yMin="1172" xMax="447" yMax="1492">
      <contour>
        <pt x="47" y="1492" on="1"/>
        <pt x="242" y="1492" on="1"/>
        <pt x="447" y="1173" on="1"/>
        <pt x="353" y="1172" on="1"/>
      </contour>
    </TTGlyph>
    <TTGlyph name="greater" xMin="53" yMin="103" xMax="1002" yMax="950">
      <contour>
        <pt x="53" y="812" on="1"/>
        <pt x="53" y="950" on="1"/>
        <pt x="1002" y="584" on="1"/>
        <pt x="1002" y="458" on="1"/>
        <pt x="53" y="103" on="1"/>
        <pt x="53" y="255" on="1"/>
        <pt x="840" y="528" on="1"/>
      </contour>
    </TTGlyph>
    <TTGlyph name="guillemotleft" xMin="51" yMin="251" xMax="894" yMax="1050">
      <contour>
        <pt x="894" y="251" on="1"/>
        <pt x="449" y="552" on="1"/>
        <pt x="449" y="749" on="1"/>
        <pt x="894" y="1050" on="1"/>
        <pt x="894" y="909" on="1"/>
        <pt x="547" y="650" on="1"/>
        <pt x="894" y="393" on="1"/>
      </contour>
      <contour>
        <pt x="51" y="552" on="1"/>
        <pt x="51" y="749" on="1"/>
        <pt x="496" y="1050" on="1"/>
        <pt x="496" y="909" on="1"/>
        <pt x="149" y="650" on="1"/>
        <pt x="496" y="393" on="1"/>
        <pt x="496" y="251" on="1"/>
      </contour>
    </TTGlyph>
    <TTGlyph name="guillemotright" xMin="53" yMin="250" xMax="896" yMax="1049">
      <contour>
        <pt x="53" y="1049" on="1"/>
        <pt x="498" y="748" on="1"/>
        <pt x="498" y="551" on="1"/>
        <pt x="53" y="250" on="1"/>
        <pt x="53" y="391" on="1"/>
        <pt x="400" y="650" on="1"/>
        <pt x="53" y="907" on="1"/>
      </contour>
      <contour>
        <pt x="896" y="748" on="1"/>
        <pt x="896" y="551" on="1"/>
        <pt x="451" y="250" on="1"/>
        <pt x="451" y="391" on="1"/>
        <pt x="798" y="650" on="1"/>
        <pt x="451" y="907" on="1"/>
        <pt x="451" y="1049" on="1"/>
      </contour>
    </TTGlyph>
    <TTGlyph name="guilsinglleft" xMin="51" yMin="251" xMax="435" yMax="1050">
      <contour>
        <pt x="51" y="552" on="1"/>
        <pt x="51" y="749" on="1"/>
        <pt x="435" y="1050" on="1"/>
        <pt x="435" y="909" on="1"/>
        <pt x="149" y="650" on="1"/>
        <pt x="435" y="393" on="1"/>
        <pt x="435" y="251" on="1"/>
      </contour>
    </TTGlyph>
    <TTGlyph name="guilsinglright" xMin="51" yMin="251" xMax="435" yMax="1050">
      <contour>
        <pt x="435" y="552" on="1"/>
        <pt x="435" y="749" on="1"/>
        <pt x="51" y="1050" on="1"/>
        <pt x="51" y="909" on="1"/>
        <pt x="337" y="650" on="1"/>
        <pt x="51" y="393" on="1"/>
        <pt x="51" y="251" on="1"/>
      </contour>
    </TTGlyph>
    <TTGlyph name="h" xMin="130" yMin="0" xMax="980" yMax="1473">
      <contour>
        <pt x="602" y="940" on="1"/>
        <pt x="528" y="940" on="0"/>
        <pt x="413" y="890" on="0"/>
        <pt x="339" y="807" on="0"/>
        <pt x="291" y="688" on="0"/>
        <pt x="272" y="558" on="0"/>
        <pt x="272" y="483" on="1"/>
        <pt x="272" y="0" on="1"/>
        <pt x="130" y="0" on="1"/>
        <pt x="130" y="1473" on="1"/>
        <pt x="272" y="1473" on="1"/>
        <pt x="272" y="1053" on="1"/>
        <pt x="272" y="862" on="1"/>
        <pt x="389" y="1044" on="0"/>
        <pt x="623" y="1044" on="1"/>
        <pt x="691" y="1044" on="0"/>
        <pt x="800" y="1013" on="0"/>
        <pt x="873" y="963" on="0"/>
        <pt x="927" y="887" on="0"/>
        <pt x="957" y="811" on="0"/>
        <pt x="975" y="712" on="0"/>
        <pt x="980" y="632" on="0"/>
        <pt x="980" y="583" on="1"/>
        <pt x="980" y="0" on="1"/>
        <pt x="838" y="0" on="1"/>
        <pt x="838" y="594" on="1"/>
        <pt x="838" y="765" on="0"/>
        <pt x="733" y="940" on="0"/>
      </contour>
    </TTGlyph>
    <TTGlyph name="hbar" xMin="-1" yMin="0" xMax="991" yMax="1473">
      <contour>
        <pt x="-1" y="1205" on="1"/>
        <pt x="-1" y="1299" on="1"/>
        <pt x="140" y="1299" on="1"/>
        <pt x="140" y="1473" on="1"/>
        <pt x="283" y="1473" on="1"/>
        <pt x="283" y="1299" on="1"/>
        <pt x="550" y="1299" on="1"/>
        <pt x="550" y="1205" on="1"/>
        <pt x="283" y="1205" on="1"/>
        <pt x="283" y="1053" on="1"/>
        <pt x="283" y="925" on="0"/>
        <pt x="282" y="862" on="1"/>
        <pt x="399" y="1044" on="0"/>
        <pt x="634" y="1044" on="1"/>
        <pt x="702" y="1044" on="0"/>
        <pt x="811" y="1013" on="0"/>
        <pt x="884" y="963" on="0"/>
        <pt x="938" y="887" on="0"/>
        <pt x="968" y="811" on="0"/>
        <pt x="986" y="712" on="0"/>
        <pt x="991" y="632" on="0"/>
        <pt x="991" y="583" on="1"/>
        <pt x="991" y="0" on="1"/>
        <pt x="849" y="0" on="1"/>
        <pt x="849" y="594" on="1"/>
        <pt x="849" y="765" on="0"/>
        <pt x="744" y="940" on="0"/>
        <pt x="613" y="940" on="1"/>
        <pt x="539" y="940" on="0"/>
        <pt x="424" y="890" on="0"/>
        <pt x="350" y="807" on="0"/>
        <pt x="302" y="688" on="0"/>
        <pt x="283" y="558" on="0"/>
        <pt x="283" y="483" on="1"/>
        <pt x="283" y="0" on="1"/>
        <pt x="140" y="0" on="1"/>
        <pt x="140" y="1205" on="1"/>
      </contour>
    </TTGlyph>
    <TTGlyph name="hcircumflex" xMin="130" yMin="0" xMax="980" yMax="1823">
      <contour>
        <pt x="557" y="1823" on="1"/>
        <pt x="692" y="1823" on="1"/>
        <pt x="857" y="1503" on="1"/>
        <pt x="765" y="1503" on="1"/>
        <pt x="625" y="1731" on="1"/>
        <pt x="474" y="1503" on="1"/>
        <pt x="382" y="1503" on="1"/>
      </contour>
      <contour>
        <pt x="602" y="940" on="1"/>
        <pt x="528" y="940" on="0"/>
        <pt x="413" y="890" on="0"/>
        <pt x="339" y="807" on="0"/>
        <pt x="291" y="688" on="0"/>
        <pt x="272" y="558" on="0"/>
        <pt x="272" y="483" on="1"/>
        <pt x="272" y="0" on="1"/>
        <pt x="130" y="0" on="1"/>
        <pt x="130" y="1473" on="1"/>
        <pt x="272" y="1473" on="1"/>
        <pt x="272" y="1053" on="1"/>
        <pt x="272" y="862" on="1"/>
        <pt x="389" y="1044" on="0"/>
        <pt x="623" y="1044" on="1"/>
        <pt x="691" y="1044" on="0"/>
        <pt x="800" y="1013" on="0"/>
        <pt x="873" y="963" on="0"/>
        <pt x="927" y="887" on="0"/>
        <pt x="957" y="811" on="0"/>
        <pt x="975" y="712" on="0"/>
        <pt x="980" y="632" on="0"/>
        <pt x="980" y="583" on="1"/>
        <pt x="980" y="0" on="1"/>
        <pt x="838" y="0" on="1"/>
        <pt x="838" y="594" on="1"/>
        <pt x="838" y="765" on="0"/>
        <pt x="733" y="940" on="0"/>
      </contour>
    </TTGlyph>
    <TTGlyph name="hungarumlaut" xMin="87" yMin="1172" xMax="685" yMax="1492">
      <contour>
        <pt x="192" y="1492" on="1"/>
        <pt x="381" y="1492" on="1"/>
        <pt x="153" y="1172" on="1"/>
        <pt x="87" y="1172" on="1"/>
      </contour>
      <contour>
        <pt x="490" y="1492" on="1"/>
        <pt x="685" y="1492" on="1"/>
        <pt x="428" y="1172" on="1"/>
        <pt x="355" y="1172" on="1"/>
      </contour>
    </TTGlyph>
    <TTGlyph name="hyphen" xMin="100" yMin="400" xMax="600" yMax="511">
      <contour>
        <pt x="100" y="400" on="1"/>
        <pt x="100" y="511" on="1"/>
        <pt x="600" y="511" on="1"/>
        <pt x="600" y="400" on="1"/>
      </contour>
    </TTGlyph>
    <TTGlyph name="i" xMin="135" yMin="0" xMax="279" yMax="1421">
      <contour>
        <pt x="135" y="1242" on="1"/>
        <pt x="135" y="1421" on="1"/>
        <pt x="276" y="1421" on="1"/>
        <pt x="276" y="1242" on="1"/>
      </contour>
      <contour>
        <pt x="137" y="0" on="1"/>
        <pt x="137" y="1023" on="1"/>
        <pt x="279" y="1023" on="1"/>
        <pt x="279" y="0" on="1"/>
      </contour>
    </TTGlyph>
    <TTGlyph name="iacute" xMin="134" yMin="0" xMax="534" yMax="1492">
      <component glyphName="glyph00365" x="134" y="0" flags="0x0"/>
      <component glyphName="dotlessi" x="0" y="0" flags="0x1004"/>
      <component glyphName="acute" x="85" y="0" flags="0x1004"/>
    </TTGlyph>
    <TTGlyph name="ibreve" xMin="-70" yMin="0" xMax="482" yMax="1438">
      <component glyphName="glyph00365" x="0" y="0" flags="0x0"/>
      <component glyphName="dotlessi" x="0" y="0" flags="0x1004"/>
      <component glyphName="breve" x="-196" y="0" flags="0x1004"/>
    </TTGlyph>
    <TTGlyph name="icircumflex" xMin="-60" yMin="0" xMax="485" yMax="1492">
      <component glyphName="glyph00365" x="0" y="0" flags="0x0"/>
      <component glyphName="dotlessi" x="0" y="0" flags="0x1004"/>
      <component glyphName="circumflex" x="-212" y="0" flags="0x1004"/>
    </TTGlyph>
    <TTGlyph name="idieresis" xMin="-63" yMin="0" xMax="482" yMax="1365">
      <component glyphName="glyph00365" x="0" y="0" flags="0x0"/>
      <component glyphName="dieresis" x="-198" y="0" flags="0x1004"/>
      <component glyphName="dotlessi" x="0" y="0" flags="0x1004"/>
    </TTGlyph>
    <TTGlyph name="igrave" xMin="-78" yMin="0" xMax="322" yMax="1492">
      <component glyphName="glyph00365" x="0" y="0" flags="0x0"/>
      <component glyphName="grave" x="-125" y="0" flags="0x1004"/>
      <component glyphName="dotlessi" x="0" y="0" flags="0x1004"/>
    </TTGlyph>
    <TTGlyph name="ij" xMin="135" yMin="-325" xMax="758" yMax="1421">
      <component glyphName="glyph00365" x="135" y="0" flags="0x0"/>
      <component glyphName="j" x="401" y="0" flags="0x1004"/>
      <component glyphName="i" x="0" y="0" flags="0x1004"/>
    </TTGlyph>
    <TTGlyph name="imacron" xMin="-21" yMin="0" xMax="433" yMax="1329">
      <component glyphName="glyph00365" x="0" y="0" flags="0x0"/>
      <component glyphName="macron" x="-156" y="0" flags="0x1004"/>
      <component glyphName="dotlessi" x="0" y="0" flags="0x1004"/>
    </TTGlyph>
    <TTGlyph name="iogonek" xMin="43" yMin="-357" xMax="279" yMax="1421">
      <component glyphName="glyph00365" x="43" y="0" flags="0x0"/>
      <component glyphName="ogonek" x="-74" y="12" flags="0x1004"/>
      <component glyphName="i" x="0" y="0" flags="0x1004"/>
    </TTGlyph>
    <TTGlyph name="itilde" xMin="-69" yMin="0" xMax="481" yMax="1395">
      <component glyphName="glyph00365" x="0" y="0" flags="0x0"/>
      <component glyphName="tilde" x="-194" y="0" flags="0x1004"/>
      <component glyphName="dotlessi" x="0" y="0" flags="0x1004"/>
    </TTGlyph>
    <TTGlyph name="j" xMin="-25" yMin="-325" xMax="357" yMax="1421">
      <contour>
        <pt x="214" y="-91" on="1"/>
        <pt x="214" y="1023" on="1"/>
        <pt x="356" y="1023" on="1"/>
        <pt x="356" y="-12" on="1"/>
        <pt x="356" y="-97" on="0"/>
        <pt x="341" y="-201" on="0"/>
        <pt x="296" y="-287" on="0"/>
        <pt x="208" y="-325" on="0"/>
        <pt x="137" y="-325" on="1"/>
        <pt x="45" y="-325" on="0"/>
        <pt x="-25" y="-284" on="1"/>
        <pt x="-1" y="-177" on="1"/>
        <pt x="83" y="-208" on="0"/>
        <pt x="118" y="-208" on="1"/>
        <pt x="165" y="-208" on="0"/>
        <pt x="214" y="-156" on="0"/>
      </contour>
      <contour>
        <pt x="216" y="1242" on="1"/>
        <pt x="216" y="1421" on="1"/>
        <pt x="357" y="1421" on="1"/>
        <pt x="357" y="1242" on="1"/>
      </contour>
    </TTGlyph>
    <TTGlyph name="jcircumflex" xMin="33" yMin="-325" xMax="603" yMax="1466">
      <component glyphName="glyph00365" x="33" y="0" flags="0x0"/>
      <component glyphName="uni0237" x="0" y="0" flags="0x1004"/>
      <component glyphName="circumflex" x="-94" y="-26" flags="0x1004"/>
    </TTGlyph>
    <TTGlyph name="k" xMin="130" yMin="0" xMax="1018" yMax="1477">
      <contour>
        <pt x="797" y="1023" on="1"/>
        <pt x="959" y="1023" on="1"/>
        <pt x="578" y="651" on="1"/>
        <pt x="1018" y="0" on="1"/>
        <pt x="858" y="0" on="1"/>
        <pt x="485" y="565" on="1"/>
        <pt x="272" y="369" on="1"/>
        <pt x="272" y="0" on="1"/>
        <pt x="130" y="0" on="1"/>
        <pt x="130" y="1477" on="1"/>
        <pt x="271" y="1477" on="1"/>
        <pt x="271" y="511" on="1"/>
      </contour>
    </TTGlyph>
    <TTGlyph name="kcommaaccent" xMin="130" yMin="-573" xMax="1018" yMax="1477">
      <component glyphName="glyph00365" x="130" y="0" flags="0x0"/>
      <component glyphName="k" x="0" y="0" flags="0x1004"/>
      <component glyphName="glyph00363" x="302" y="0" flags="0x1004"/>
    </TTGlyph>
    <TTGlyph name="kgreenlandic" xMin="130" yMin="0" xMax="1018" yMax="1024">
      <contour>
        <pt x="797" y="1023" on="1"/>
        <pt x="959" y="1023" on="1"/>
        <pt x="599" y="621" on="1"/>
        <pt x="1018" y="0" on="1"/>
        <pt x="858" y="0" on="1"/>
        <pt x="504" y="544" on="1"/>
        <pt x="272" y="299" on="1"/>
        <pt x="272" y="0" on="1"/>
        <pt x="130" y="0" on="1"/>
        <pt x="130" y="1024" on="1"/>
        <pt x="271" y="1024" on="1"/>
        <pt x="271" y="446" on="1"/>
      </contour>
    </TTGlyph>
    <TTGlyph name="l" xMin="134" yMin="0" xMax="276" yMax="1474">
      <contour>
        <pt x="134" y="0" on="1"/>
        <pt x="134" y="1474" on="1"/>
        <pt x="276" y="1474" on="1"/>
        <pt x="276" y="0" on="1"/>
      </contour>
    </TTGlyph>
    <TTGlyph name="lacute" xMin="134" yMin="0" xMax="558" yMax="1874">
      <component glyphName="glyph00365" x="134" y="0" flags="0x0"/>
      <component glyphName="l" x="0" y="0" flags="0x1004"/>
      <component glyphName="acute" x="109" y="382" flags="0x1004"/>
    </TTGlyph>
    <TTGlyph name="lcaron" xMin="134" yMin="0" xMax="617" yMax="1474">
      <component glyphName="glyph00365" x="134" y="0" flags="0x0"/>
      <component glyphName="comma" x="317" y="1255" flags="0x1004"/>
      <component glyphName="l" x="0" y="0" flags="0x1004"/>
    </TTGlyph>
    <TTGlyph name="lcommaaccent" xMin="101" yMin="-573" xMax="301" yMax="1474">
      <component glyphName="glyph00365" x="101" y="0" flags="0x0"/>
      <component glyphName="l" x="0" y="0" flags="0x1004"/>
      <component glyphName="glyph00363" x="1" y="0" flags="0x1004"/>
    </TTGlyph>
    <TTGlyph name="ldot" xMin="134" yMin="0" xMax="712" yMax="1474">
      <component glyphName="glyph00365" x="134" y="0" flags="0x0"/>
      <component glyphName="periodcentered" x="413" y="0" flags="0x1004"/>
      <component glyphName="l" x="0" y="0" flags="0x1004"/>
    </TTGlyph>
    <TTGlyph name="less" xMin="49" yMin="103" xMax="998" yMax="950">
      <contour>
        <pt x="998" y="241" on="1"/>
        <pt x="998" y="103" on="1"/>
        <pt x="49" y="469" on="1"/>
        <pt x="49" y="595" on="1"/>
        <pt x="998" y="950" on="1"/>
        <pt x="998" y="798" on="1"/>
        <pt x="211" y="525" on="1"/>
      </contour>
    </TTGlyph>
    <TTGlyph name="logicalnot" xMin="135" yMin="335" xMax="889" yMax="756">
      <contour>
        <pt x="803" y="335" on="1"/>
        <pt x="889" y="335" on="1"/>
        <pt x="889" y="756" on="1"/>
        <pt x="135" y="756" on="1"/>
        <pt x="135" y="670" on="1"/>
        <pt x="803" y="670" on="1"/>
      </contour>
    </TTGlyph>
    <TTGlyph name="lslash" xMin="-26" yMin="-1" xMax="448" yMax="1474">
      <contour>
        <pt x="-26" y="652" on="1"/>
        <pt x="-26" y="787" on="1"/>
        <pt x="140" y="879" on="1"/>
        <pt x="140" y="1474" on="1"/>
        <pt x="283" y="1474" on="1"/>
        <pt x="283" y="949" on="1"/>
        <pt x="448" y="1034" on="1"/>
        <pt x="448" y="899" on="1"/>
        <pt x="283" y="814" on="1"/>
        <pt x="283" y="-1" on="1"/>
        <pt x="140" y="-1" on="1"/>
        <pt x="140" y="744" on="1"/>
      </contour>
    </TTGlyph>
    <TTGlyph name="m" xMin="126" yMin="0" xMax="1542" yMax="1044">
      <contour>
        <pt x="268" y="583" on="1"/>
        <pt x="268" y="0" on="1"/>
        <pt x="126" y="0" on="1"/>
        <pt x="126" y="1023" on="1"/>
        <pt x="263" y="1023" on="1"/>
        <pt x="267" y="861" on="1"/>
        <pt x="323" y="957" on="0"/>
        <pt x="495" y="1044" on="0"/>
        <pt x="593" y="1044" on="1"/>
        <pt x="707" y="1044" on="0"/>
        <pt x="851" y="932" on="0"/>
        <pt x="879" y="832" on="1"/>
        <pt x="930" y="939" on="0"/>
        <pt x="1117" y="1044" on="0"/>
        <pt x="1224" y="1044" on="1"/>
        <pt x="1306" y="1044" on="0"/>
        <pt x="1425" y="986" on="0"/>
        <pt x="1492" y="899" on="0"/>
        <pt x="1531" y="767" on="0"/>
        <pt x="1542" y="650" on="0"/>
        <pt x="1542" y="576" on="1"/>
        <pt x="1542" y="0" on="1"/>
        <pt x="1400" y="0" on="1"/>
        <pt x="1400" y="607" on="1"/>
        <pt x="1400" y="684" on="0"/>
        <pt x="1381" y="800" on="0"/>
        <pt x="1336" y="892" on="0"/>
        <pt x="1256" y="940" on="0"/>
        <pt x="1199" y="940" on="1"/>
        <pt x="1114" y="940" on="0"/>
        <pt x="976" y="836" on="0"/>
        <pt x="904" y="677" on="0"/>
        <pt x="904" y="591" on="1"/>
        <pt x="904" y="0" on="1"/>
        <pt x="762" y="0" on="1"/>
        <pt x="762" y="607" on="1"/>
        <pt x="762" y="768" on="0"/>
        <pt x="672" y="940" on="0"/>
        <pt x="563" y="940" on="1"/>
        <pt x="476" y="940" on="0"/>
        <pt x="338" y="833" on="0"/>
        <pt x="268" y="672" on="0"/>
      </contour>
    </TTGlyph>
    <TTGlyph name="macron" xMin="135" yMin="1219" xMax="589" yMax="1329">
      <contour>
        <pt x="135" y="1219" on="1"/>
        <pt x="135" y="1329" on="1"/>
        <pt x="589" y="1329" on="1"/>
        <pt x="589" y="1219" on="1"/>
      </contour>
    </TTGlyph>
    <TTGlyph name="minus" xMin="135" yMin="670" xMax="803" yMax="756">
      <contour>
        <pt x="803" y="670" on="1"/>
        <pt x="803" y="756" on="1"/>
        <pt x="135" y="756" on="1"/>
        <pt x="135" y="670" on="1"/>
      </contour>
    </TTGlyph>
    <TTGlyph name="mu" xMin="135" yMin="-224" xMax="984" yMax="1023">
      <contour>
        <pt x="842" y="1023" on="1"/>
        <pt x="984" y="1023" on="1"/>
        <pt x="984" y="0" on="1"/>
        <pt x="864" y="0" on="1"/>
        <pt x="843" y="159" on="1"/>
        <pt x="737" y="-27" on="0"/>
        <pt x="524" y="-27" on="1"/>
        <pt x="383" y="-27" on="0"/>
        <pt x="282" y="87" on="1"/>
        <pt x="282" y="-224" on="1"/>
        <pt x="135" y="-224" on="1"/>
        <pt x="135" y="1023" on="1"/>
        <pt x="282" y="1023" on="1"/>
        <pt x="282" y="436" on="1"/>
        <pt x="282" y="276" on="0"/>
        <pt x="398" y="87" on="0"/>
        <pt x="520" y="87" on="1"/>
        <pt x="595" y="87" on="0"/>
        <pt x="713" y="140" on="0"/>
        <pt x="782" y="218" on="0"/>
        <pt x="826" y="318" on="0"/>
        <pt x="842" y="400" on="0"/>
        <pt x="842" y="436" on="1"/>
      </contour>
    </TTGlyph>
    <TTGlyph name="multiply" xMin="119" yMin="202" xMax="615" yMax="698">
      <contour>
        <pt x="190" y="203" on="1"/>
        <pt x="120" y="273" on="1"/>
        <pt x="296" y="449" on="1"/>
        <pt x="119" y="626" on="1"/>
        <pt x="191" y="698" on="1"/>
        <pt x="368" y="521" on="1"/>
        <pt x="544" y="697" on="1"/>
        <pt x="614" y="627" on="1"/>
        <pt x="438" y="451" on="1"/>
        <pt x="615" y="274" on="1"/>
        <pt x="543" y="202" on="1"/>
        <pt x="366" y="379" on="1"/>
      </contour>
    </TTGlyph>
    <TTGlyph name="n" xMin="127" yMin="0" xMax="965" yMax="1044">
      <contour>
        <pt x="127" y="0" on="1"/>
        <pt x="127" y="1023" on="1"/>
        <pt x="265" y="1023" on="1"/>
        <pt x="265" y="1011" on="0"/>
        <pt x="265" y="971" on="0"/>
        <pt x="265" y="886" on="0"/>
        <pt x="265" y="858" on="1"/>
        <pt x="265" y="830" on="1"/>
        <pt x="284" y="885" on="0"/>
        <pt x="364" y="970" on="0"/>
        <pt x="465" y="1019" on="0"/>
        <pt x="571" y="1044" on="0"/>
        <pt x="623" y="1044" on="1"/>
        <pt x="682" y="1044" on="0"/>
        <pt x="779" y="1022" on="0"/>
        <pt x="847" y="979" on="0"/>
        <pt x="899" y="928" on="0"/>
        <pt x="931" y="854" on="0"/>
        <pt x="952" y="787" on="0"/>
        <pt x="962" y="697" on="0"/>
        <pt x="965" y="629" on="0"/>
        <pt x="965" y="584" on="1"/>
        <pt x="965" y="0" on="1"/>
        <pt x="823" y="0" on="1"/>
        <pt x="823" y="603" on="1"/>
        <pt x="823" y="667" on="0"/>
        <pt x="812" y="763" on="0"/>
        <pt x="782" y="847" on="0"/>
        <pt x="733" y="900" on="0"/>
        <pt x="656" y="930" on="0"/>
        <pt x="603" y="930" on="1"/>
        <pt x="526" y="930" on="0"/>
        <pt x="409" y="886" on="0"/>
        <pt x="334" y="810" on="0"/>
        <pt x="288" y="698" on="0"/>
        <pt x="269" y="575" on="0"/>
        <pt x="269" y="499" on="1"/>
        <pt x="269" y="0" on="1"/>
      </contour>
    </TTGlyph>
    <TTGlyph name="nacute" xMin="127" yMin="0" xMax="965" yMax="1492">
      <component glyphName="glyph00365" x="127" y="0" flags="0x0"/>
      <component glyphName="acute" x="416" y="0" flags="0x1004"/>
      <component glyphName="n" x="0" y="0" flags="0x1004"/>
    </TTGlyph>
    <TTGlyph name="ncaron" xMin="127" yMin="0" xMax="965" yMax="1492">
      <component glyphName="glyph00365" x="127" y="0" flags="0x0"/>
      <component glyphName="caron" x="180" y="0" flags="0x1004"/>
      <component glyphName="n" x="0" y="0" flags="0x1004"/>
    </TTGlyph>
    <TTGlyph name="ncommaaccent" xMin="127" yMin="-573" xMax="965" yMax="1044">
      <component glyphName="glyph00365" x="127" y="0" flags="0x0"/>
      <component glyphName="glyph00363" x="352" y="0" flags="0x1004"/>
      <component glyphName="n" x="0" y="0" flags="0x1004"/>
    </TTGlyph>
    <TTGlyph name="nine" xMin="119" yMin="-19" xMax="1073" yMax="1492">
      <contour>
        <pt x="912" y="643" on="1"/>
        <pt x="861" y="605" on="0"/>
        <pt x="756" y="553" on="0"/>
        <pt x="646" y="525" on="0"/>
        <pt x="591" y="525" on="1"/>
        <pt x="495" y="525" on="0"/>
        <pt x="326" y="585" on="0"/>
        <pt x="195" y="697" on="0"/>
        <pt x="119" y="876" on="0"/>
        <pt x="119" y="987" on="1"/>
        <pt x="119" y="1051" on="0"/>
        <pt x="143" y="1172" on="0"/>
        <pt x="190" y="1286" on="0"/>
        <pt x="268" y="1381" on="0"/>
        <pt x="369" y="1452" on="0"/>
        <pt x="506" y="1492" on="0"/>
        <pt x="587" y="1492" on="1"/>
        <pt x="835" y="1492" on="0"/>
        <pt x="1073" y="1127" on="0"/>
        <pt x="1073" y="771" on="1"/>
        <pt x="1073" y="581" on="0"/>
        <pt x="997" y="280" on="0"/>
        <pt x="860" y="84" on="0"/>
        <pt x="670" y="-19" on="0"/>
        <pt x="555" y="-19" on="1"/>
        <pt x="404" y="-19" on="0"/>
        <pt x="227" y="75" on="1"/>
        <pt x="268" y="186" on="1"/>
        <pt x="427" y="99" on="0"/>
        <pt x="550" y="99" on="1"/>
        <pt x="707" y="99" on="0"/>
        <pt x="896" y="375" on="0"/>
      </contour>
      <contour>
        <pt x="918" y="773" on="1"/>
        <pt x="919" y="797" on="0"/>
        <pt x="919" y="864" on="1"/>
        <pt x="919" y="931" on="0"/>
        <pt x="906" y="1050" on="0"/>
        <pt x="876" y="1168" on="0"/>
        <pt x="823" y="1261" on="0"/>
        <pt x="750" y="1334" on="0"/>
        <pt x="643" y="1374" on="0"/>
        <pt x="578" y="1374" on="1"/>
        <pt x="515" y="1374" on="0"/>
        <pt x="404" y="1322" on="0"/>
        <pt x="319" y="1226" on="0"/>
        <pt x="270" y="1079" on="0"/>
        <pt x="270" y="991" on="1"/>
        <pt x="270" y="899" on="0"/>
        <pt x="320" y="762" on="0"/>
        <pt x="410" y="682" on="0"/>
        <pt x="524" y="644" on="0"/>
        <pt x="593" y="644" on="1"/>
        <pt x="670" y="644" on="0"/>
        <pt x="842" y="714" on="0"/>
      </contour>
    </TTGlyph>
    <TTGlyph name="ntilde" xMin="127" yMin="0" xMax="965" yMax="1395">
      <component glyphName="glyph00365" x="127" y="0" flags="0x0"/>
      <component glyphName="tilde" x="173" y="0" flags="0x1004"/>
      <component glyphName="n" x="0" y="0" flags="0x1004"/>
    </TTGlyph>
    <TTGlyph name="numbersign" xMin="51" yMin="0" xMax="1175" yMax="1464">
      <contour>
        <pt x="278" y="1" on="1"/>
        <pt x="144" y="0" on="1"/>
        <pt x="255" y="551" on="1"/>
        <pt x="51" y="551" on="1"/>
        <pt x="80" y="649" on="1"/>
        <pt x="275" y="649" on="1"/>
        <pt x="326" y="901" on="1"/>
        <pt x="120" y="901" on="1"/>
        <pt x="149" y="999" on="1"/>
        <pt x="346" y="999" on="1"/>
        <pt x="440" y="1463" on="1"/>
        <pt x="579" y="1464" on="1"/>
        <pt x="483" y="999" on="1"/>
        <pt x="808" y="999" on="1"/>
        <pt x="902" y="1463" on="1"/>
        <pt x="1041" y="1464" on="1"/>
        <pt x="945" y="999" on="1"/>
        <pt x="1175" y="999" on="1"/>
        <pt x="1146" y="901" on="1"/>
        <pt x="925" y="901" on="1"/>
        <pt x="873" y="649" on="1"/>
        <pt x="1106" y="649" on="1"/>
        <pt x="1077" y="551" on="1"/>
        <pt x="853" y="551" on="1"/>
        <pt x="740" y="1" on="1"/>
        <pt x="606" y="0" on="1"/>
        <pt x="717" y="551" on="1"/>
        <pt x="391" y="551" on="1"/>
      </contour>
      <contour>
        <pt x="463" y="901" on="1"/>
        <pt x="411" y="649" on="1"/>
        <pt x="737" y="649" on="1"/>
        <pt x="788" y="901" on="1"/>
      </contour>
    </TTGlyph>
    <TTGlyph name="o" xMin="92" yMin="-24" xMax="972" yMax="1044">
      <contour>
        <pt x="533" y="1044" on="1"/>
        <pt x="730" y="1044" on="0"/>
        <pt x="972" y="773" on="0"/>
        <pt x="972" y="513" on="1"/>
        <pt x="972" y="255" on="0"/>
        <pt x="735" y="-24" on="0"/>
        <pt x="329" y="-24" on="0"/>
        <pt x="92" y="253" on="0"/>
        <pt x="92" y="510" on="1"/>
        <pt x="92" y="772" on="0"/>
        <pt x="334" y="1044" on="0"/>
      </contour>
      <contour>
        <pt x="532" y="940" on="1"/>
        <pt x="448" y="940" on="0"/>
        <pt x="328" y="867" on="0"/>
        <pt x="265" y="739" on="0"/>
        <pt x="237" y="597" on="0"/>
        <pt x="237" y="513" on="1"/>
        <pt x="237" y="446" on="0"/>
        <pt x="253" y="328" on="0"/>
        <pt x="295" y="213" on="0"/>
        <pt x="360" y="131" on="0"/>
        <pt x="465" y="81" on="0"/>
        <pt x="533" y="81" on="1"/>
        <pt x="600" y="81" on="0"/>
        <pt x="705" y="131" on="0"/>
        <pt x="770" y="212" on="0"/>
        <pt x="812" y="326" on="0"/>
        <pt x="828" y="444" on="0"/>
        <pt x="828" y="511" on="1"/>
        <pt x="828" y="577" on="0"/>
        <pt x="811" y="695" on="0"/>
        <pt x="769" y="809" on="0"/>
        <pt x="704" y="890" on="0"/>
        <pt x="599" y="940" on="0"/>
      </contour>
    </TTGlyph>
    <TTGlyph name="oacute" xMin="92" yMin="-24" xMax="972" yMax="1492">
      <component glyphName="glyph00365" x="92" y="0" flags="0x0"/>
      <component glyphName="acute" x="346" y="0" flags="0x1004"/>
      <component glyphName="o" x="0" y="0" flags="0x1004"/>
    </TTGlyph>
    <TTGlyph name="obreve" xMin="92" yMin="-24" xMax="972" yMax="1438">
      <component glyphName="glyph00365" x="92" y="0" flags="0x0"/>
      <component glyphName="breve" x="130" y="0" flags="0x1004"/>
      <component glyphName="o" x="0" y="0" flags="0x1004"/>
    </TTGlyph>
    <TTGlyph name="ocircumflex" xMin="92" yMin="-24" xMax="972" yMax="1492">
      <component glyphName="glyph00365" x="92" y="0" flags="0x0"/>
      <component glyphName="circumflex" x="114" y="0" flags="0x1004"/>
      <component glyphName="o" x="0" y="0" flags="0x1004"/>
    </TTGlyph>
    <TTGlyph name="odieresis" xMin="92" yMin="-24" xMax="972" yMax="1365">
      <component glyphName="glyph00365" x="92" y="0" flags="0x0"/>
      <component glyphName="dieresis" x="125" y="0" flags="0x1004"/>
      <component glyphName="o" x="0" y="0" flags="0x1004"/>
    </TTGlyph>
    <TTGlyph name="oe" xMin="156" yMin="-24" xMax="1726" yMax="1044">
      <contour>
        <pt x="884" y="510" on="1"/>
        <pt x="884" y="595" on="0"/>
        <pt x="856" y="739" on="0"/>
        <pt x="793" y="867" on="0"/>
        <pt x="674" y="940" on="0"/>
        <pt x="591" y="940" on="1"/>
        <pt x="524" y="940" on="0"/>
        <pt x="419" y="890" on="0"/>
        <pt x="355" y="809" on="0"/>
        <pt x="315" y="694" on="0"/>
        <pt x="299" y="578" on="0"/>
        <pt x="299" y="512" on="1"/>
        <pt x="299" y="427" on="0"/>
        <pt x="326" y="283" on="0"/>
        <pt x="389" y="154" on="0"/>
        <pt x="508" y="80" on="0"/>
        <pt x="592" y="80" on="1"/>
        <pt x="675" y="80" on="0"/>
        <pt x="794" y="153" on="0"/>
        <pt x="857" y="281" on="0"/>
        <pt x="884" y="424" on="0"/>
      </contour>
      <contour>
        <pt x="1315" y="942" on="1"/>
        <pt x="1183" y="942" on="0"/>
        <pt x="1036" y="749" on="0"/>
        <pt x="1028" y="592" on="1"/>
        <pt x="1589" y="592" on="1"/>
        <pt x="1587" y="757" on="0"/>
        <pt x="1453" y="942" on="0"/>
      </contour>
      <contour>
        <pt x="1319" y="1044" on="1"/>
        <pt x="1456" y="1044" on="0"/>
        <pt x="1643" y="911" on="0"/>
        <pt x="1726" y="698" on="0"/>
        <pt x="1726" y="558" on="1"/>
        <pt x="1726" y="555" on="0"/>
        <pt x="1723" y="509" on="0"/>
        <pt x="1722" y="500" on="1"/>
        <pt x="1026" y="500" on="1"/>
        <pt x="1026" y="433" on="0"/>
        <pt x="1044" y="317" on="0"/>
        <pt x="1087" y="206" on="0"/>
        <pt x="1155" y="127" on="0"/>
        <pt x="1262" y="80" on="0"/>
        <pt x="1330" y="80" on="1"/>
        <pt x="1434" y="80" on="0"/>
        <pt x="1570" y="215" on="0"/>
        <pt x="1608" y="317" on="1"/>
        <pt x="1704" y="276" on="1"/>
        <pt x="1666" y="133" on="0"/>
        <pt x="1463" y="-22" on="0"/>
        <pt x="1332" y="-24" on="1"/>
        <pt x="1067" y="-24" on="0"/>
        <pt x="957" y="199" on="1"/>
        <pt x="904" y="89" on="0"/>
        <pt x="715" y="-24" on="0"/>
        <pt x="591" y="-24" on="1"/>
        <pt x="390" y="-24" on="0"/>
        <pt x="156" y="254" on="0"/>
        <pt x="156" y="511" on="1"/>
        <pt x="156" y="773" on="0"/>
        <pt x="395" y="1044" on="0"/>
        <pt x="593" y="1044" on="1"/>
        <pt x="714" y="1044" on="0"/>
        <pt x="905" y="930" on="0"/>
        <pt x="959" y="819" on="1"/>
        <pt x="1012" y="927" on="0"/>
        <pt x="1196" y="1044" on="0"/>
      </contour>
      <contour>
        <pt x="939" y="1023" on="1"/>
      </contour>
    </TTGlyph>
    <TTGlyph name="ogonek" xMin="117" yMin="-369" xMax="346" yMax="0">
      <contour>
        <pt x="315" y="0" on="1"/>
        <pt x="312" y="-6" on="0"/>
        <pt x="295" y="-43" on="0"/>
        <pt x="288" y="-59" on="0"/>
        <pt x="272" y="-94" on="0"/>
        <pt x="265" y="-113" on="0"/>
        <pt x="253" y="-143" on="0"/>
        <pt x="247" y="-164" on="0"/>
        <pt x="241" y="-189" on="0"/>
        <pt x="238" y="-210" on="0"/>
        <pt x="238" y="-219" on="1"/>
        <pt x="238" y="-283" on="0"/>
        <pt x="311" y="-283" on="1"/>
        <pt x="324" y="-283" on="0"/>
        <pt x="346" y="-278" on="1"/>
        <pt x="346" y="-361" on="1"/>
        <pt x="314" y="-369" on="0"/>
        <pt x="281" y="-369" on="1"/>
        <pt x="205" y="-369" on="0"/>
        <pt x="117" y="-295" on="0"/>
        <pt x="117" y="-241" on="1"/>
        <pt x="117" y="-179" on="0"/>
        <pt x="204" y="-29" on="0"/>
        <pt x="244" y="0" on="1"/>
      </contour>
    </TTGlyph>
    <TTGlyph name="ograve" xMin="92" yMin="-24" xMax="972" yMax="1492">
      <component glyphName="glyph00365" x="92" y="0" flags="0x0"/>
      <component glyphName="grave" x="216" y="0" flags="0x1004"/>
      <component glyphName="o" x="0" y="0" flags="0x1004"/>
    </TTGlyph>
    <TTGlyph name="ohungarumlaut" xMin="92" yMin="-24" xMax="972" yMax="1492">
      <component glyphName="glyph00365" x="92" y="0" flags="0x0"/>
      <component glyphName="hungarumlaut" x="229" y="0" flags="0x1004"/>
      <component glyphName="o" x="0" y="0" flags="0x1004"/>
    </TTGlyph>
    <TTGlyph name="omacron" xMin="92" yMin="-24" xMax="972" yMax="1329">
      <component glyphName="glyph00365" x="92" y="0" flags="0x0"/>
      <component glyphName="macron" x="170" y="0" flags="0x1004"/>
      <component glyphName="o" x="0" y="0" flags="0x1004"/>
    </TTGlyph>
    <TTGlyph name="one" xMin="58" yMin="0" xMax="434" yMax="1464">
      <contour>
        <pt x="288" y="1328" on="1"/>
        <pt x="288" y="0" on="1"/>
        <pt x="434" y="0" on="1"/>
        <pt x="434" y="1464" on="1"/>
        <pt x="305" y="1464" on="1"/>
        <pt x="58" y="1364" on="1"/>
        <pt x="102" y="1248" on="1"/>
      </contour>
    </TTGlyph>
    <TTGlyph name="onehalf" xMin="8" yMin="-14" xMax="1321" yMax="1481">
      <contour>
        <pt x="86" y="-14" on="1"/>
        <pt x="1321" y="1415" on="1"/>
        <pt x="1244" y="1481" on="1"/>
        <pt x="8" y="52" on="1"/>
      </contour>
      <contour>
        <pt x="302" y="1365" on="1"/>
        <pt x="302" y="769" on="1"/>
        <pt x="415" y="769" on="1"/>
        <pt x="415" y="1464" on="1"/>
        <pt x="312" y="1464" on="1"/>
        <pt x="164" y="1397" on="1"/>
        <pt x="185" y="1307" on="1"/>
      </contour>
      <contour>
        <pt x="1231" y="0" on="1"/>
        <pt x="1231" y="80" on="1"/>
        <pt x="901" y="80" on="1"/>
        <pt x="925" y="121" on="0"/>
        <pt x="1014" y="201" on="0"/>
        <pt x="1099" y="263" on="0"/>
        <pt x="1179" y="336" on="0"/>
        <pt x="1229" y="436" on="0"/>
        <pt x="1229" y="497" on="1"/>
        <pt x="1229" y="598" on="0"/>
        <pt x="1086" y="712" on="0"/>
        <pt x="990" y="712" on="1"/>
        <pt x="905" y="712" on="0"/>
        <pt x="766" y="623" on="0"/>
        <pt x="735" y="537" on="1"/>
        <pt x="742" y="534" on="0"/>
        <pt x="787" y="512" on="0"/>
        <pt x="806" y="502" on="1"/>
        <pt x="825" y="492" on="1"/>
        <pt x="838" y="551" on="0"/>
        <pt x="932" y="617" on="0"/>
        <pt x="989" y="617" on="1"/>
        <pt x="1044" y="617" on="0"/>
        <pt x="1121" y="551" on="0"/>
        <pt x="1121" y="490" on="1"/>
        <pt x="1121" y="487" on="1"/>
        <pt x="1121" y="452" on="0"/>
        <pt x="1068" y="376" on="0"/>
        <pt x="988" y="311" on="0"/>
        <pt x="894" y="231" on="0"/>
        <pt x="813" y="155" on="0"/>
        <pt x="758" y="53" on="0"/>
        <pt x="756" y="0" on="1"/>
      </contour>
    </TTGlyph>
    <TTGlyph name="onequarter" xMin="68" yMin="-14" xMax="1381" yMax="1481">
      <contour>
        <pt x="68" y="52" on="1"/>
        <pt x="146" y="-14" on="1"/>
        <pt x="1381" y="1415" on="1"/>
        <pt x="1304" y="1481" on="1"/>
      </contour>
      <contour>
        <pt x="302" y="1365" on="1"/>
        <pt x="302" y="769" on="1"/>
        <pt x="415" y="769" on="1"/>
        <pt x="415" y="1464" on="1"/>
        <pt x="312" y="1464" on="1"/>
        <pt x="164" y="1397" on="1"/>
        <pt x="185" y="1307" on="1"/>
      </contour>
      <contour>
        <pt x="707" y="152" on="1"/>
        <pt x="1058" y="152" on="1"/>
        <pt x="1058" y="0" on="1"/>
        <pt x="1173" y="0" on="1"/>
        <pt x="1173" y="152" on="1"/>
        <pt x="1273" y="152" on="1"/>
        <pt x="1273" y="234" on="1"/>
        <pt x="1173" y="234" on="1"/>
        <pt x="1173" y="693" on="1"/>
        <pt x="1027" y="693" on="1"/>
        <pt x="707" y="220" on="1"/>
      </contour>
      <contour>
        <pt x="1058" y="234" on="1"/>
        <pt x="821" y="234" on="1"/>
        <pt x="1058" y="585" on="1"/>
      </contour>
    </TTGlyph>
    <TTGlyph name="ordfeminine" xMin="152" yMin="-20" xMax="794" yMax="871">
      <contour>
        <pt x="671" y="192" on="1"/>
        <pt x="532" y="68" on="0"/>
        <pt x="396" y="68" on="1"/>
        <pt x="269" y="68" on="0"/>
        <pt x="269" y="229" on="1"/>
        <pt x="269" y="303" on="0"/>
        <pt x="423" y="379" on="0"/>
        <pt x="595" y="406" on="1"/>
        <pt x="671" y="419" on="1"/>
      </contour>
      <contour>
        <pt x="676" y="97" on="1"/>
        <pt x="690" y="0" on="1"/>
        <pt x="794" y="0" on="1"/>
        <pt x="794" y="544" on="1"/>
        <pt x="794" y="706" on="0"/>
        <pt x="639" y="871" on="0"/>
        <pt x="492" y="871" on="1"/>
        <pt x="416" y="871" on="0"/>
        <pt x="236" y="796" on="0"/>
        <pt x="182" y="737" on="1"/>
        <pt x="260" y="667" on="0"/>
        <pt x="260" y="666" on="1"/>
        <pt x="306" y="711" on="0"/>
        <pt x="432" y="770" on="0"/>
        <pt x="494" y="770" on="1"/>
        <pt x="572" y="770" on="0"/>
        <pt x="671" y="675" on="0"/>
        <pt x="671" y="573" on="1"/>
        <pt x="671" y="507" on="1"/>
        <pt x="594" y="495" on="1"/>
        <pt x="546" y="487" on="0"/>
        <pt x="484" y="476" on="0"/>
        <pt x="399" y="457" on="0"/>
        <pt x="345" y="440" on="0"/>
        <pt x="277" y="413" on="0"/>
        <pt x="236" y="384" on="0"/>
        <pt x="192" y="343" on="0"/>
        <pt x="167" y="296" on="0"/>
        <pt x="152" y="236" on="0"/>
        <pt x="152" y="201" on="1"/>
        <pt x="152" y="95" on="0"/>
        <pt x="292" y="-20" on="0"/>
        <pt x="393" y="-20" on="1"/>
        <pt x="544" y="-20" on="0"/>
      </contour>
    </TTGlyph>
    <TTGlyph name="ordmasculine" xMin="123" yMin="-20" xMax="877" yMax="871">
      <contour>
        <pt x="123" y="425" on="1"/>
        <pt x="123" y="212" on="0"/>
        <pt x="330" y="-20" on="0"/>
        <pt x="670" y="-20" on="0"/>
        <pt x="877" y="214" on="0"/>
        <pt x="877" y="428" on="1"/>
        <pt x="877" y="644" on="0"/>
        <pt x="666" y="871" on="0"/>
        <pt x="501" y="871" on="1"/>
        <pt x="334" y="871" on="0"/>
        <pt x="123" y="642" on="0"/>
      </contour>
      <contour>
        <pt x="501" y="79" on="1"/>
        <pt x="437" y="79" on="0"/>
        <pt x="340" y="138" on="0"/>
        <pt x="283" y="238" on="0"/>
        <pt x="254" y="360" on="0"/>
        <pt x="254" y="428" on="1"/>
        <pt x="254" y="495" on="0"/>
        <pt x="282" y="615" on="0"/>
        <pt x="339" y="715" on="0"/>
        <pt x="437" y="773" on="0"/>
        <pt x="500" y="773" on="1"/>
        <pt x="583" y="773" on="0"/>
        <pt x="698" y="670" on="0"/>
        <pt x="747" y="518" on="0"/>
        <pt x="747" y="426" on="1"/>
        <pt x="747" y="358" on="0"/>
        <pt x="718" y="237" on="0"/>
        <pt x="661" y="137" on="0"/>
        <pt x="563" y="79" on="0"/>
      </contour>
    </TTGlyph>
    <TTGlyph name="oslash" xMin="92" yMin="-197" xMax="972" yMax="1216">
      <contour>
        <pt x="532" y="940" on="1"/>
        <pt x="621" y="940" on="0"/>
        <pt x="683" y="898" on="1"/>
        <pt x="334" y="164" on="1"/>
        <pt x="237" y="273" on="0"/>
        <pt x="237" y="513" on="1"/>
        <pt x="237" y="597" on="0"/>
        <pt x="265" y="739" on="0"/>
        <pt x="328" y="867" on="0"/>
        <pt x="448" y="940" on="0"/>
      </contour>
      <contour>
        <pt x="533" y="81" on="1"/>
        <pt x="457" y="81" on="0"/>
        <pt x="400" y="112" on="1"/>
        <pt x="745" y="838" on="1"/>
        <pt x="828" y="727" on="0"/>
        <pt x="828" y="511" on="1"/>
        <pt x="828" y="444" on="0"/>
        <pt x="812" y="326" on="0"/>
        <pt x="770" y="212" on="0"/>
        <pt x="705" y="131" on="0"/>
        <pt x="600" y="81" on="0"/>
      </contour>
      <contour>
        <pt x="972" y="513" on="1"/>
        <pt x="972" y="818" on="0"/>
        <pt x="801" y="956" on="1"/>
        <pt x="906" y="1178" on="1"/>
        <pt x="834" y="1216" on="1"/>
        <pt x="732" y="1001" on="1"/>
        <pt x="645" y="1044" on="0"/>
        <pt x="533" y="1044" on="1"/>
        <pt x="334" y="1044" on="0"/>
        <pt x="92" y="772" on="0"/>
        <pt x="92" y="510" on="1"/>
        <pt x="92" y="187" on="0"/>
        <pt x="280" y="50" on="1"/>
        <pt x="181" y="-159" on="1"/>
        <pt x="254" y="-197" on="1"/>
        <pt x="352" y="10" on="1"/>
        <pt x="432" y="-24" on="0"/>
        <pt x="532" y="-24" on="1"/>
        <pt x="735" y="-24" on="0"/>
        <pt x="972" y="255" on="0"/>
      </contour>
    </TTGlyph>
    <TTGlyph name="otilde" xMin="92" yMin="-24" xMax="972" yMax="1395">
      <component glyphName="glyph00365" x="92" y="0" flags="0x0"/>
      <component glyphName="tilde" x="113" y="0" flags="0x1004"/>
      <component glyphName="o" x="0" y="0" flags="0x1004"/>
    </TTGlyph>
    <TTGlyph name="p" xMin="131" yMin="-350" xMax="969" yMax="1044">
      <contour>
        <pt x="825" y="521" on="1"/>
        <pt x="825" y="313" on="0"/>
        <pt x="683" y="81" on="0"/>
        <pt x="559" y="81" on="1"/>
        <pt x="270" y="81" on="0"/>
        <pt x="270" y="519" on="1"/>
        <pt x="270" y="592" on="0"/>
        <pt x="281" y="703" on="0"/>
        <pt x="317" y="818" on="0"/>
        <pt x="378" y="893" on="0"/>
        <pt x="485" y="940" on="0"/>
        <pt x="558" y="940" on="1"/>
        <pt x="682" y="940" on="0"/>
        <pt x="825" y="709" on="0"/>
      </contour>
      <contour>
        <pt x="253" y="1023" on="1"/>
        <pt x="131" y="1023" on="1"/>
        <pt x="131" y="-350" on="1"/>
        <pt x="273" y="-350" on="1"/>
        <pt x="273" y="21" on="1"/>
        <pt x="273" y="154" on="1"/>
        <pt x="317" y="68" on="0"/>
        <pt x="476" y="-24" on="0"/>
        <pt x="580" y="-24" on="1"/>
        <pt x="709" y="-23" on="0"/>
        <pt x="887" y="125" on="0"/>
        <pt x="969" y="364" on="0"/>
        <pt x="969" y="520" on="1"/>
        <pt x="969" y="632" on="0"/>
        <pt x="922" y="819" on="0"/>
        <pt x="828" y="963" on="0"/>
        <pt x="673" y="1044" on="0"/>
        <pt x="573" y="1044" on="1"/>
        <pt x="362" y="1044" on="0"/>
        <pt x="263" y="858" on="1"/>
      </contour>
    </TTGlyph>
    <TTGlyph name="paragraph" xMin="87" yMin="0" xMax="994" yMax="1464">
      <contour>
        <pt x="465" y="0" on="1"/>
        <pt x="465" y="799" on="1"/>
        <pt x="303" y="799" on="0"/>
        <pt x="87" y="989" on="0"/>
        <pt x="87" y="1135" on="1"/>
        <pt x="87" y="1192" on="0"/>
        <pt x="114" y="1284" on="0"/>
        <pt x="187" y="1371" on="0"/>
        <pt x="305" y="1429" on="0"/>
        <pt x="498" y="1464" on="0"/>
        <pt x="626" y="1464" on="1"/>
        <pt x="994" y="1464" on="1"/>
        <pt x="994" y="1349" on="1"/>
        <pt x="824" y="1349" on="1"/>
        <pt x="824" y="0" on="1"/>
        <pt x="698" y="0" on="1"/>
        <pt x="698" y="799" on="1"/>
        <pt x="595" y="799" on="1"/>
        <pt x="595" y="0" on="1"/>
      </contour>
    </TTGlyph>
    <TTGlyph name="parenleft" xMin="34" yMin="-180" xMax="560" yMax="1587">
      <contour>
        <pt x="523" y="1587" on="1"/>
        <pt x="560" y="1482" on="1"/>
        <pt x="185" y="1376" on="0"/>
        <pt x="185" y="703" on="1"/>
        <pt x="185" y="27" on="0"/>
        <pt x="560" y="-73" on="1"/>
        <pt x="523" y="-180" on="1"/>
        <pt x="294" y="-125" on="0"/>
        <pt x="34" y="313" on="0"/>
        <pt x="34" y="1093" on="0"/>
        <pt x="295" y="1533" on="0"/>
      </contour>
    </TTGlyph>
    <TTGlyph name="parenright" xMin="42" yMin="-180" xMax="568" yMax="1587">
      <contour>
        <pt x="79" y="-180" on="1"/>
        <pt x="42" y="-75" on="1"/>
        <pt x="417" y="31" on="0"/>
        <pt x="417" y="704" on="1"/>
        <pt x="417" y="1380" on="0"/>
        <pt x="42" y="1480" on="1"/>
        <pt x="79" y="1587" on="1"/>
        <pt x="308" y="1532" on="0"/>
        <pt x="568" y="1094" on="0"/>
        <pt x="568" y="314" on="0"/>
        <pt x="307" y="-126" on="0"/>
      </contour>
    </TTGlyph>
    <TTGlyph name="percent" xMin="50" yMin="-14" xMax="1628" yMax="1481">
      <contour>
        <pt x="268" y="-14" on="1"/>
        <pt x="1503" y="1415" on="1"/>
        <pt x="1426" y="1481" on="1"/>
        <pt x="190" y="52" on="1"/>
      </contour>
      <contour>
        <pt x="357" y="1466" on="1"/>
        <pt x="453" y="1466" on="0"/>
        <pt x="594" y="1363" on="0"/>
        <pt x="660" y="1209" on="0"/>
        <pt x="660" y="1120" on="1"/>
        <pt x="660" y="1030" on="0"/>
        <pt x="594" y="876" on="0"/>
        <pt x="453" y="774" on="0"/>
        <pt x="357" y="774" on="1"/>
        <pt x="212" y="774" on="0"/>
        <pt x="50" y="978" on="0"/>
        <pt x="50" y="1118" on="1"/>
        <pt x="50" y="1208" on="0"/>
        <pt x="117" y="1363" on="0"/>
        <pt x="260" y="1466" on="0"/>
      </contour>
      <contour>
        <pt x="357" y="1374" on="1"/>
        <pt x="264" y="1374" on="0"/>
        <pt x="161" y="1226" on="0"/>
        <pt x="161" y="1123" on="1"/>
        <pt x="161" y="1019" on="0"/>
        <pt x="265" y="868" on="0"/>
        <pt x="357" y="868" on="1"/>
        <pt x="447" y="868" on="0"/>
        <pt x="548" y="1019" on="0"/>
        <pt x="548" y="1122" on="1"/>
        <pt x="548" y="1187" on="0"/>
        <pt x="507" y="1299" on="0"/>
        <pt x="418" y="1374" on="0"/>
      </contour>
      <contour>
        <pt x="1325" y="692" on="1"/>
        <pt x="1421" y="692" on="0"/>
        <pt x="1563" y="589" on="0"/>
        <pt x="1628" y="435" on="0"/>
        <pt x="1628" y="346" on="1"/>
        <pt x="1628" y="256" on="0"/>
        <pt x="1563" y="102" on="0"/>
        <pt x="1422" y="0" on="0"/>
        <pt x="1325" y="0" on="1"/>
        <pt x="1227" y="0" on="0"/>
        <pt x="1084" y="102" on="0"/>
        <pt x="1019" y="254" on="0"/>
        <pt x="1019" y="344" on="1"/>
        <pt x="1019" y="410" on="0"/>
        <pt x="1058" y="533" on="0"/>
        <pt x="1132" y="632" on="0"/>
        <pt x="1252" y="692" on="0"/>
      </contour>
      <contour>
        <pt x="1325" y="599" on="1"/>
        <pt x="1232" y="599" on="0"/>
        <pt x="1129" y="451" on="0"/>
        <pt x="1129" y="349" on="1"/>
        <pt x="1129" y="283" on="0"/>
        <pt x="1172" y="169" on="0"/>
        <pt x="1263" y="93" on="0"/>
        <pt x="1325" y="93" on="1"/>
        <pt x="1415" y="93" on="0"/>
        <pt x="1517" y="245" on="0"/>
        <pt x="1517" y="348" on="1"/>
        <pt x="1517" y="413" on="0"/>
        <pt x="1476" y="524" on="0"/>
        <pt x="1386" y="599" on="0"/>
      </contour>
    </TTGlyph>
    <TTGlyph name="period" xMin="135" yMin="0" xMax="299" yMax="215">
      <contour>
        <pt x="135" y="215" on="1"/>
        <pt x="299" y="215" on="1"/>
        <pt x="299" y="0" on="1"/>
        <pt x="135" y="0" on="1"/>
      </contour>
    </TTGlyph>
    <TTGlyph name="periodcentered" xMin="135" yMin="543" xMax="299" yMax="758">
      <contour>
        <pt x="135" y="758" on="1"/>
        <pt x="299" y="758" on="1"/>
        <pt x="299" y="543" on="1"/>
        <pt x="135" y="543" on="1"/>
      </contour>
    </TTGlyph>
    <TTGlyph name="plus" xMin="72" yMin="350" xMax="778" yMax="1100">
      <contour>
        <pt x="72" y="673" on="1"/>
        <pt x="72" y="773" on="1"/>
        <pt x="376" y="773" on="1"/>
        <pt x="376" y="1100" on="1"/>
        <pt x="478" y="1100" on="1"/>
        <pt x="478" y="773" on="1"/>
        <pt x="778" y="773" on="1"/>
        <pt x="778" y="673" on="1"/>
        <pt x="478" y="673" on="1"/>
        <pt x="478" y="350" on="1"/>
        <pt x="376" y="350" on="1"/>
        <pt x="376" y="673" on="1"/>
      </contour>
    </TTGlyph>
    <TTGlyph name="plusminus" xMin="129" yMin="247" xMax="730" yMax="1023">
      <contour>
        <pt x="129" y="247" on="1"/>
        <pt x="129" y="333" on="1"/>
        <pt x="730" y="333" on="1"/>
        <pt x="730" y="247" on="1"/>
      </contour>
      <contour>
        <pt x="130" y="673" on="1"/>
        <pt x="130" y="773" on="1"/>
        <pt x="379" y="773" on="1"/>
        <pt x="379" y="1023" on="1"/>
        <pt x="481" y="1023" on="1"/>
        <pt x="481" y="773" on="1"/>
        <pt x="730" y="773" on="1"/>
        <pt x="730" y="673" on="1"/>
        <pt x="481" y="673" on="1"/>
        <pt x="481" y="423" on="1"/>
        <pt x="379" y="423" on="1"/>
        <pt x="379" y="673" on="1"/>
      </contour>
    </TTGlyph>
    <TTGlyph name="q" xMin="92" yMin="-350" xMax="929" yMax="1044">
      <contour>
        <pt x="481" y="1044" on="1"/>
        <pt x="716" y="1044" on="0"/>
        <pt x="797" y="862" on="1"/>
        <pt x="812" y="1023" on="1"/>
        <pt x="929" y="1023" on="1"/>
        <pt x="929" y="-350" on="1"/>
        <pt x="786" y="-350" on="1"/>
        <pt x="786" y="12" on="1"/>
        <pt x="786" y="155" on="1"/>
        <pt x="743" y="68" on="0"/>
        <pt x="585" y="-24" on="0"/>
        <pt x="479" y="-24" on="1"/>
        <pt x="353" y="-24" on="0"/>
        <pt x="175" y="121" on="0"/>
        <pt x="92" y="362" on="0"/>
        <pt x="92" y="518" on="1"/>
        <pt x="92" y="667" on="0"/>
        <pt x="175" y="900" on="0"/>
        <pt x="354" y="1044" on="0"/>
      </contour>
      <contour>
        <pt x="502" y="940" on="1"/>
        <pt x="379" y="940" on="0"/>
        <pt x="237" y="707" on="0"/>
        <pt x="237" y="522" on="1"/>
        <pt x="237" y="314" on="0"/>
        <pt x="376" y="81" on="0"/>
        <pt x="498" y="81" on="1"/>
        <pt x="788" y="81" on="0"/>
        <pt x="788" y="501" on="1"/>
        <pt x="788" y="578" on="0"/>
        <pt x="775" y="698" on="0"/>
        <pt x="738" y="815" on="0"/>
        <pt x="676" y="892" on="0"/>
        <pt x="572" y="940" on="0"/>
      </contour>
    </TTGlyph>
    <TTGlyph name="question" xMin="35" yMin="0" xMax="941" yMax="1491">
      <contour>
        <pt x="795" y="1089" on="1"/>
        <pt x="795" y="1019" on="0"/>
        <pt x="751" y="901" on="0"/>
        <pt x="665" y="785" on="0"/>
        <pt x="566" y="667" on="0"/>
        <pt x="426" y="469" on="0"/>
        <pt x="366" y="358" on="1"/>
        <pt x="515" y="358" on="1"/>
        <pt x="570" y="452" on="0"/>
        <pt x="707" y="634" on="0"/>
        <pt x="805" y="752" on="0"/>
        <pt x="895" y="879" on="0"/>
        <pt x="941" y="1015" on="0"/>
        <pt x="941" y="1094" on="1"/>
        <pt x="941" y="1169" on="0"/>
        <pt x="890" y="1306" on="0"/>
        <pt x="788" y="1422" on="0"/>
        <pt x="612" y="1491" on="0"/>
        <pt x="497" y="1491" on="1"/>
        <pt x="187" y="1491" on="0"/>
        <pt x="35" y="1250" on="1"/>
        <pt x="134" y="1177" on="1"/>
        <pt x="264" y="1380" on="0"/>
        <pt x="488" y="1380" on="1"/>
        <pt x="572" y="1380" on="0"/>
        <pt x="697" y="1330" on="0"/>
        <pt x="764" y="1243" on="0"/>
        <pt x="795" y="1145" on="0"/>
      </contour>
      <contour>
        <pt x="350" y="0" on="1"/>
        <pt x="514" y="0" on="1"/>
        <pt x="514" y="215" on="1"/>
        <pt x="350" y="215" on="1"/>
      </contour>
    </TTGlyph>
    <TTGlyph name="questiondown" xMin="127" yMin="-24" xMax="1033" yMax="1467">
      <component glyphName="glyph00365" x="127" y="0" flags="0x0"/>
      <component glyphName="question" x="1068" y="1467" scale="-1.0" flags="0x1004"/>
    </TTGlyph>
    <TTGlyph name="quotedbl" xMin="53" yMin="1000" xMax="457" yMax="1464">
      <contour>
        <pt x="457" y="1464" on="1"/>
        <pt x="406" y="1000" on="1"/>
        <pt x="355" y="1000" on="1"/>
        <pt x="303" y="1464" on="1"/>
      </contour>
      <contour>
        <pt x="53" y="1464" on="1"/>
        <pt x="207" y="1464" on="1"/>
        <pt x="156" y="1000" on="1"/>
        <pt x="105" y="1000" on="1"/>
      </contour>
    </TTGlyph>
    <TTGlyph name="quotedblbase" xMin="110" yMin="-382" xMax="628" yMax="93">
      <contour>
        <pt x="434" y="-81" on="1"/>
        <pt x="434" y="93" on="1"/>
        <pt x="628" y="93" on="1"/>
        <pt x="624" y="-77" on="0"/>
        <pt x="612" y="-144" on="1"/>
        <pt x="582" y="-301" on="0"/>
        <pt x="467" y="-382" on="1"/>
        <pt x="418" y="-319" on="1"/>
        <pt x="444" y="-295" on="0"/>
        <pt x="495" y="-179" on="0"/>
        <pt x="497" y="-99" on="1"/>
        <pt x="434" y="-82" on="0"/>
      </contour>
      <contour>
        <pt x="126" y="-81" on="1"/>
        <pt x="126" y="93" on="1"/>
        <pt x="320" y="93" on="1"/>
        <pt x="316" y="-77" on="0"/>
        <pt x="304" y="-144" on="1"/>
        <pt x="274" y="-301" on="0"/>
        <pt x="159" y="-382" on="1"/>
        <pt x="110" y="-319" on="1"/>
        <pt x="136" y="-295" on="0"/>
        <pt x="187" y="-179" on="0"/>
        <pt x="189" y="-99" on="1"/>
        <pt x="188" y="-99" on="0"/>
        <pt x="184" y="-98" on="0"/>
        <pt x="174" y="-95" on="0"/>
        <pt x="164" y="-92" on="0"/>
        <pt x="151" y="-89" on="0"/>
        <pt x="140" y="-86" on="0"/>
        <pt x="131" y="-83" on="0"/>
        <pt x="128" y="-82" on="1"/>
      </contour>
    </TTGlyph>
    <TTGlyph name="quotedblleft" xMin="30" yMin="995" xMax="530" yMax="1473">
      <contour>
        <pt x="459" y="1473" on="1"/>
        <pt x="508" y="1410" on="1"/>
        <pt x="480" y="1384" on="0"/>
        <pt x="429" y="1277" on="0"/>
        <pt x="427" y="1196" on="1"/>
        <pt x="530" y="1183" on="1"/>
        <pt x="530" y="995" on="1"/>
        <pt x="330" y="995" on="1"/>
        <pt x="330" y="1084" on="1"/>
        <pt x="330" y="1096" on="0"/>
        <pt x="332" y="1173" on="0"/>
        <pt x="334" y="1200" on="0"/>
        <pt x="338" y="1266" on="0"/>
        <pt x="346" y="1296" on="0"/>
        <pt x="358" y="1350" on="0"/>
        <pt x="377" y="1382" on="0"/>
        <pt x="402" y="1424" on="0"/>
        <pt x="437" y="1457" on="0"/>
      </contour>
      <contour>
        <pt x="165" y="1473" on="1"/>
        <pt x="214" y="1410" on="1"/>
        <pt x="186" y="1384" on="0"/>
        <pt x="135" y="1277" on="0"/>
        <pt x="133" y="1197" on="1"/>
        <pt x="230" y="1183" on="1"/>
        <pt x="230" y="995" on="1"/>
        <pt x="30" y="995" on="1"/>
        <pt x="30" y="1084" on="1"/>
        <pt x="30" y="1145" on="0"/>
        <pt x="32" y="1209" on="0"/>
        <pt x="46" y="1310" on="0"/>
        <pt x="73" y="1374" on="0"/>
        <pt x="126" y="1446" on="0"/>
      </contour>
    </TTGlyph>
    <TTGlyph name="quotedblright" xMin="100" yMin="991" xMax="601" yMax="1464">
      <contour>
        <pt x="401" y="1292" on="1"/>
        <pt x="401" y="1464" on="1"/>
        <pt x="601" y="1464" on="1"/>
        <pt x="601" y="1446" on="0"/>
        <pt x="599" y="1350" on="0"/>
        <pt x="597" y="1309" on="0"/>
        <pt x="590" y="1224" on="0"/>
        <pt x="579" y="1179" on="0"/>
        <pt x="558" y="1109" on="0"/>
        <pt x="527" y="1063" on="0"/>
        <pt x="482" y="1011" on="0"/>
        <pt x="453" y="991" on="1"/>
        <pt x="402" y="1054" on="1"/>
        <pt x="428" y="1076" on="0"/>
        <pt x="480" y="1193" on="0"/>
        <pt x="482" y="1273" on="1"/>
      </contour>
      <contour>
        <pt x="100" y="1292" on="1"/>
        <pt x="100" y="1464" on="1"/>
        <pt x="301" y="1464" on="1"/>
        <pt x="301" y="1442" on="0"/>
        <pt x="300" y="1335" on="0"/>
        <pt x="298" y="1284" on="0"/>
        <pt x="291" y="1194" on="0"/>
        <pt x="272" y="1139" on="0"/>
        <pt x="242" y="1069" on="0"/>
        <pt x="193" y="1015" on="0"/>
        <pt x="160" y="991" on="1"/>
        <pt x="110" y="1054" on="1"/>
        <pt x="136" y="1077" on="0"/>
        <pt x="188" y="1194" on="0"/>
        <pt x="190" y="1274" on="1"/>
        <pt x="168" y="1278" on="1"/>
        <pt x="145" y="1282" on="0"/>
        <pt x="122" y="1287" on="1"/>
      </contour>
    </TTGlyph>
    <TTGlyph name="quoteleft" xMin="30" yMin="992" xMax="230" yMax="1469">
      <contour>
        <pt x="145" y="1469" on="1"/>
        <pt x="145" y="1468" on="0"/>
        <pt x="213" y="1431" on="0"/>
        <pt x="214" y="1431" on="1"/>
        <pt x="166" y="1351" on="0"/>
        <pt x="136" y="1269" on="0"/>
        <pt x="136" y="1200" on="1"/>
        <pt x="230" y="1187" on="1"/>
        <pt x="230" y="992" on="1"/>
        <pt x="30" y="992" on="1"/>
        <pt x="30" y="1089" on="1"/>
        <pt x="30" y="1134" on="0"/>
        <pt x="30" y="1170" on="0"/>
        <pt x="34" y="1250" on="0"/>
        <pt x="42" y="1290" on="0"/>
        <pt x="59" y="1356" on="0"/>
        <pt x="83" y="1399" on="0"/>
        <pt x="121" y="1449" on="0"/>
      </contour>
    </TTGlyph>
    <TTGlyph name="quoteright" xMin="100" yMin="991" xMax="300" yMax="1464">
      <contour>
        <pt x="100" y="1292" on="1"/>
        <pt x="100" y="1464" on="1"/>
        <pt x="300" y="1464" on="1"/>
        <pt x="299" y="1441" on="0"/>
        <pt x="299" y="1336" on="0"/>
        <pt x="297" y="1284" on="0"/>
        <pt x="290" y="1195" on="0"/>
        <pt x="272" y="1139" on="0"/>
        <pt x="242" y="1069" on="0"/>
        <pt x="193" y="1015" on="0"/>
        <pt x="160" y="991" on="1"/>
        <pt x="111" y="1054" on="1"/>
        <pt x="137" y="1078" on="0"/>
        <pt x="188" y="1194" on="0"/>
        <pt x="190" y="1274" on="1"/>
        <pt x="168" y="1278" on="1"/>
        <pt x="145" y="1282" on="0"/>
        <pt x="122" y="1287" on="1"/>
      </contour>
    </TTGlyph>
    <TTGlyph name="quotesinglbase" xMin="110" yMin="-382" xMax="320" yMax="93">
      <contour>
        <pt x="128" y="-81" on="1"/>
        <pt x="128" y="93" on="1"/>
        <pt x="320" y="93" on="1"/>
        <pt x="316" y="-77" on="0"/>
        <pt x="304" y="-144" on="1"/>
        <pt x="274" y="-301" on="0"/>
        <pt x="159" y="-382" on="1"/>
        <pt x="110" y="-319" on="1"/>
        <pt x="136" y="-295" on="0"/>
        <pt x="187" y="-179" on="0"/>
        <pt x="189" y="-99" on="1"/>
        <pt x="128" y="-82" on="0"/>
      </contour>
    </TTGlyph>
    <TTGlyph name="quotesingle" xMin="70" yMin="1000" xMax="224" yMax="1464">
      <contour>
        <pt x="173" y="1000" on="1"/>
        <pt x="122" y="1000" on="1"/>
        <pt x="70" y="1464" on="1"/>
        <pt x="224" y="1464" on="1"/>
      </contour>
    </TTGlyph>
    <TTGlyph name="r" xMin="122" yMin="0" xMax="566" yMax="1024">
      <contour>
        <pt x="260" y="1023" on="1"/>
        <pt x="260" y="831" on="1"/>
        <pt x="288" y="900" on="0"/>
        <pt x="394" y="991" on="0"/>
        <pt x="505" y="1024" on="0"/>
        <pt x="566" y="1024" on="1"/>
        <pt x="566" y="895" on="1"/>
        <pt x="483" y="895" on="0"/>
        <pt x="362" y="835" on="0"/>
        <pt x="295" y="729" on="0"/>
        <pt x="264" y="605" on="0"/>
        <pt x="264" y="532" on="1"/>
        <pt x="264" y="0" on="1"/>
        <pt x="122" y="0" on="1"/>
        <pt x="122" y="1023" on="1"/>
      </contour>
    </TTGlyph>
    <TTGlyph name="racute" xMin="122" yMin="0" xMax="639" yMax="1492">
      <component glyphName="glyph00365" x="122" y="0" flags="0x0"/>
      <component glyphName="acute" x="190" y="0" flags="0x1004"/>
      <component glyphName="r" x="0" y="0" flags="0x1004"/>
    </TTGlyph>
    <TTGlyph name="rcaron" xMin="72" yMin="0" xMax="566" yMax="1492">
      <component glyphName="glyph00365" x="72" y="0" flags="0x0"/>
      <component glyphName="caron" x="-111" y="0" flags="0x1004"/>
      <component glyphName="r" x="0" y="0" flags="0x1004"/>
    </TTGlyph>
    <TTGlyph name="rcommaaccent" xMin="118" yMin="-573" xMax="566" yMax="1024">
      <component glyphName="glyph00365" x="118" y="0" flags="0x0"/>
      <component glyphName="glyph00363" x="18" y="0" flags="0x1004"/>
      <component glyphName="r" x="0" y="0" flags="0x1004"/>
    </TTGlyph>
    <TTGlyph name="registered" xMin="123" yMin="47" xMax="1579" yMax="1503">
      <contour>
        <pt x="1579" y="774" on="1"/>
        <pt x="1579" y="578" on="0"/>
        <pt x="1383" y="243" on="0"/>
        <pt x="1047" y="47" on="0"/>
        <pt x="850" y="47" on="1"/>
        <pt x="654" y="47" on="0"/>
        <pt x="319" y="243" on="0"/>
        <pt x="123" y="578" on="0"/>
        <pt x="123" y="774" on="1"/>
        <pt x="123" y="971" on="0"/>
        <pt x="319" y="1307" on="0"/>
        <pt x="654" y="1503" on="0"/>
        <pt x="850" y="1503" on="1"/>
        <pt x="1047" y="1503" on="0"/>
        <pt x="1383" y="1307" on="0"/>
        <pt x="1579" y="971" on="0"/>
      </contour>
      <contour>
        <pt x="664" y="1184" on="1"/>
        <pt x="664" y="846" on="1"/>
        <pt x="849" y="846" on="1"/>
        <pt x="889" y="846" on="0"/>
        <pt x="951" y="852" on="0"/>
        <pt x="1019" y="872" on="0"/>
        <pt x="1063" y="908" on="0"/>
        <pt x="1092" y="971" on="0"/>
        <pt x="1092" y="1059" on="0"/>
        <pt x="1061" y="1124" on="0"/>
        <pt x="1017" y="1159" on="0"/>
        <pt x="947" y="1179" on="0"/>
        <pt x="887" y="1184" on="0"/>
        <pt x="848" y="1184" on="1"/>
      </contour>
      <contour>
        <pt x="857" y="1248" on="1"/>
        <pt x="1179" y="1248" on="0"/>
        <pt x="1179" y="1017" on="1"/>
        <pt x="1179" y="849" on="0"/>
        <pt x="1000" y="793" on="1"/>
        <pt x="1010" y="761" on="0"/>
        <pt x="1103" y="554" on="0"/>
        <pt x="1144" y="466" on="1"/>
        <pt x="1186" y="379" on="1"/>
        <pt x="1099" y="379" on="1"/>
        <pt x="916" y="779" on="1"/>
        <pt x="661" y="779" on="1"/>
        <pt x="661" y="381" on="1"/>
        <pt x="578" y="381" on="1"/>
        <pt x="578" y="1248" on="1"/>
      </contour>
      <contour>
        <pt x="667" y="100" on="0"/>
        <pt x="1031" y="100" on="0"/>
        <pt x="1342" y="281" on="0"/>
        <pt x="1523" y="591" on="0"/>
        <pt x="1523" y="955" on="0"/>
        <pt x="1342" y="1266" on="0"/>
        <pt x="1031" y="1447" on="0"/>
        <pt x="667" y="1447" on="0"/>
        <pt x="357" y="1266" on="0"/>
        <pt x="176" y="955" on="0"/>
        <pt x="176" y="591" on="0"/>
        <pt x="357" y="281" on="0"/>
      </contour>
    </TTGlyph>
    <TTGlyph name="ring" xMin="143" yMin="1160" xMax="591" yMax="1592">
      <contour>
        <pt x="364" y="1592" on="1"/>
        <pt x="260" y="1592" on="0"/>
        <pt x="143" y="1462" on="0"/>
        <pt x="143" y="1286" on="0"/>
        <pt x="259" y="1160" on="0"/>
        <pt x="364" y="1160" on="1"/>
        <pt x="471" y="1160" on="0"/>
        <pt x="591" y="1288" on="0"/>
        <pt x="591" y="1464" on="0"/>
        <pt x="472" y="1592" on="0"/>
      </contour>
      <contour>
        <pt x="241" y="1324" on="0"/>
        <pt x="241" y="1428" on="0"/>
        <pt x="306" y="1508" on="0"/>
        <pt x="422" y="1508" on="0"/>
        <pt x="487" y="1428" on="0"/>
        <pt x="487" y="1324" on="0"/>
        <pt x="422" y="1243" on="0"/>
        <pt x="306" y="1243" on="0"/>
      </contour>
    </TTGlyph>
    <TTGlyph name="s" xMin="67" yMin="-24" xMax="850" yMax="1044">
      <contour>
        <pt x="841" y="846" on="1"/>
        <pt x="744" y="791" on="0"/>
        <pt x="744" y="790" on="1"/>
        <pt x="710" y="868" on="0"/>
        <pt x="588" y="937" on="0"/>
        <pt x="488" y="937" on="1"/>
        <pt x="364" y="937" on="0"/>
        <pt x="236" y="847" on="0"/>
        <pt x="236" y="759" on="1"/>
        <pt x="236" y="724" on="0"/>
        <pt x="263" y="670" on="0"/>
        <pt x="306" y="635" on="0"/>
        <pt x="380" y="606" on="0"/>
        <pt x="449" y="590" on="0"/>
        <pt x="501" y="580" on="1"/>
        <pt x="675" y="548" on="0"/>
        <pt x="850" y="413" on="0"/>
        <pt x="850" y="286" on="1"/>
        <pt x="850" y="135" on="0"/>
        <pt x="648" y="-24" on="0"/>
        <pt x="445" y="-24" on="1"/>
        <pt x="384" y="-24" on="0"/>
        <pt x="271" y="1" on="0"/>
        <pt x="166" y="56" on="0"/>
        <pt x="86" y="157" on="0"/>
        <pt x="67" y="225" on="1"/>
        <pt x="175" y="269" on="1"/>
        <pt x="211" y="171" on="0"/>
        <pt x="339" y="83" on="0"/>
        <pt x="458" y="83" on="1"/>
        <pt x="721" y="83" on="0"/>
        <pt x="721" y="259" on="1"/>
        <pt x="721" y="355" on="0"/>
        <pt x="601" y="434" on="0"/>
        <pt x="408" y="474" on="1"/>
        <pt x="350" y="486" on="0"/>
        <pt x="271" y="511" on="0"/>
        <pt x="186" y="555" on="0"/>
        <pt x="135" y="612" on="0"/>
        <pt x="102" y="702" on="0"/>
        <pt x="102" y="761" on="1"/>
        <pt x="102" y="896" on="0"/>
        <pt x="311" y="1044" on="0"/>
        <pt x="480" y="1044" on="1"/>
        <pt x="616" y="1044" on="0"/>
        <pt x="788" y="954" on="0"/>
      </contour>
    </TTGlyph>
    <TTGlyph name="sacute" xMin="67" yMin="-24" xMax="850" yMax="1492">
      <component glyphName="glyph00365" x="67" y="0" flags="0x0"/>
      <component glyphName="acute" x="328" y="0" flags="0x1004"/>
      <component glyphName="s" x="0" y="0" flags="0x1004"/>
    </TTGlyph>
    <TTGlyph name="scaron" xMin="67" yMin="-24" xMax="850" yMax="1492">
      <component glyphName="glyph00365" x="67" y="0" flags="0x0"/>
      <component glyphName="caron" x="47" y="0" flags="0x1004"/>
      <component glyphName="s" x="0" y="0" flags="0x1004"/>
    </TTGlyph>
    <TTGlyph name="scedilla" xMin="67" yMin="-390" xMax="850" yMax="1044">
      <component glyphName="glyph00365" x="67" y="0" flags="0x0"/>
      <component glyphName="s" x="0" y="0" flags="0x1004"/>
      <component glyphName="cedilla" x="232" y="0" flags="0x1004"/>
    </TTGlyph>
    <TTGlyph name="scircumflex" xMin="67" yMin="-24" xMax="850" yMax="1492">
      <component glyphName="glyph00365" x="67" y="0" flags="0x0"/>
      <component glyphName="circumflex" x="65" y="0" flags="0x1004"/>
      <component glyphName="s" x="0" y="0" flags="0x1004"/>
    </TTGlyph>
    <TTGlyph name="scommaaccent" xMin="67" yMin="-573" xMax="850" yMax="1044">
      <component glyphName="glyph00365" x="67" y="0" flags="0x0"/>
      <component glyphName="glyph00363" x="277" y="0" flags="0x1004"/>
      <component glyphName="s" x="0" y="0" flags="0x1004"/>
    </TTGlyph>
    <TTGlyph name="section" xMin="127" yMin="-33" xMax="898" yMax="1478">
      <contour>
        <pt x="301" y="731" on="1"/>
        <pt x="301" y="773" on="0"/>
        <pt x="338" y="863" on="0"/>
        <pt x="391" y="931" on="1"/>
        <pt x="417" y="921" on="0"/>
        <pt x="500" y="890" on="0"/>
        <pt x="543" y="874" on="0"/>
        <pt x="608" y="847" on="0"/>
        <pt x="641" y="830" on="0"/>
        <pt x="686" y="804" on="0"/>
        <pt x="708" y="782" on="0"/>
        <pt x="730" y="753" on="0"/>
        <pt x="739" y="721" on="0"/>
        <pt x="739" y="703" on="1"/>
        <pt x="739" y="630" on="0"/>
        <pt x="677" y="524" on="1"/>
        <pt x="662" y="528" on="0"/>
        <pt x="611" y="542" on="0"/>
        <pt x="481" y="586" on="0"/>
        <pt x="382" y="632" on="0"/>
        <pt x="301" y="699" on="0"/>
      </contour>
      <contour>
        <pt x="535" y="-33" on="1"/>
        <pt x="715" y="-33" on="0"/>
        <pt x="898" y="113" on="0"/>
        <pt x="898" y="253" on="1"/>
        <pt x="898" y="394" on="0"/>
        <pt x="783" y="471" on="1"/>
        <pt x="873" y="614" on="0"/>
        <pt x="873" y="706" on="1"/>
        <pt x="873" y="806" on="0"/>
        <pt x="735" y="927" on="0"/>
        <pt x="560" y="994" on="1"/>
        <pt x="415" y="1050" on="0"/>
        <pt x="387" y="1064" on="1"/>
        <pt x="315" y="1102" on="0"/>
        <pt x="303" y="1157" on="1"/>
        <pt x="300" y="1170" on="0"/>
        <pt x="300" y="1186" on="1"/>
        <pt x="300" y="1189" on="1"/>
        <pt x="302" y="1278" on="0"/>
        <pt x="420" y="1371" on="0"/>
        <pt x="535" y="1371" on="1"/>
        <pt x="635" y="1371" on="0"/>
        <pt x="747" y="1307" on="0"/>
        <pt x="793" y="1221" on="1"/>
        <pt x="884" y="1278" on="1"/>
        <pt x="829" y="1387" on="0"/>
        <pt x="662" y="1478" on="0"/>
        <pt x="527" y="1478" on="1"/>
        <pt x="360" y="1478" on="0"/>
        <pt x="167" y="1331" on="0"/>
        <pt x="167" y="1195" on="1"/>
        <pt x="167" y="1112" on="0"/>
        <pt x="224" y="1018" on="0"/>
        <pt x="281" y="984" on="1"/>
        <pt x="174" y="851" on="0"/>
        <pt x="174" y="747" on="1"/>
        <pt x="174" y="647" on="0"/>
        <pt x="305" y="527" on="0"/>
        <pt x="455" y="473" on="1"/>
        <pt x="646" y="404" on="0"/>
        <pt x="685" y="384" on="1"/>
        <pt x="745" y="352" on="0"/>
        <pt x="760" y="307" on="1"/>
        <pt x="769" y="283" on="0"/>
        <pt x="770" y="243" on="1"/>
        <pt x="770" y="237" on="1"/>
        <pt x="770" y="157" on="0"/>
        <pt x="648" y="74" on="0"/>
        <pt x="540" y="74" on="1"/>
        <pt x="294" y="74" on="0"/>
        <pt x="229" y="302" on="1"/>
        <pt x="127" y="265" on="1"/>
        <pt x="138" y="200" on="0"/>
        <pt x="199" y="96" on="0"/>
        <pt x="280" y="30" on="0"/>
        <pt x="382" y="-15" on="0"/>
        <pt x="483" y="-33" on="0"/>
      </contour>
    </TTGlyph>
    <TTGlyph name="semicolon" xMin="150" yMin="-254" xMax="350" yMax="1024">
      <contour>
        <pt x="150" y="219" on="1"/>
        <pt x="350" y="219" on="1"/>
        <pt x="350" y="134" on="1"/>
        <pt x="345" y="-19" on="0"/>
        <pt x="331" y="-78" on="1"/>
        <pt x="303" y="-192" on="0"/>
        <pt x="213" y="-254" on="1"/>
        <pt x="164" y="-192" on="1"/>
        <pt x="191" y="-171" on="0"/>
        <pt x="242" y="-64" on="0"/>
        <pt x="244" y="16" on="1"/>
        <pt x="150" y="29" on="1"/>
      </contour>
      <contour>
        <pt x="332" y="1024" on="1"/>
        <pt x="332" y="808" on="1"/>
        <pt x="159" y="808" on="1"/>
        <pt x="159" y="1024" on="1"/>
      </contour>
    </TTGlyph>
    <TTGlyph name="seven" xMin="136" yMin="-1" xMax="874" yMax="1464">
      <contour>
        <pt x="148" y="1348" on="1"/>
        <pt x="136" y="1464" on="1"/>
        <pt x="874" y="1464" on="1"/>
        <pt x="874" y="1351" on="1"/>
        <pt x="317" y="-1" on="1"/>
        <pt x="159" y="1" on="1"/>
        <pt x="722" y="1348" on="1"/>
      </contour>
    </TTGlyph>
    <TTGlyph name="six" xMin="124" yMin="-24" xMax="1083" yMax="1491">
      <contour>
        <pt x="290" y="828" on="1"/>
        <pt x="454" y="946" on="0"/>
        <pt x="622" y="946" on="1"/>
        <pt x="715" y="946" on="0"/>
        <pt x="881" y="886" on="0"/>
        <pt x="1009" y="774" on="0"/>
        <pt x="1083" y="595" on="0"/>
        <pt x="1083" y="484" on="1"/>
        <pt x="1083" y="408" on="0"/>
        <pt x="1045" y="262" on="0"/>
        <pt x="967" y="132" on="0"/>
        <pt x="859" y="34" on="0"/>
        <pt x="709" y="-24" on="0"/>
        <pt x="623" y="-24" on="1"/>
        <pt x="496" y="-24" on="0"/>
        <pt x="305" y="76" on="0"/>
        <pt x="184" y="265" on="0"/>
        <pt x="124" y="531" on="0"/>
        <pt x="124" y="700" on="1"/>
        <pt x="124" y="885" on="0"/>
        <pt x="201" y="1184" on="0"/>
        <pt x="338" y="1384" on="0"/>
        <pt x="528" y="1491" on="0"/>
        <pt x="641" y="1491" on="1"/>
        <pt x="791" y="1491" on="0"/>
        <pt x="963" y="1396" on="1"/>
        <pt x="922" y="1285" on="1"/>
        <pt x="767" y="1372" on="0"/>
        <pt x="643" y="1372" on="1"/>
        <pt x="541" y="1372" on="0"/>
        <pt x="392" y="1254" on="0"/>
        <pt x="301" y="1009" on="0"/>
      </contour>
      <contour>
        <pt x="284" y="698" on="1"/>
        <pt x="283" y="672" on="0"/>
        <pt x="283" y="607" on="1"/>
        <pt x="283" y="539" on="0"/>
        <pt x="296" y="419" on="0"/>
        <pt x="326" y="300" on="0"/>
        <pt x="378" y="206" on="0"/>
        <pt x="452" y="132" on="0"/>
        <pt x="558" y="92" on="0"/>
        <pt x="623" y="92" on="1"/>
        <pt x="686" y="92" on="0"/>
        <pt x="797" y="145" on="0"/>
        <pt x="882" y="242" on="0"/>
        <pt x="932" y="390" on="0"/>
        <pt x="932" y="480" on="1"/>
        <pt x="932" y="572" on="0"/>
        <pt x="884" y="708" on="0"/>
        <pt x="797" y="788" on="0"/>
        <pt x="687" y="827" on="0"/>
        <pt x="621" y="827" on="1"/>
        <pt x="540" y="827" on="0"/>
        <pt x="362" y="756" on="0"/>
      </contour>
    </TTGlyph>
</ttFont>
